<svg width="55" height="56" viewBox="0 0 55 56" fill="none" xmlns="http://www.w3.org/2000/svg">
<path d="M30.2002 26.9222C30.1092 26.8662 30.0046 26.8283 29.899 26.8118L27.5612 26.3992C27.1288 26.3227 26.704 26.6203 26.6277 27.0527C26.5514 27.4852 26.8487 27.91 27.2811 27.9862L29.4872 28.3756L36.8237 32.8836C37.1819 33.1037 37.6731 32.9968 37.9108 32.6509C38.166 32.2797 38.0508 31.7462 37.6674 31.5104L30.2002 26.9222Z" fill="#CFCFCF"/>
<path d="M53.5437 31.73L50.2771 34.7829L35.3092 20.0144L54.6449 1.89367C54.9696 1.58931 54.9861 1.07942 54.6819 0.754753C54.3776 0.430083 53.8676 0.413538 53.5429 0.717795L33.5958 19.4115C33.2668 19.7198 33.2599 20.2564 33.5808 20.5731L34.9048 21.8793L34.4821 22.2525L25.6326 21.4905C25.496 21.4789 25.3541 21.5024 25.2295 21.56L18.2177 24.7534C18.1973 24.7481 18.1769 24.743 18.1557 24.7392L14.1225 24.0275L14.4487 23.1938C14.6099 22.7815 14.4085 22.3164 13.9976 22.1521L1.10533 16.9952C0.691919 16.8296 0.223179 17.0309 0.0579434 17.4441C-0.107399 17.8573 0.0936119 18.3262 0.506808 18.4914L12.6565 23.3514L5.49674 41.6485L1.07503 40.0824C0.655391 39.9339 0.195031 40.1534 0.0464478 40.5729C-0.102135 40.9925 0.11757 41.4529 0.536997 41.6015L5.69389 43.4279C6.0987 43.5713 6.55691 43.3615 6.71323 42.962L7.90985 39.904L11.0451 41.661L10.6993 42.2215C9.71948 43.8095 10.2142 45.8987 11.8023 46.8786C12.6422 47.3968 13.6847 47.5197 14.6232 47.216C14.7737 48.194 15.3483 49.0666 16.1911 49.5865C17.0309 50.1047 18.0733 50.2276 19.0119 49.9239C19.1625 50.9019 19.737 51.7744 20.5797 52.2944C21.4221 52.8142 22.4592 52.9366 23.4007 52.6327C23.5516 53.6103 24.1259 54.4826 24.9684 55.0023C26.193 55.7578 27.8137 55.6449 28.9174 54.7198C29.1957 54.4865 29.435 54.2083 29.6256 53.8993L30.1753 53.0086L30.6278 53.2866C31.8539 54.0399 33.4743 53.9239 34.5762 52.9967C34.8541 52.763 35.0929 52.4843 35.2829 52.175C35.6607 51.5602 35.8169 50.8711 35.7756 50.2004C36.0315 50.262 36.2934 50.2951 36.5577 50.2951C37.728 50.2951 38.8349 49.678 39.4473 48.6813C39.8163 48.0808 39.9847 47.3962 39.942 46.7071C40.1972 46.7683 40.4585 46.8012 40.722 46.8012C41.8922 46.8012 42.9993 46.1841 43.6116 45.1874C43.9809 44.5865 44.1492 43.9014 44.1062 43.2118C44.3642 43.2732 44.6262 43.3053 44.887 43.3053C46.0251 43.3053 47.1378 42.7324 47.776 41.6937C48.753 40.1038 48.2542 38.0155 46.6643 37.0386L46.1122 36.6994L47.9641 34.7644L49.6962 36.4735C50.0001 36.7732 50.5007 36.7798 50.8124 36.4887L54.6443 32.9075C54.9694 32.6037 54.9866 32.0938 54.6827 31.7686C54.3787 31.4434 53.8689 31.4262 53.5437 31.73ZM12.6486 45.5071C11.8167 44.9939 11.5576 43.8996 12.0708 43.0677L16.5841 35.7532C17.0877 34.9368 18.1686 34.6698 18.9939 35.1574C19.8479 35.6623 20.0837 36.8331 19.5709 37.6642L15.0881 44.9293C14.5748 45.7611 13.4805 46.0202 12.6486 45.5071ZM17.0373 48.215C16.2156 47.7079 15.9516 46.5986 16.4595 45.7756L20.07 39.924C20.5737 39.1077 21.6546 38.8406 22.4799 39.3283C23.3339 39.8331 23.5696 41.004 23.0567 41.8351L19.4766 47.6372C18.9635 48.469 17.8691 48.7282 17.0373 48.215ZM22.7654 51.1393C22.3046 51.2485 21.8289 51.1715 21.4261 50.9229C20.6044 50.4158 20.3404 49.3064 20.8484 48.4835L23.5563 44.0948C24.0599 43.2784 25.141 43.0114 25.9662 43.499C26.8202 44.0039 27.0559 45.1747 26.5431 46.0058L23.8657 50.3451C23.6169 50.7481 23.2261 51.0301 22.7654 51.1393ZM28.2542 53.0531C27.7471 53.8749 26.6378 54.1387 25.8147 53.6308C24.993 53.1238 24.7292 52.0143 25.237 51.1914L27.0422 48.2656C27.5459 47.4494 28.6269 47.182 29.4521 47.67C30.3061 48.1747 30.5418 49.3457 30.029 50.1768L28.2542 53.0531ZM44.7076 35.8362L40.7135 33.382C40.343 33.1543 39.8327 33.2762 39.6052 33.6467C39.3775 34.0171 39.4994 34.5274 39.8699 34.755L45.8207 38.4115C46.6535 38.9233 46.9147 40.0171 46.403 40.8499C45.8913 41.6826 44.7974 41.9439 43.9646 41.4322L37.5823 37.5105C37.2031 37.2774 36.7069 37.3961 36.474 37.7752C36.241 38.1543 36.3596 38.6506 36.7387 38.8835L41.6564 41.9052C42.4792 42.4107 42.7451 43.5197 42.2387 44.3436C41.7332 45.1663 40.6243 45.4321 39.8004 44.9259L35.3436 42.1874C34.9644 41.9543 34.4683 42.0729 34.2353 42.4521C34.0024 42.8312 34.1209 43.3275 34.5001 43.5604L37.4922 45.3989C38.3149 45.9045 38.5809 47.0132 38.0745 47.8373C37.5691 48.6599 36.4601 48.9259 35.6362 48.4196C35.6362 48.4196 33.0048 46.8043 32.9802 46.7925C32.6122 46.6148 32.1624 46.7412 31.9441 47.0966C31.7111 47.4757 31.8297 47.972 32.2088 48.2049L33.328 48.8926C34.1608 49.4043 34.422 50.4981 33.9102 51.331C33.4048 52.1537 32.2958 52.4195 31.4719 51.9132L31.022 51.6367L31.4009 51.0226C31.8852 50.2376 32.0355 49.2708 31.8131 48.3701C31.5937 47.4813 31.0466 46.7399 30.2726 46.2824C29.6687 45.9255 28.993 45.781 28.3352 45.8253C28.4588 45.2947 28.4594 44.7354 28.327 44.1993C28.1077 43.3105 27.5605 42.5691 26.7865 42.1115C26.1826 41.7545 25.507 41.61 24.8492 41.6544C25.1815 40.227 24.5697 38.6911 23.3005 37.9407C22.6966 37.5838 22.0209 37.4393 21.3631 37.4835C21.6954 36.0561 21.0837 34.5202 19.8144 33.7698C18.2387 32.8383 16.1745 33.3484 15.2131 34.9066L11.8927 40.288L8.50278 38.3889L13.5234 25.5582L16.2571 26.0406C15.4796 27.0063 15.261 28.3659 15.8089 29.5692C16.3758 30.8141 17.6076 31.5506 18.8938 31.5505C19.3622 31.5505 19.8381 31.4528 20.2914 31.2463L25.0103 29.097C25.41 28.915 25.5916 28.4294 25.4096 28.0298C25.2276 27.6302 24.742 27.4483 24.3424 27.6304L19.6235 29.7796C18.7342 30.1848 17.6807 29.7906 17.2755 28.9011C16.8704 28.0115 17.2644 26.9582 18.154 26.5531L25.7051 23.114L34.6875 23.8875C34.7106 23.8895 34.7337 23.8905 34.7567 23.8905C34.9523 23.8905 35.1421 23.8193 35.2899 23.6888L36.0545 23.0137L46.8166 33.6323L44.7076 35.8362Z" fill="#A91D21"/>
</svg>
