<svg width="56" height="56" viewBox="0 0 56 56" fill="none" xmlns="http://www.w3.org/2000/svg">
<path d="M54.552 0.644437C54.4463 0.578233 54.3285 0.533569 54.2054 0.512987C54.0823 0.492404 53.9564 0.49632 53.8349 0.524506C53.7134 0.552692 53.5985 0.604599 53.4971 0.677231C53.3957 0.749872 53.3096 0.841825 53.2437 0.94782L44.8438 14.5337C44.4142 14.3544 43.9536 14.261 43.488 14.2587C42.7956 14.2624 42.1182 14.462 41.5343 14.8345C40.9505 15.207 40.4841 15.7371 40.1887 16.3635L38.8045 16.0696C37.9782 12.6263 35.9431 9.59422 33.0697 7.52496C30.1962 5.45569 26.6753 4.48678 23.1477 4.79453C19.6201 5.10227 16.3203 6.66623 13.8486 9.20182C11.3768 11.7374 9.89747 15.0761 9.67979 18.6104L8.48522 18.07C8.51357 17.9037 8.53262 17.736 8.5421 17.5675C8.5458 16.9798 8.40748 16.4 8.13889 15.8772C7.8704 15.3544 7.4796 14.9043 6.99978 14.5649C6.51998 14.2256 5.96531 14.0071 5.38296 13.928C4.80061 13.849 4.20778 13.9117 3.65488 14.111C3.10198 14.3102 2.60536 14.64 2.20723 15.0723C1.8091 15.5045 1.52124 16.0266 1.36812 16.5939C1.215 17.1614 1.20115 17.7573 1.32774 18.3313C1.45433 18.9051 1.71763 19.4399 2.09525 19.8903L0.199102 22.5638C0.054199 22.7679 -0.0042022 23.0208 0.0366502 23.2677C0.0774931 23.5146 0.214271 23.7353 0.417159 23.8817C0.577203 23.9975 0.769452 24.0606 0.96704 24.0618C1.11745 24.0611 1.26554 24.0246 1.39907 23.9554C1.5326 23.8861 1.64774 23.7861 1.73498 23.6636L3.63112 20.9806C4.02523 21.1288 4.44255 21.2058 4.86361 21.2081C5.41218 21.2057 5.95308 21.0791 6.44569 20.8377C6.93825 20.5963 7.36981 20.2465 7.7078 19.8144L9.66083 20.6961C9.85348 23.2337 10.6975 25.6784 12.1115 27.7943C13.5255 29.9101 15.4613 31.6253 17.7321 32.774C20.0029 33.9227 22.5316 34.4661 25.0738 34.3516C27.616 34.2372 30.0856 33.4686 32.2439 32.1204L42.7864 44.6918C47.4036 49.9157 54.7322 42.6156 49.5178 37.9795L36.9843 27.4749C38.745 24.6794 39.5224 21.3763 39.1933 18.0889L39.8948 18.2406C39.9399 18.8088 40.1175 19.3585 40.4138 19.8454C40.71 20.3323 41.1163 20.7429 41.6002 21.0441C42.084 21.3453 42.6318 21.5286 43.1995 21.5795C43.7671 21.6303 44.3388 21.5471 44.8685 21.3367C45.3981 21.1262 45.871 20.7944 46.249 20.3677C46.6269 19.9412 46.8995 19.4318 47.0446 18.8807C47.1898 18.3296 47.2035 17.752 47.0847 17.1946C46.9659 16.6372 46.7179 16.1154 46.3607 15.6714L54.8933 1.93381C55.0177 1.71726 55.0517 1.46038 54.9878 1.21896C54.9239 0.977532 54.7673 0.77108 54.552 0.644437ZM4.88258 19.312C4.53569 19.3101 4.19715 19.2054 3.90977 19.0111C3.62238 18.8168 3.39906 18.5416 3.26805 18.2204C3.13703 17.8992 3.10421 17.5465 3.17372 17.2066C3.24325 16.8667 3.41197 16.5552 3.65859 16.3111C3.9052 16.0672 4.21861 15.9018 4.55921 15.836C4.89979 15.7702 5.25226 15.8068 5.57202 15.9413C5.89179 16.0757 6.16449 16.302 6.35566 16.5915C6.54682 16.881 6.64786 17.2206 6.64596 17.5675C6.64596 17.7982 6.60026 18.0266 6.51141 18.2395C6.42256 18.4523 6.29237 18.6456 6.12836 18.8078C5.96436 18.97 5.76981 19.0981 5.55597 19.1846C5.34214 19.2712 5.11325 19.3145 4.88258 19.312ZM15.3113 10.438C16.8726 8.86942 18.8116 7.72956 20.9415 7.12805C23.0713 6.52659 25.3201 6.48387 27.4713 7.00403C29.6225 7.5242 31.6033 8.58965 33.2231 10.0978C34.8427 11.6059 36.0467 13.5059 36.7188 15.6145L31.1062 14.4104C31.0405 13.8465 30.8437 13.3057 30.5317 12.8314C30.2197 12.3571 29.801 11.9623 29.3092 11.6787C28.8174 11.3949 28.2661 11.2302 27.6992 11.1976C27.1324 11.165 26.5658 11.2654 26.0447 11.4908C25.5236 11.7163 25.0624 12.0604 24.6981 12.4959C24.3338 12.9312 24.0763 13.4459 23.9463 13.9986C23.8163 14.5512 23.8173 15.1267 23.9494 15.6789C24.0815 16.2311 24.3408 16.7448 24.7067 17.1788L22.0616 21.3029C21.3684 21.0484 20.613 21.0166 19.9009 21.212C19.1887 21.4075 18.5554 21.8205 18.0892 22.3932L11.538 19.4636C11.5542 16.0748 12.9107 12.83 15.3113 10.438ZM25.7401 14.8655C25.7401 14.519 25.8428 14.1803 26.0351 13.892C26.2274 13.6038 26.5008 13.379 26.8207 13.246C27.1406 13.113 27.4928 13.0777 27.8328 13.1447C28.1728 13.2115 28.4853 13.3776 28.7309 13.622C28.9767 13.8663 29.1444 14.178 29.2132 14.5176C29.2819 14.8572 29.2486 15.2096 29.1172 15.5302C28.9859 15.8508 28.7626 16.1254 28.4754 16.3193C28.1882 16.5132 27.8501 16.6175 27.5035 16.6194C27.0384 16.6194 26.5922 16.4347 26.2634 16.1058C25.9344 15.7768 25.7496 15.3307 25.7496 14.8655H25.7401ZM22.6115 24.7349C22.6115 25.0822 22.5084 25.4217 22.3152 25.7103C22.1221 25.999 21.8476 26.2238 21.5266 26.3562C21.2055 26.4887 20.8524 26.5229 20.5119 26.4544C20.1714 26.386 19.859 26.218 19.614 25.9718C19.3691 25.7255 19.2028 25.4121 19.1362 25.0713C19.0696 24.7304 19.1057 24.3775 19.2399 24.0571C19.3741 23.7368 19.6004 23.4636 19.89 23.272C20.1798 23.0804 20.5198 22.9791 20.867 22.981C21.3323 22.981 21.7783 23.1658 22.1073 23.4948C22.4362 23.8236 22.621 24.2698 22.621 24.7349H22.6115ZM48.2853 39.43C51.4897 42.1794 47.0148 46.6923 44.237 43.4878L33.8082 31.0206C34.178 30.7173 34.5477 30.3854 34.889 30.0726C35.2303 29.7597 35.5242 29.39 35.8371 29.0392L48.2853 39.43ZM33.5712 28.6979C31.1485 31.1167 27.8648 32.4753 24.4413 32.4753C21.0178 32.4753 17.7341 31.1167 15.3113 28.6979C13.3849 26.7749 12.1227 24.2871 11.7087 21.5968L17.2833 24.1092C17.242 24.3153 17.2198 24.5247 17.217 24.7349C17.217 25.703 17.6016 26.6314 18.2861 27.316C18.9706 28.0005 19.899 28.385 20.867 28.385C21.8351 28.385 22.7636 28.0005 23.4481 27.316C24.1326 26.6314 24.5171 25.703 24.5171 24.7349C24.5161 23.866 24.1994 23.0271 23.6259 22.3742L26.2521 18.2786C26.6525 18.4292 27.0759 18.5094 27.5035 18.5156C28.2186 18.5141 28.9174 18.3032 29.5138 17.9089C30.1103 17.5146 30.5782 16.9543 30.8597 16.2971L37.1928 17.6623C37.4953 19.6569 37.3251 21.6946 36.696 23.6114C36.067 25.5281 34.9967 27.2704 33.5712 28.6979ZM43.488 19.6627C43.1411 19.6627 42.8021 19.5599 42.5136 19.3671C42.2252 19.1744 42.0004 18.9005 41.8677 18.58C41.7349 18.2595 41.7001 17.9069 41.7678 17.5667C41.8355 17.2264 42.0026 16.9139 42.2478 16.6686C42.4931 16.4233 42.8057 16.2562 43.1459 16.1886C43.4861 16.1209 43.8387 16.1556 44.1593 16.2884C44.4797 16.4212 44.7537 16.646 44.9464 16.9344C45.1391 17.2228 45.242 17.5619 45.242 17.9088C45.242 18.1392 45.1966 18.3672 45.1085 18.58C45.0203 18.7928 44.8912 18.9862 44.7283 19.1491C44.5654 19.3119 44.372 19.4411 44.1593 19.5293C43.9464 19.6174 43.7184 19.6627 43.488 19.6627Z" fill="#A91D21"/>
<path d="M8.76008 46.389H7.59395C7.51668 46.3928 7.43951 46.3814 7.3667 46.3553C7.29398 46.3292 7.22705 46.289 7.16978 46.2371C7.11252 46.1851 7.06607 46.1225 7.03317 46.0525C7.00017 45.9825 6.98131 45.9069 6.97771 45.8296C6.97827 45.6811 7.03601 45.5385 7.13888 45.4314C7.26582 45.3228 7.4269 45.2625 7.59395 45.2608H9.8788C10.1302 45.2608 10.3713 45.1608 10.5492 44.9831C10.7269 44.8053 10.8269 44.5641 10.8269 44.3127C10.8269 44.0613 10.7269 43.8201 10.5492 43.6423C10.3713 43.4645 10.1302 43.3646 9.8788 43.3646H9.13931V42.5777C9.13931 42.3263 9.03938 42.0851 8.86162 41.9073C8.68376 41.7296 8.44267 41.6296 8.19124 41.6296C7.93981 41.6296 7.69862 41.7296 7.52086 41.9073C7.343 42.0851 7.24317 42.3263 7.24317 42.5777V43.3931C6.70921 43.4659 6.21177 43.7047 5.82104 44.0757C5.58682 44.3038 5.40069 44.5765 5.27368 44.8777C5.14667 45.179 5.08133 45.5027 5.08154 45.8296C5.08525 46.1558 5.15319 46.4781 5.28146 46.778C5.40974 47.078 5.59583 47.3497 5.82914 47.5777C6.06244 47.8058 6.33836 47.9856 6.64118 48.107C6.94395 48.2283 7.26772 48.2889 7.59395 48.2851H8.798C8.95481 48.28 9.10745 48.3368 9.22274 48.4431C9.33802 48.5496 9.40685 48.6972 9.41425 48.8539C9.41359 49.0024 9.35594 49.145 9.25308 49.2521C9.12613 49.3607 8.96505 49.4211 8.798 49.4228H6.46573C6.21428 49.4228 5.97313 49.5227 5.79534 49.7005C5.61754 49.8782 5.51766 50.1194 5.51766 50.3709C5.51766 50.6223 5.61754 50.8635 5.79534 51.0412C5.97313 51.219 6.21428 51.3189 6.46573 51.3189H7.20524V52.1058C7.20524 52.3573 7.30507 52.5984 7.48293 52.7762C7.6607 52.954 7.90189 53.0539 8.15331 53.0539C8.40474 53.0539 8.64584 52.954 8.8237 52.7762C9.00146 52.5984 9.10139 52.3573 9.10139 52.1058V51.2905C9.63856 51.2196 10.1397 50.9807 10.533 50.6079C10.7671 50.3798 10.9533 50.107 11.0803 49.8058C11.2073 49.5045 11.2727 49.1808 11.2725 48.8539C11.265 48.1943 10.9963 47.5645 10.5254 47.1025C10.0546 46.6405 9.41975 46.3839 8.76008 46.389Z" fill="#CFCFCF"/>
<path d="M8.15342 39.1931C6.54083 39.1931 4.96444 39.6713 3.62362 40.5672C2.2828 41.4631 1.23775 42.7365 0.620644 44.2263C0.0035345 45.7162 -0.157931 47.3555 0.156667 48.9372C0.471266 50.5188 1.2478 51.9716 2.38809 53.1118C3.52836 54.2521 4.98116 55.0287 6.56277 55.3432C8.14442 55.6579 9.78373 55.4964 11.2736 54.8793C12.7634 54.2621 14.0369 53.2172 14.9327 51.8763C15.8286 50.5355 16.3068 48.9591 16.3068 47.3465C16.3043 45.1848 15.4445 43.1124 13.916 41.584C12.3875 40.0555 10.315 39.1956 8.15342 39.1931ZM8.15342 53.5943C6.91543 53.5943 5.70528 53.2271 4.67608 52.5391C3.64687 51.8511 2.84487 50.8734 2.37155 49.7294C1.89824 48.5855 1.77487 47.3269 2.01708 46.1128C2.25929 44.8988 2.85618 43.7839 3.73222 42.9092C4.60826 42.0344 5.72409 41.4392 6.93847 41.1989C8.15295 40.9585 9.41132 41.0838 10.5545 41.5588C11.6978 42.0338 12.6743 42.8373 13.3608 43.8676C14.0472 44.8979 14.4126 46.1085 14.4107 47.3465C14.4081 49.0044 13.7478 50.5936 12.5747 51.7649C11.4014 52.9364 9.81132 53.5943 8.15342 53.5943Z" fill="#CFCFCF"/>
<path d="M19.0848 50.4941C18.8334 50.4941 18.5922 50.5941 18.4144 50.7718C18.2366 50.9496 18.1367 51.1908 18.1367 51.4422V54.5424C18.1367 54.7938 18.2366 55.035 18.4144 55.2128C18.5922 55.3906 18.8334 55.4905 19.0848 55.4905C19.3362 55.4905 19.5774 55.3906 19.7552 55.2128C19.9329 55.035 20.0329 54.7938 20.0329 54.5424V51.4422C20.0329 51.1908 19.9329 50.9496 19.7552 50.7718C19.5774 50.5941 19.3362 50.4941 19.0848 50.4941Z" fill="#CFCFCF"/>
<path d="M24.0145 47.0527C23.763 47.0527 23.522 47.1527 23.3441 47.3304C23.1663 47.5082 23.0664 47.7494 23.0664 48.0008V54.5425C23.0664 54.7939 23.1663 55.0351 23.3441 55.2129C23.522 55.3907 23.763 55.4906 24.0145 55.4906C24.266 55.4906 24.5071 55.3907 24.685 55.2129C24.8627 55.0351 24.9625 54.7939 24.9625 54.5425V48.0008C24.9625 47.7494 24.8627 47.5082 24.685 47.3304C24.5071 47.1527 24.266 47.0527 24.0145 47.0527Z" fill="#CFCFCF"/>
<path d="M28.9354 43.3645C28.6839 43.3645 28.4428 43.4644 28.265 43.6422C28.0872 43.8201 27.9873 44.0611 27.9873 44.3126V54.5423C27.9873 54.7937 28.0872 55.0349 28.265 55.2126C28.4428 55.3905 28.6839 55.4903 28.9354 55.4903C29.1868 55.4903 29.428 55.3905 29.6058 55.2126C29.7836 55.0349 29.8834 54.7937 29.8834 54.5423V44.3126C29.8834 44.0611 29.7836 43.8201 29.6058 43.6422C29.428 43.4644 29.1868 43.3645 28.9354 43.3645Z" fill="#CFCFCF"/>
<path d="M33.8651 38.5483C33.6135 38.5483 33.3724 38.6483 33.1947 38.826C33.0168 39.0038 32.917 39.245 32.917 39.4964V54.5423C32.917 54.7937 33.0168 55.0349 33.1947 55.2127C33.3724 55.3905 33.6135 55.4904 33.8651 55.4904C34.1165 55.4904 34.3576 55.3905 34.5354 55.2127C34.7132 55.0349 34.8131 54.7937 34.8131 54.5423V39.4964C34.8131 39.245 34.7132 39.0038 34.5354 38.826C34.3576 38.6483 34.1165 38.5483 33.8651 38.5483Z" fill="#CFCFCF"/>
</svg>
