<svg width="47" height="56" viewBox="0 0 47 56" fill="none" xmlns="http://www.w3.org/2000/svg">
<path d="M23.0646 0.5C16.9497 0.507044 11.0872 2.93931 6.7633 7.26322C2.43939 11.5871 0.0071228 17.4496 7.92911e-05 23.5645C-0.0128815 28.4835 1.56338 33.2752 4.49411 37.2258L5.92057 36.172C3.40186 32.7679 1.96885 28.6831 1.80887 24.4516H10.3791C10.4293 27.877 10.9295 31.281 11.8668 34.5761L13.5682 34.074C12.6787 30.942 12.203 27.7071 12.1533 24.4516H22.1775V32.4355H23.9517V24.4516H33.9759C33.9247 27.7073 33.4476 30.9422 32.5566 34.074L34.258 34.5761C35.1968 31.2812 35.6985 27.8772 35.7501 24.4516H44.3239C44.1646 28.6844 42.7316 32.7705 40.2122 36.1755L41.6351 37.2258C44.5658 33.2752 46.1421 28.4835 46.1291 23.5645C46.1221 17.4496 43.6898 11.5871 39.3659 7.26322C35.042 2.93931 29.1795 0.507044 23.0646 0.5ZM10.364 22.6774H1.79645C1.95775 18.7011 3.23678 14.8508 5.48678 11.5683C7.49407 12.2925 9.55927 12.8448 11.6601 13.2192C10.8467 16.3078 10.4114 19.4838 10.364 22.6774ZM6.59742 10.086C9.31306 6.77134 12.9632 4.35049 17.0732 3.13823C14.788 5.49311 13.1059 8.36549 12.1702 11.5107C10.2788 11.1795 8.41568 10.7032 6.59742 10.086ZM22.1775 22.6774H12.1382C12.1887 19.5815 12.621 16.5037 13.4254 13.5137C16.3237 13.9416 19.248 14.1695 22.1775 14.1959V22.6774ZM22.1775 12.4217C19.426 12.396 16.6792 12.1886 13.955 11.8007C15.762 6.51363 18.7489 2.88895 22.1775 2.35049V12.4217ZM23.9517 2.35049C27.3812 2.88895 30.369 6.51984 32.176 11.8025C29.4509 12.1878 26.7037 12.3952 23.9517 12.4235V2.35049ZM23.9517 22.6774V14.1968C26.8814 14.1681 29.8057 13.9411 32.7047 13.5173C33.5082 16.5062 33.9403 19.5828 33.991 22.6774H23.9517ZM33.9591 11.5098C33.0231 8.36496 31.3411 5.49292 29.0561 3.13823C33.1649 4.34891 36.8145 6.76791 39.53 10.0807C37.7134 10.7023 35.8506 11.1802 33.9591 11.5098ZM35.7652 22.6774C35.7179 19.4832 35.2824 16.3065 34.4682 13.2174C36.5697 12.8461 38.6351 12.294 40.6416 11.5674C42.8924 14.8499 44.1718 18.7006 44.3328 22.6774H35.7652Z" fill="#A91D21"/>
<path d="M39.0323 53.7259H45.242C45.4772 53.7259 45.7029 53.6324 45.8692 53.4661C46.0356 53.2997 46.1291 53.0741 46.1291 52.8388V47.871C46.1281 47.1856 45.8936 46.521 45.4644 45.9866C45.0352 45.4522 44.4367 45.08 43.7676 44.9312C44.2352 44.5115 44.5644 43.9598 44.7118 43.3489C44.8592 42.7381 44.8178 42.097 44.593 41.5102C44.3683 40.9235 43.9708 40.4187 43.4532 40.0626C42.9355 39.7065 42.3219 39.5159 41.6936 39.5159C41.0652 39.5159 40.4517 39.7065 39.934 40.0626C39.4163 40.4187 39.0188 40.9235 38.7941 41.5102C38.5694 42.097 38.528 42.7381 38.6754 43.3489C38.8227 43.9598 39.152 44.5115 39.6195 44.9312C39.1779 45.0323 38.7651 45.2325 38.4122 45.5167C38.1323 45.1106 37.7706 44.7675 37.3503 44.5094C36.9301 44.2512 36.4605 44.0837 35.9718 44.0175C36.5344 43.5519 36.9397 42.9241 37.1324 42.2197C37.325 41.5153 37.2957 40.7686 37.0483 40.0815C36.8008 39.3944 36.3475 38.8004 35.75 38.3805C35.1525 37.9606 34.44 37.7352 33.7097 37.7352C32.9794 37.7352 32.2669 37.9606 31.6694 38.3805C31.0719 38.8004 30.6186 39.3944 30.3712 40.0815C30.1237 40.7686 30.0944 41.5153 30.287 42.2197C30.4797 42.9241 30.885 43.5519 31.4476 44.0175C30.9243 44.0857 30.4231 44.271 29.9812 44.5595C29.7242 43.6271 29.1692 42.8044 28.4008 42.2171C27.6325 41.6297 26.693 41.3099 25.7258 41.3065H25.5431C26.1928 40.7919 26.6663 40.0878 26.8977 39.2919C27.1291 38.496 27.1071 37.6478 26.8346 36.865C26.5622 36.0823 26.0528 35.4037 25.3773 34.9235C24.7017 34.4433 23.8934 34.1853 23.0645 34.1853C22.2357 34.1853 21.4274 34.4433 20.7518 34.9235C20.0762 35.4037 19.5669 36.0823 19.2944 36.865C19.022 37.6478 18.9999 38.496 19.2314 39.2919C19.4628 40.0878 19.9362 40.7919 20.586 41.3065H20.4032C19.4356 41.3093 18.4955 41.6288 17.7266 42.2163C16.9577 42.8037 16.4023 43.6267 16.1452 44.5595C15.7033 44.271 15.2021 44.0857 14.6788 44.0175C15.2414 43.5519 15.6467 42.9241 15.8394 42.2197C16.032 41.5153 16.0027 40.7686 15.7553 40.0815C15.5078 39.3944 15.0545 38.8004 14.457 38.3805C13.8595 37.9606 13.147 37.7352 12.4167 37.7352C11.6864 37.7352 10.9739 37.9606 10.3764 38.3805C9.77894 38.8004 9.32556 39.3944 9.07815 40.0815C8.83074 40.7686 8.80136 41.5153 8.99401 42.2197C9.18666 42.9241 9.59196 43.5519 10.1546 44.0175C9.66586 44.0837 9.19632 44.2512 8.77608 44.5094C8.35583 44.7675 7.99415 45.1106 7.7142 45.5167C7.36133 45.2325 6.94848 45.0323 6.50686 44.9312C6.97444 44.5115 7.30367 43.9598 7.45105 43.3489C7.59843 42.7381 7.55702 42.097 7.33229 41.5102C7.10756 40.9235 6.71009 40.4187 6.1924 40.0626C5.67471 39.7065 5.06116 39.5159 4.43283 39.5159C3.80449 39.5159 3.19094 39.7065 2.67325 40.0626C2.15556 40.4187 1.75809 40.9235 1.53336 41.5102C1.30863 42.097 1.26722 42.7381 1.4146 43.3489C1.56198 43.9598 1.89121 44.5115 2.35879 44.9312C1.6902 45.0805 1.09235 45.453 0.663629 45.9873C0.234909 46.5216 0.000860574 47.186 0 47.871V52.8388C0 53.0741 0.093462 53.2997 0.259825 53.4661C0.426188 53.6324 0.651825 53.7259 0.887097 53.7259H7.09678C7.09678 53.9612 7.19024 54.1868 7.3566 54.3532C7.52297 54.5195 7.7486 54.613 7.98388 54.613H15.9678C15.9678 54.8483 16.0612 55.0739 16.2276 55.2403C16.3939 55.4066 16.6196 55.5001 16.8549 55.5001H29.2742C29.5095 55.5001 29.7351 55.4066 29.9015 55.2403C30.0679 55.0739 30.1613 54.8483 30.1613 54.613H38.1452C38.3805 54.613 38.6061 54.5195 38.7725 54.3532C38.9388 54.1868 39.0323 53.9612 39.0323 53.7259ZM41.6936 41.3065C41.9568 41.3065 42.214 41.3846 42.4328 41.5308C42.6517 41.677 42.8222 41.8848 42.9229 42.1279C43.0236 42.3711 43.05 42.6386 42.9987 42.8968C42.9473 43.1549 42.8206 43.392 42.6345 43.5781C42.4484 43.7642 42.2113 43.8909 41.9532 43.9422C41.6951 43.9936 41.4275 43.9672 41.1844 43.8665C40.9412 43.7658 40.7334 43.5953 40.5872 43.3764C40.441 43.1576 40.3629 42.9003 40.3629 42.6372C40.3629 42.2843 40.5031 41.9458 40.7527 41.6963C41.0022 41.4467 41.3407 41.3065 41.6936 41.3065ZM39.0323 47.871C39.0323 47.5417 39.1631 47.2258 39.396 46.9929C39.6289 46.7599 39.9448 46.6291 40.2742 46.6291H43.1129C43.4423 46.6291 43.7582 46.7599 43.9911 46.9929C44.224 47.2258 44.3549 47.5417 44.3549 47.871V51.9517H39.0323V47.871ZM4.43549 41.3065C4.69866 41.3065 4.95593 41.3846 5.17475 41.5308C5.39358 41.677 5.56413 41.8848 5.66484 42.1279C5.76556 42.3711 5.79191 42.6386 5.74057 42.8968C5.68922 43.1549 5.56249 43.392 5.3764 43.5781C5.1903 43.7642 4.9532 43.8909 4.69508 43.9422C4.43696 43.9936 4.16941 43.9672 3.92627 43.8665C3.68313 43.7658 3.47531 43.5953 3.32909 43.3764C3.18288 43.1576 3.10484 42.9003 3.10484 42.6372C3.10484 42.2843 3.24503 41.9458 3.49458 41.6963C3.74412 41.4467 4.08258 41.3065 4.43549 41.3065ZM7.09678 51.9517H1.77419V47.871C1.77419 47.5417 1.90504 47.2258 2.13795 46.9929C2.37086 46.7599 2.68675 46.6291 3.01613 46.6291H5.85484C6.18423 46.6291 6.50012 46.7599 6.73302 46.9929C6.96593 47.2258 7.09678 47.5417 7.09678 47.871V51.9517ZM12.4194 39.5323C12.7703 39.5323 13.1133 39.6364 13.4051 39.8313C13.6968 40.0263 13.9242 40.3034 14.0585 40.6276C14.1928 40.9518 14.2279 41.3085 14.1595 41.6526C14.091 41.9968 13.922 42.3129 13.6739 42.5611C13.4258 42.8092 13.1097 42.9782 12.7655 43.0466C12.4213 43.1151 12.0646 43.0799 11.7404 42.9457C11.4162 42.8114 11.1391 42.584 10.9442 42.2922C10.7492 42.0004 10.6452 41.6574 10.6452 41.3065C10.6452 40.836 10.8321 40.3847 11.1648 40.052C11.4975 39.7192 11.9488 39.5323 12.4194 39.5323ZM15.9678 52.8388H8.87097V47.5162C8.87097 47.0457 9.0579 46.5944 9.39062 46.2617C9.72335 45.9289 10.1746 45.742 10.6452 45.742H14.1936C14.6641 45.742 15.1154 45.9289 15.4481 46.2617C15.7808 46.5944 15.9678 47.0457 15.9678 47.5162V52.8388ZM23.0645 35.9839C23.5032 35.9839 23.9319 36.114 24.2966 36.3577C24.6614 36.6014 24.9456 36.9477 25.1135 37.353C25.2813 37.7582 25.3252 38.2041 25.2397 38.6343C25.1541 39.0645 24.9429 39.4597 24.6327 39.7699C24.3226 40.08 23.9274 40.2912 23.4972 40.3768C23.067 40.4624 22.6211 40.4185 22.2158 40.2506C21.8106 40.0827 21.4642 39.7985 21.2205 39.4338C20.9769 39.0691 20.8468 38.6403 20.8468 38.2017C20.8468 37.6135 21.0804 37.0494 21.4964 36.6335C21.9123 36.2176 22.4764 35.9839 23.0645 35.9839ZM28.3871 53.7259H17.7419V45.742C17.7419 45.0362 18.0223 44.3593 18.5214 43.8602C19.0205 43.3611 19.6974 43.0807 20.4032 43.0807H25.7258C26.4316 43.0807 27.1086 43.3611 27.6076 43.8602C28.1067 44.3593 28.3871 45.0362 28.3871 45.742V53.7259ZM33.7097 39.5323C34.0606 39.5323 34.4036 39.6364 34.6954 39.8313C34.9872 40.0263 35.2146 40.3034 35.3488 40.6276C35.4831 40.9518 35.5183 41.3085 35.4498 41.6526C35.3813 41.9968 35.2124 42.3129 34.9642 42.5611C34.7161 42.8092 34.4 42.9782 34.0558 43.0466C33.7117 43.1151 33.3549 43.0799 33.0307 42.9457C32.7066 42.8114 32.4295 42.584 32.2345 42.2922C32.0396 42.0004 31.9355 41.6574 31.9355 41.3065C31.9355 40.836 32.1224 40.3847 32.4552 40.052C32.7879 39.7192 33.2392 39.5323 33.7097 39.5323ZM37.2581 52.8388H30.1613V47.5162C30.1613 47.0457 30.3482 46.5944 30.681 46.2617C31.0137 45.9289 31.465 45.742 31.9355 45.742H35.4839C35.9544 45.742 36.4057 45.9289 36.7384 46.2617C37.0712 46.5944 37.2581 47.0457 37.2581 47.5162V52.8388Z" fill="#CFCFCF"/>
</svg>
