<svg width="57" height="56" viewBox="0 0 57 56" fill="none" xmlns="http://www.w3.org/2000/svg">
<path d="M4.43619 44.8576H30.1661V43.0831H4.43619C2.9687 43.0831 1.77448 41.8889 1.77448 40.4214V15.5788C1.77448 14.1113 2.9687 12.9171 4.43619 12.9171H45.2491V11.1426H4.43619C1.99007 11.1426 0 13.1327 0 15.5788V40.4214C0 42.8675 1.99007 44.8576 4.43619 44.8576Z" fill="#CFCFCF"/>
<path d="M52.3473 11.1426H50.2854L51.3731 8.86328L49.7716 8.09937L31.1396 47.1378L32.7411 47.9017L34.1944 44.8576H52.3473C54.7934 44.8576 56.7835 42.8676 56.7835 40.4214V15.5788C56.7835 13.1327 54.7934 11.1426 52.3473 11.1426ZM47.7443 16.466H48.9101C49.2322 17.7108 50.2144 18.6939 51.4601 19.0151V36.9852C50.2144 37.3063 49.2322 38.2894 48.9101 39.5342H36.7346L47.7443 16.466ZM55.009 40.4214C55.009 41.8889 53.8148 43.0832 52.3473 43.0832H35.0408L35.8881 41.3087H49.6856C50.1753 41.3087 50.5728 40.9121 50.5728 40.4214C50.5728 39.4428 51.3687 38.647 52.3473 38.647C52.8371 38.647 53.2345 38.2504 53.2345 37.7597V18.2405C53.2345 17.7499 52.8371 17.3533 52.3473 17.3533C51.3687 17.3533 50.5728 16.5574 50.5728 15.5788C50.5728 15.0881 50.1753 14.6915 49.6856 14.6915H48.5916L49.4389 12.9171H52.3473C53.8148 12.9171 55.009 14.1113 55.009 15.5788V40.4214Z" fill="#A91D21"/>
<path d="M43.4745 14.6914H7.09778C6.60802 14.6914 6.21054 15.088 6.21054 15.5786C6.21054 16.5573 5.41469 17.3531 4.43607 17.3531C3.94631 17.3531 3.54883 17.7497 3.54883 18.2404V37.7596C3.54883 38.2502 3.94631 38.6468 4.43607 38.6468C5.41469 38.6468 6.21054 39.4427 6.21054 40.4213C6.21054 40.9119 6.60802 41.3085 7.09778 41.3085H31.9404V39.5341H7.87323C7.55116 38.2893 6.56899 37.3062 5.3233 36.985V19.0149C6.56899 18.6937 7.55116 17.7107 7.87323 16.4659H43.4745V14.6914Z" fill="#A91D21"/>
<path d="M18.6318 28.0001C18.6318 33.3812 23.0104 37.7597 28.3915 37.7597C33.7726 37.7597 38.1511 33.3812 38.1511 28.0001C38.1511 22.619 33.7726 18.2405 28.3915 18.2405C23.0104 18.2405 18.6318 22.619 18.6318 28.0001ZM20.4063 28.0001C20.4063 23.8966 23.5179 20.51 27.5042 20.0673V21.7894C25.547 21.7894 23.9553 23.3811 23.9553 25.3384C23.9553 27.2956 25.547 28.8873 27.5042 28.8873H29.2787C30.2573 28.8873 31.0532 29.6832 31.0532 30.6618C31.0532 31.6404 30.2573 32.4363 29.2787 32.4363H27.5042C26.5256 32.4363 25.7297 31.6404 25.7297 30.6618H23.9553C23.9553 32.6191 25.547 34.2108 27.5042 34.2108V35.9329C23.5179 35.4902 20.4063 32.1036 20.4063 28.0001ZM36.3766 28.0001C36.3766 32.1036 33.2651 35.4902 29.2787 35.9329V34.2108C31.2359 34.2108 32.8276 32.6191 32.8276 30.6618C32.8276 28.7046 31.2359 27.1129 29.2787 27.1129H27.5042C26.5256 27.1129 25.7297 26.317 25.7297 25.3384C25.7297 24.3598 26.5256 23.5639 27.5042 23.5639H29.2787C30.2573 23.5639 31.0532 24.3598 31.0532 25.3384H32.8276C32.8276 23.3811 31.2359 21.7894 29.2787 21.7894V20.0673C33.2651 20.51 36.3766 23.8966 36.3766 28.0001Z" fill="#A91D21"/>
<path d="M24.17 0.817871C23.5623 0.911918 22.9456 1.02903 22.3379 1.16567L22.7265 2.89667C23.2961 2.76891 23.8728 2.65978 24.4424 2.57194L24.17 0.817871Z" fill="#CFCFCF"/>
<path d="M33.4509 0.960449L33.1279 2.70565C33.6887 2.80945 34.2609 2.93633 34.8297 3.08272L35.2715 1.36326C34.6637 1.20799 34.0515 1.07224 33.4509 0.960449Z" fill="#CFCFCF"/>
<path d="M29.751 0.528564L29.6641 2.30127C30.247 2.32966 30.8317 2.37757 31.4031 2.44411L31.608 0.682057C30.9985 0.611078 30.373 0.558731 29.751 0.528564Z" fill="#CFCFCF"/>
<path d="M37.0607 1.89038L36.5 3.57436C37.0554 3.7589 37.6055 3.96297 38.1352 4.18034L38.8095 2.53895C38.2425 2.3065 37.6534 2.08823 37.0607 1.89038Z" fill="#CFCFCF"/>
<path d="M20.5318 1.63647C19.9338 1.81392 19.3375 2.01444 18.7617 2.23004L19.3846 3.89183C19.9222 3.68954 20.4785 3.50322 21.0375 3.33642L20.5318 1.63647Z" fill="#CFCFCF"/>
<path d="M40.5085 3.30566L39.7251 4.89826C40.2415 5.15201 40.7587 5.42882 41.2636 5.72073L42.1526 4.1858C41.6131 3.8735 41.0604 3.57716 40.5085 3.30566Z" fill="#CFCFCF"/>
<path d="M27.8858 0.5C27.2665 0.511534 26.6401 0.544362 26.0234 0.595822L26.1725 2.3632C26.751 2.3144 27.3383 2.28424 27.9186 2.27359L27.8858 0.5Z" fill="#CFCFCF"/>
<path d="M43.7337 5.17236L42.7427 6.64518C43.2182 6.96458 43.6938 7.30972 44.1552 7.66728L45.2447 6.26722C44.7505 5.88304 44.2421 5.51484 43.7337 5.17236Z" fill="#CFCFCF"/>
<path d="M13.7547 4.71436C13.2277 5.04618 12.7087 5.39842 12.2109 5.76218L13.257 7.19507C13.7219 6.85526 14.2081 6.5261 14.7005 6.21556L13.7547 4.71436Z" fill="#CFCFCF"/>
<path d="M10.7425 6.90942C10.267 7.30779 9.80028 7.72657 9.354 8.15422L10.5828 9.4345C10.9998 9.03436 11.4372 8.64131 11.8817 8.26956L10.7425 6.90942Z" fill="#CFCFCF"/>
<path d="M17.0378 2.94434C16.4744 3.19986 15.9119 3.47934 15.3662 3.7739L16.2082 5.33544C16.7184 5.0604 17.2445 4.79955 17.7715 4.56L17.0378 2.94434Z" fill="#CFCFCF"/>
<path d="M46.6774 7.46069L45.4956 8.78445C45.933 9.17395 46.358 9.57942 46.7599 9.98932L48.0269 8.74719C47.5975 8.30978 47.1432 7.87681 46.6774 7.46069Z" fill="#CFCFCF"/>
<path d="M28.8971 55.4999C29.5164 55.4884 30.1428 55.4556 30.7594 55.4041L30.6103 53.6367C30.0319 53.6855 29.4445 53.7157 28.8643 53.7263L28.8971 55.4999Z" fill="#CFCFCF"/>
<path d="M46.2003 46.5647C45.7833 46.9648 45.3459 47.3579 44.9014 47.7296L46.0406 49.0898C46.5161 48.6914 46.9828 48.2726 47.4291 47.845L46.2003 46.5647Z" fill="#CFCFCF"/>
<path d="M37.399 52.1082C36.8614 52.3104 36.3051 52.4968 35.7461 52.6636L36.2518 54.3635C36.8498 54.1861 37.446 53.9855 38.0219 53.7699L37.399 52.1082Z" fill="#CFCFCF"/>
<path d="M40.575 50.6653C40.0649 50.9403 39.5387 51.2012 39.0117 51.4407L39.7455 53.0555C40.3089 52.8 40.8714 52.5205 41.417 52.2259L40.575 50.6653Z" fill="#CFCFCF"/>
<path d="M34.0577 53.1035C33.4881 53.2313 32.9114 53.3404 32.3418 53.4282L32.6142 55.1823C33.2219 55.0883 33.8386 54.9712 34.4463 54.8345L34.0577 53.1035Z" fill="#CFCFCF"/>
<path d="M43.5261 48.8049C43.0611 49.1447 42.5749 49.4739 42.0825 49.7844L43.0283 51.2848C43.5553 50.9529 44.0744 50.6007 44.5721 50.2369L43.5261 48.8049Z" fill="#CFCFCF"/>
<path d="M16.2744 52.6946L17.0579 51.102C16.5415 50.8483 16.0242 50.5714 15.5194 50.2795L14.6304 51.8145C15.1698 52.1268 15.7226 52.4231 16.2744 52.6946Z" fill="#CFCFCF"/>
<path d="M19.7224 54.1095L20.2831 52.4256C19.7277 52.241 19.1776 52.037 18.6479 51.8196L17.9736 53.461C18.5406 53.6934 19.1297 53.9117 19.7224 54.1095Z" fill="#CFCFCF"/>
<path d="M23.3323 55.0395L23.6553 53.2943C23.0946 53.1905 22.5223 53.0636 21.9536 52.9172L21.5117 54.6367C22.1195 54.792 22.7317 54.9277 23.3323 55.0395Z" fill="#CFCFCF"/>
<path d="M27.0323 55.4715L27.1192 53.6988C26.5363 53.6704 25.9516 53.6225 25.3802 53.5559L25.1753 55.318C25.7848 55.3889 26.4103 55.4413 27.0323 55.4715Z" fill="#CFCFCF"/>
<path d="M13.0495 50.8277L14.0406 49.3549C13.565 49.0355 13.0895 48.6903 12.6281 48.3328L11.5386 49.7328C12.0328 50.117 12.5412 50.4852 13.0495 50.8277Z" fill="#CFCFCF"/>
<path d="M10.1054 48.5396L11.2872 47.2159C10.8498 46.8264 10.4248 46.4209 10.0229 46.011L8.75684 47.2531C9.18537 47.6905 9.63964 48.1235 10.1054 48.5396Z" fill="#CFCFCF"/>
</svg>
