<svg width="41" height="41" viewBox="0 0 41 41" fill="none" xmlns="http://www.w3.org/2000/svg">
<circle cx="20.8193" cy="20.5" r="20" fill="white"/>
<path d="M24.5336 30.5001H17.3908C16.4436 30.5001 15.5352 30.1238 14.8654 29.454C14.1956 28.7842 13.8193 27.8758 13.8193 26.9286V26.2143C13.8193 24.5094 14.4966 22.8742 15.7022 21.6687C16.9078 20.4631 18.5429 19.7858 20.2479 19.7858H21.6765C23.3814 19.7858 25.0166 20.4631 26.2222 21.6687C27.4278 22.8742 28.105 24.5094 28.105 26.2143V26.9286C28.105 27.8758 27.7288 28.7842 27.059 29.454C26.3892 30.1238 25.4808 30.5001 24.5336 30.5001ZM20.2479 21.2143C18.9218 21.2143 17.6501 21.7411 16.7124 22.6788C15.7747 23.6165 15.2479 24.8883 15.2479 26.2143V26.9286C15.2479 27.4969 15.4737 28.042 15.8755 28.4439C16.2774 28.8457 16.8224 29.0715 17.3908 29.0715H24.5336C25.1019 29.0715 25.647 28.8457 26.0489 28.4439C26.4507 28.042 26.6765 27.4969 26.6765 26.9286V26.2143C26.6765 24.8883 26.1497 23.6165 25.212 22.6788C24.2743 21.7411 23.0026 21.2143 21.6765 21.2143H20.2479Z" fill="#A91D21"/>
<path d="M20.962 19.0714C20.1144 19.0714 19.2858 18.8201 18.581 18.3492C17.8762 17.8782 17.3269 17.2089 17.0025 16.4258C16.6781 15.6427 16.5933 14.781 16.7586 13.9496C16.924 13.1183 17.3322 12.3546 17.9315 11.7553C18.5309 11.1559 19.2945 10.7477 20.1259 10.5824C20.9572 10.417 21.8189 10.5019 22.6021 10.8262C23.3852 11.1506 24.0545 11.6999 24.5254 12.4047C24.9963 13.1095 25.2477 13.9381 25.2477 14.7857C25.2477 15.9224 24.7962 17.0124 23.9924 17.8162C23.1887 18.6199 22.0986 19.0714 20.962 19.0714ZM20.962 11.9286C20.3969 11.9286 19.8445 12.0961 19.3746 12.4101C18.9048 12.724 18.5386 13.1703 18.3223 13.6923C18.1061 14.2144 18.0495 14.7889 18.1597 15.3431C18.27 15.8973 18.5421 16.4064 18.9417 16.806C19.3413 17.2056 19.8504 17.4777 20.4046 17.588C20.9588 17.6982 21.5333 17.6416 22.0554 17.4254C22.5774 17.2091 23.0237 16.8429 23.3376 16.3731C23.6516 15.9032 23.8191 15.3508 23.8191 14.7857C23.8191 14.028 23.5181 13.3012 22.9823 12.7654C22.4465 12.2296 21.7197 11.9286 20.962 11.9286Z" fill="#A91D21"/>
</svg>
