<svg width="41" height="41" viewBox="0 0 41 41" fill="none" xmlns="http://www.w3.org/2000/svg">
<circle cx="20.8193" cy="20.5" r="20" fill="white"/>
<path d="M24.4608 30.5C22.2933 30.5 18.8381 29.7758 15.1908 26.1285C10.9463 21.8841 10.6606 17.8995 10.8679 15.9022C10.9892 14.7667 11.4962 13.707 12.3043 12.9001L13.8628 11.3416C14.403 10.8027 15.1349 10.5 15.898 10.5C16.6611 10.5 17.393 10.8027 17.9333 11.3416L19.6874 13.0958C20.2264 13.636 20.5291 14.368 20.5291 15.131C20.5291 15.8941 20.2264 16.6261 19.6874 17.1663L17.5715 19.2822C17.7696 19.8226 18.2539 20.8079 19.3867 21.9191C20.5212 23.0321 21.5067 23.529 22.0469 23.7382L24.1532 21.6319C24.6934 21.0929 25.4253 20.7903 26.1884 20.7903C26.9515 20.7903 27.6834 21.0929 28.2236 21.6319L29.9778 23.386C30.5167 23.9263 30.8194 24.6582 30.8194 25.4213C30.8194 26.1844 30.5167 26.9163 29.9778 27.4565L28.4192 29.015C27.6123 29.8231 26.5527 30.3301 25.4172 30.4513C25.0994 30.484 24.7802 30.5003 24.4608 30.5ZM15.898 12.4989C15.7827 12.4986 15.6684 12.5211 15.5618 12.5653C15.4553 12.6094 15.3585 12.6742 15.2772 12.756L13.7187 14.3145C13.2348 14.7965 12.9308 15.4298 12.8575 16.1088C12.6868 17.7523 12.9468 21.0557 16.6052 24.714C20.2636 28.3723 23.5666 28.6321 25.2105 28.4618C25.8894 28.3884 26.5227 28.0844 27.0047 27.6006L28.5633 26.042C28.6448 25.9605 28.7095 25.8637 28.7536 25.7572C28.7977 25.6507 28.8204 25.5366 28.8204 25.4213C28.8204 25.306 28.7977 25.1918 28.7536 25.0853C28.7095 24.9788 28.6448 24.882 28.5633 24.8005L26.8091 23.0463C26.6443 22.8819 26.4211 22.7896 26.1883 22.7896C25.9556 22.7896 25.7323 22.8819 25.5676 23.0463L23.0407 25.5733C22.9295 25.6845 22.7937 25.7679 22.6443 25.8168C22.4948 25.8657 22.336 25.8786 22.1806 25.8546C21.9814 25.8238 20.1717 25.4917 17.9858 23.3472C15.7823 21.1857 15.4876 19.3188 15.4612 19.1131C15.4418 18.9615 15.4573 18.8074 15.5067 18.6627C15.5561 18.5181 15.6379 18.3867 15.746 18.2786L18.273 15.7516C18.4374 15.5869 18.5297 15.3637 18.5297 15.1309C18.5297 14.8982 18.4374 14.6749 18.273 14.5102L16.5188 12.7561C16.4375 12.6743 16.3407 12.6094 16.2342 12.5653C16.1276 12.5211 16.0134 12.4986 15.898 12.4989Z" fill="#A91D21"/>
</svg>
