<svg width="41" height="41" viewBox="0 0 41 41" fill="none" xmlns="http://www.w3.org/2000/svg">
<circle cx="20.528" cy="20.5" r="20" fill="#505050"/>
<path d="M30.6642 27.6209C31.0854 26.3574 31.0854 25.3747 30.945 25.0939C30.8046 24.8131 30.5238 24.8131 29.9623 24.5323C29.4007 24.2516 26.8737 22.9881 26.4525 22.8477C26.0314 22.7073 25.4698 22.7073 25.189 23.2688C24.6275 23.9708 24.2063 24.6727 23.7852 25.0939C23.5044 25.3747 22.9428 25.5151 22.5217 25.2343C21.9601 24.9535 20.2754 24.392 18.31 22.7073C16.7657 21.3034 15.783 19.6187 15.3618 19.0572C15.081 18.4956 15.3618 18.2148 15.6426 17.9341C15.9234 17.6533 16.2042 17.3725 16.4849 17.0917C16.7657 16.8109 16.9061 16.6706 17.0465 16.2494C17.1869 15.9686 17.0465 15.5474 16.9061 15.2667C16.7657 14.9859 15.783 12.4589 15.3618 11.4762C15.081 10.6338 14.8003 10.6338 14.2387 10.6338C14.0983 10.6338 13.8175 10.6338 13.6772 10.6338C12.9752 10.6338 12.2733 10.7742 11.8521 11.3358C11.2905 11.8973 10.027 13.1608 10.027 15.6878C10.027 18.2148 11.8521 20.7418 12.1329 21.0226C12.4137 21.3034 15.783 26.6382 20.9774 28.8844C25.0487 30.5691 26.3122 30.4287 27.1545 30.2883C28.5584 29.8671 30.2431 28.8844 30.6642 27.6209Z" fill="white" stroke="white"/>
</svg>
