<svg width="40" height="40" viewBox="0 0 40 40" fill="none" xmlns="http://www.w3.org/2000/svg">
<circle cx="20" cy="20" r="20" />
<path d="M20.5 9C14.725 9 10 13.725 10 19.5C10 22.05 10.975 24.45 12.475 26.25L10.75 31.5L16.225 29.1C17.5 29.7 19 30 20.5 30C26.275 30 31 25.275 31 19.5C31 13.725 26.275 9 20.5 9Z" stroke="white" stroke-miterlimit="10" stroke-linecap="round" stroke-linejoin="round"/>
<path d="M26.275 23.325C26.5 22.65 26.5 22.125 26.425 21.975C26.35 21.825 26.2 21.825 25.9 21.675C25.6 21.525 24.25 20.85 24.025 20.775C23.8 20.7 23.5 20.7 23.35 21C23.05 21.375 22.825 21.75 22.6 21.975C22.45 22.125 22.15 22.2 21.925 22.05C21.625 21.9 20.725 21.6 19.675 20.7C18.85 19.95 18.325 19.05 18.1 18.75C17.95 18.45 18.1 18.3 18.25 18.15C18.4 18 18.55 17.85 18.7 17.7C18.85 17.55 18.925 17.475 19 17.25C19.075 17.1 19 16.875 18.925 16.725C18.85 16.575 18.325 15.225 18.1 14.7C17.95 14.25 17.8 14.25 17.5 14.25C17.425 14.25 17.275 14.25 17.2 14.25C16.825 14.25 16.45 14.325 16.225 14.625C15.925 14.925 15.25 15.6 15.25 16.95C15.25 18.3 16.225 19.65 16.375 19.8C16.525 19.95 18.325 22.8 21.1 24C23.275 24.9 23.95 24.825 24.4 24.75C25.15 24.525 26.05 24 26.275 23.325Z" stroke="white"/>
</svg>
