<svg width="172" height="49" viewBox="0 0 172 49" fill="none" xmlns="http://www.w3.org/2000/svg">
<g clip-path="url(#clip0_108_284)">
<path d="M62.4622 17.5342L47.396 20.1351L48.0966 24.206L63.1628 21.605L62.4622 17.5342Z" fill="#CA4074"/>
<path d="M15.124 1.413C13.8985 0.814312 12.5237 0.5 10.9694 0.5C9.28065 0.5 7.78618 0.82928 6.50094 1.50281C5.61921 1.95183 4.90185 2.55051 4.30407 3.25398V0.724509H0V20.0921H4.52824V10.3036C4.52824 9.00141 4.75241 7.90879 5.20075 7.05566C5.6491 6.20253 6.27677 5.54397 7.09873 5.10992C7.92068 4.67586 8.86219 4.45136 9.92327 4.45136C11.3729 4.45136 12.5087 4.87043 13.3158 5.72358C14.1227 6.57671 14.5263 7.84893 14.5263 9.57016V20.0921H19.0545V8.98643C19.0545 7.02573 18.7108 5.42423 18.0084 4.18194C17.3059 2.93967 16.3495 2.01169 15.124 1.413Z" fill="#221F20"/>
<path d="M38.901 1.77222C37.3467 0.919083 35.5683 0.5 33.5508 0.5C31.5333 0.5 29.7997 0.919083 28.2604 1.77222C26.721 2.62535 25.4956 3.7928 24.5989 5.27456C23.7022 6.75632 23.2539 8.47755 23.2539 10.4083C23.2539 12.3391 23.7022 14.0304 24.5989 15.5271C25.4956 17.0239 26.7061 18.2063 28.2604 19.0594C29.7997 19.9126 31.5631 20.3466 33.5508 20.3466C35.5385 20.3466 37.3318 19.9126 38.901 19.0594C40.4553 18.2063 41.6807 17.0239 42.5624 15.5271C43.4442 14.0304 43.8776 12.3241 43.8776 10.4083C43.8776 8.49251 43.4442 6.72638 42.5624 5.25959C41.6807 3.77783 40.4553 2.62535 38.901 1.77222ZM38.5722 13.6413C38.0791 14.5543 37.3916 15.2577 36.5248 15.7517C35.658 16.2306 34.6716 16.485 33.5508 16.485C32.4299 16.485 31.4884 16.2456 30.6366 15.7517C29.7848 15.2727 29.0972 14.5693 28.5891 13.6413C28.0811 12.7133 27.8269 11.6506 27.8269 10.4083C27.8269 9.16604 28.0811 8.07343 28.5891 7.16043C29.0972 6.24743 29.7848 5.55894 30.6366 5.07998C31.4884 4.60103 32.4748 4.36155 33.5957 4.36155C34.7165 4.36155 35.658 4.60103 36.5248 5.07998C37.3916 5.55894 38.0791 6.2624 38.5722 7.16043C39.0654 8.07343 39.3194 9.15107 39.3194 10.4083C39.3194 11.6656 39.0654 12.7133 38.5722 13.6413Z" fill="#221F20"/>
<path d="M83.3614 1.413C82.136 0.814312 80.7611 0.5 79.2068 0.5C77.518 0.5 76.0236 0.82928 74.7384 1.50281C73.8566 1.95183 73.1392 2.55051 72.5414 3.25398V0.724509H68.2224V20.0921H72.7507V10.3036C72.7507 9.00141 72.9749 7.90879 73.4232 7.05566C73.8715 6.20253 74.4993 5.54397 75.3212 5.10992C76.1432 4.67586 77.0846 4.45136 78.1458 4.45136C79.5954 4.45136 80.7311 4.87043 81.5382 5.72358C82.3452 6.57671 82.7487 7.84893 82.7487 9.57016V20.0921H87.2769V8.98643C87.2769 7.02573 86.9332 5.42423 86.2308 4.18194C85.5285 2.93967 84.572 2.01169 83.3465 1.413H83.3614Z" fill="#221F20"/>
<path d="M100.443 0.499831C98.9039 0.499831 97.4094 0.694405 95.9748 1.09852C94.54 1.50264 93.2996 2.10132 92.2535 2.89459L94.032 6.20235C94.7492 5.60367 95.6459 5.12472 96.692 4.78047C97.7382 4.43622 98.8142 4.27158 99.9051 4.27158C101.519 4.27158 102.73 4.64576 103.522 5.37915C104.314 6.11255 104.717 7.14529 104.717 8.47738V8.76176H99.7109C97.7532 8.76176 96.1839 9.0162 95.0034 9.52508C93.8227 10.034 92.9708 10.7225 92.4477 11.5906C91.9247 12.4587 91.6707 13.4466 91.6707 14.5242C91.6707 15.6018 91.9695 16.6346 92.5524 17.5176C93.1502 18.4006 93.9871 19.0892 95.0781 19.5831C96.169 20.077 97.4393 20.3315 98.889 20.3315C100.608 20.3315 102.027 20.0172 103.148 19.3885C103.925 18.9544 104.523 18.3858 104.971 17.6972V20.077H109.246V8.73183C109.246 5.91798 108.483 3.8525 106.944 2.50544C105.405 1.15839 103.238 0.484863 100.443 0.484863V0.499831ZM102.819 16.2903C101.938 16.7991 100.936 17.0536 99.8304 17.0536C98.7246 17.0536 97.7681 16.8141 97.1105 16.3203C96.4529 15.8413 96.1391 15.1827 96.1391 14.3595C96.1391 13.6261 96.4081 13.0275 96.9311 12.5335C97.4543 12.0396 98.5004 11.7851 100.04 11.7851H104.717V14.0302C104.329 15.0181 103.701 15.7664 102.819 16.2754V16.2903Z" fill="#221F20"/>
<path d="M143.588 1.413C142.393 0.814312 141.018 0.5 139.478 0.5C137.566 0.5 135.892 0.93405 134.442 1.80215C133.546 2.34097 132.828 3.0145 132.245 3.77783C131.783 2.99953 131.185 2.34097 130.437 1.84705C129.092 0.949017 127.523 0.5 125.715 0.5C124.116 0.5 122.696 0.82928 121.456 1.47287C120.619 1.90693 119.931 2.49064 119.378 3.1941V0.724509H115.059V20.0921H119.588V10.2587C119.588 8.9565 119.796 7.87886 120.215 7.02573C120.633 6.17259 121.231 5.54397 121.994 5.09495C122.756 4.64593 123.622 4.43639 124.624 4.43639C126.028 4.43639 127.105 4.85547 127.852 5.70861C128.599 6.56174 128.973 7.83395 128.973 9.55519V20.0771H133.5V10.2587C133.5 8.9565 133.71 7.87886 134.128 7.02573C134.547 6.17259 135.145 5.54397 135.907 5.09495C136.669 4.64593 137.536 4.43639 138.537 4.43639C139.942 4.43639 141.018 4.85547 141.766 5.70861C142.513 6.56174 142.886 7.83395 142.886 9.55519V20.0771H147.414V8.98643C147.414 7.02573 147.07 5.42423 146.398 4.18194C145.726 2.93967 144.784 2.01169 143.588 1.413Z" fill="#221F20"/>
<path d="M170.175 5.21469C169.323 3.71797 168.173 2.55051 166.693 1.72731C165.213 0.904115 163.54 0.5 161.656 0.5C159.773 0.5 157.995 0.919083 156.486 1.77222C154.976 2.62535 153.795 3.7928 152.928 5.27456C152.078 6.75632 151.644 8.47755 151.644 10.4083C151.644 12.3391 152.078 14.0304 152.974 15.5271C153.856 17.0239 155.096 18.2063 156.71 19.0594C158.309 19.9126 160.192 20.3466 162.344 20.3466C164.033 20.3466 165.543 20.0771 166.857 19.5234C168.173 18.9846 169.264 18.2063 170.131 17.1885L167.709 14.3896C167.037 15.123 166.259 15.6469 165.392 15.9911C164.525 16.3353 163.54 16.5 162.464 16.5C161.208 16.5 160.102 16.2606 159.131 15.7666C158.159 15.2877 157.412 14.5992 156.889 13.7011C156.561 13.1323 156.337 12.5187 156.217 11.8452H171.386C171.416 11.6207 171.43 11.3962 171.445 11.1567C171.46 10.9172 171.46 10.6927 171.46 10.4981C171.46 8.46258 171.042 6.69645 170.19 5.19971L170.175 5.21469ZM156.784 6.86109C157.248 6.00795 157.905 5.33442 158.742 4.8405C159.579 4.36155 160.551 4.12208 161.656 4.12208C162.762 4.12208 163.704 4.36155 164.541 4.8405C165.377 5.31946 166.036 5.99298 166.513 6.83115C166.857 7.42984 167.067 8.10337 167.157 8.82179H156.157C156.261 8.0884 156.456 7.42984 156.784 6.84611V6.86109Z" fill="#221F20"/>
<path d="M2.13709 39.5941C2.43599 39.3098 2.79466 39.0853 3.19816 38.9207C3.61661 38.756 4.05001 38.6812 4.52824 38.6812C5.00646 38.6812 5.43987 38.756 5.84338 38.9207C6.24688 39.0704 6.6205 39.3248 6.96422 39.654L7.71145 38.9057C7.32289 38.4716 6.85961 38.1424 6.30666 37.9328C5.75371 37.7233 5.14097 37.6035 4.4834 37.6035C3.82584 37.6035 3.22805 37.7083 2.69005 37.9178C2.15204 38.1274 1.6738 38.4267 1.27029 38.8159C0.866791 39.205 0.552954 39.654 0.328783 40.1779C0.104613 40.7018 0 41.2705 0 41.8992C0 42.5277 0.104613 43.0965 0.328783 43.6204C0.552954 44.1442 0.866791 44.5932 1.27029 44.9824C1.6738 45.3715 2.13709 45.6709 2.69005 45.8804C3.22805 46.0899 3.82584 46.1947 4.46846 46.1947C5.06624 46.1947 5.63415 46.1049 6.1871 45.9253C6.74005 45.7457 7.23323 45.4763 7.63673 45.1321V41.8543H6.48599V44.5783C6.26182 44.728 6.0526 44.8477 5.81349 44.9225C5.39504 45.0572 4.97657 45.1321 4.52824 45.1321C4.05001 45.1321 3.60167 45.0572 3.19816 44.8925C2.79466 44.728 2.43599 44.5034 2.13709 44.2191C1.8382 43.9197 1.59908 43.5905 1.43469 43.1864C1.27029 42.7823 1.19557 42.3632 1.19557 41.9141C1.19557 41.4651 1.27029 41.0161 1.43469 40.6269C1.59908 40.2378 1.82326 39.8936 2.13709 39.5941Z" fill="#221F20"/>
<path d="M10.8647 40.8666V39.7441H9.75879V46.1052H10.9095V42.9321C10.9095 42.2287 11.0889 41.7048 11.4475 41.3306C11.8062 40.9565 12.2994 40.7768 12.9121 40.7768H13.0317C13.0317 40.7768 13.1214 40.7768 13.1662 40.7768V39.6543C12.5534 39.6543 12.0453 39.7741 11.6269 39.9985C11.2682 40.1932 11.0291 40.4775 10.8498 40.8217L10.8647 40.8666Z" fill="#221F20"/>
<path d="M18.9498 40.1032C18.4566 39.8338 17.8888 39.6841 17.261 39.6841C16.6334 39.6841 16.0505 39.8188 15.5573 40.1032C15.0642 40.3727 14.6756 40.7618 14.3767 41.2556C14.0928 41.7496 13.9434 42.3034 13.9434 42.932C13.9434 43.5607 14.0928 44.1145 14.3767 44.6083C14.6606 45.1023 15.0492 45.4914 15.5573 45.7609C16.0505 46.0452 16.6185 46.18 17.261 46.18C17.9037 46.18 18.4566 46.0452 18.9498 45.7609C19.4429 45.4764 19.8465 45.1023 20.1305 44.6083C20.4143 44.1145 20.5488 43.5607 20.5488 42.932C20.5488 42.3034 20.3994 41.7346 20.1305 41.2408C19.8465 40.7618 19.458 40.3727 18.9498 40.1032ZM19.1142 44.1145C18.9349 44.4587 18.6808 44.7131 18.352 44.9077C18.0232 45.1023 17.6646 45.1771 17.261 45.1771C16.8576 45.1771 16.4839 45.0873 16.1701 44.9077C15.8562 44.7281 15.5873 44.4587 15.4079 44.1145C15.2137 43.7701 15.1239 43.381 15.1239 42.932C15.1239 42.4831 15.2137 42.0788 15.4079 41.7496C15.6022 41.4203 15.8562 41.1659 16.1701 40.9713C16.4839 40.7917 16.8576 40.7019 17.261 40.7019C17.6646 40.7019 18.0382 40.7917 18.352 40.9713C18.6658 41.1509 18.9349 41.4203 19.1142 41.7496C19.2935 42.0788 19.3832 42.4681 19.3832 42.932C19.3832 43.396 19.2935 43.7701 19.1142 44.1145Z" fill="#221F20"/>
<path d="M28.6638 44.8331L26.7808 39.7441H25.8094L23.8815 44.8181L22.0433 39.7441H20.9524L23.3137 46.1053H24.4195L26.2727 41.2857L28.1109 46.1053H29.2019L31.578 39.7441H30.5469L28.6638 44.8331Z" fill="#221F20"/>
<path d="M35.2395 45.2068C34.9257 45.2068 34.6716 45.117 34.5072 44.9373C34.3279 44.7578 34.2531 44.4884 34.2531 44.1441V40.7017H36.0763V39.7587H34.2531V38.3667H33.1024V39.7587H32.0264V40.7017H33.1024V44.189C33.1024 44.8326 33.2817 45.3265 33.6255 45.6708C33.9841 46.015 34.4773 46.1946 35.1049 46.1946C35.374 46.1946 35.628 46.1646 35.8672 46.0899C36.1063 46.015 36.3155 45.9102 36.4948 45.7605L36.1361 44.9373C35.8971 45.132 35.5982 45.2368 35.2395 45.2368V45.2068Z" fill="#221F20"/>
<path d="M42.6521 39.9836C42.2636 39.789 41.8002 39.6843 41.2772 39.6843C40.6943 39.6843 40.2012 39.8039 39.7678 40.0285C39.454 40.1931 39.2298 40.4177 39.0355 40.687V37.1997H37.8848V46.1052H39.0355V42.8274C39.0355 42.3634 39.1102 41.9742 39.2745 41.6599C39.439 41.3455 39.6781 41.1061 39.977 40.9564C40.2759 40.7918 40.6346 40.717 41.0381 40.717C41.576 40.717 42.0095 40.8667 42.3084 41.181C42.6072 41.4953 42.7567 41.9593 42.7567 42.573V46.1052H43.9075V42.4382C43.9075 41.8095 43.8028 41.3007 43.5786 40.8966C43.3545 40.4925 43.0407 40.1781 42.6521 39.9836Z" fill="#221F20"/>
<path d="M55.8333 42.4231L54.9068 42.1236C54.7872 42.7074 54.6079 43.2013 54.3687 43.6354L52.3064 41.5849C52.6202 41.4052 52.9042 41.2407 53.1133 41.076C53.4571 40.8216 53.7111 40.5521 53.8605 40.2827C54.01 40.0134 54.0997 39.7139 54.0997 39.3996C54.0997 39.0255 54.01 38.7112 53.8456 38.4567C53.6663 38.2023 53.4272 37.9927 53.1133 37.858C52.7995 37.7233 52.4408 37.6484 52.0075 37.6484C51.5591 37.6484 51.1556 37.7233 50.8119 37.888C50.4681 38.0376 50.2141 38.2622 50.0198 38.5465C49.8255 38.8308 49.7358 39.1602 49.7358 39.5344C49.7358 39.7439 49.7658 39.9684 49.8405 40.1779C49.9152 40.3875 50.0347 40.597 50.1842 40.8216C50.3187 41.0161 50.513 41.2257 50.7372 41.4651C50.3485 41.6896 50.0198 41.8992 49.7507 42.1087C49.3771 42.4081 49.1082 42.7074 48.9438 43.0217C48.7793 43.336 48.6897 43.6803 48.6897 44.0545C48.6897 44.4886 48.8242 44.8627 49.0782 45.192C49.3324 45.5212 49.676 45.7756 50.1244 45.9553C50.5578 46.135 51.0659 46.2247 51.6339 46.2247C52.3511 46.2247 52.9789 46.0751 53.5467 45.7756C53.8756 45.6111 54.1594 45.3865 54.4135 45.1321L55.5493 46.2546L56.192 45.4913L55.0562 44.3538C55.3999 43.815 55.654 43.1864 55.8034 42.438L55.8333 42.4231ZM51.1406 38.7561C51.3499 38.5615 51.6488 38.4716 52.0224 38.4716C52.396 38.4716 52.65 38.5615 52.8444 38.7262C53.0386 38.8907 53.1283 39.1153 53.1283 39.3996C53.1283 39.5943 53.0685 39.7888 52.9489 39.9535C52.8294 40.118 52.6351 40.3127 52.3661 40.4922C52.1868 40.612 51.9328 40.7617 51.6637 40.9263C51.4694 40.7168 51.2901 40.5371 51.1855 40.4025C51.051 40.2378 50.9463 40.0731 50.9016 39.9385C50.8567 39.8038 50.8268 39.654 50.8268 39.5044C50.8268 39.205 50.9314 38.9506 51.1406 38.7711V38.7561ZM53.188 44.8927C52.7547 45.1321 52.2764 45.2369 51.7384 45.2369C51.3648 45.2369 51.0361 45.177 50.7521 45.0722C50.4681 44.9674 50.244 44.8028 50.0945 44.5932C49.9451 44.3837 49.8554 44.1592 49.8554 43.8898C49.8554 43.6354 49.9152 43.4108 50.0347 43.2014C50.1543 42.9918 50.3485 42.7823 50.6176 42.5727C50.8119 42.4081 51.0958 42.2434 51.4097 42.0639L53.7858 44.4436C53.6065 44.6232 53.3973 44.7729 53.188 44.8927Z" fill="#221F20"/>
<path d="M68.8202 37.7085L65.368 43.6055L61.871 37.7085H60.8845V46.1051H62.0353V40.0134L65.0691 45.0874H65.622L68.6558 39.9835L68.6708 46.1051H69.8215L69.8065 37.7085H68.8202Z" fill="#221F20"/>
<path d="M74.4693 39.6841C73.9612 39.6841 73.4829 39.7589 73.0196 39.8937C72.5564 40.0283 72.1678 40.2379 71.839 40.5073L72.3173 41.3754C72.5713 41.1659 72.8702 41.0012 73.2289 40.8815C73.5876 40.7618 73.9612 40.7019 74.3348 40.7019C74.9026 40.7019 75.3211 40.8367 75.6051 41.106C75.8891 41.3754 76.0235 41.7496 76.0235 42.2435V42.4681H74.2003C73.5727 42.4681 73.0645 42.5578 72.6909 42.7225C72.3173 42.8872 72.0482 43.1116 71.8839 43.396C71.7195 43.6804 71.6448 43.9947 71.6448 44.3389C71.6448 44.6981 71.7344 45.0274 71.9286 45.3119C72.123 45.5962 72.392 45.8207 72.7506 45.9853C73.1093 46.15 73.5129 46.2248 73.991 46.2248C74.5739 46.2248 75.0521 46.1201 75.4407 45.8955C75.7246 45.7309 75.9189 45.5213 76.0833 45.2669V46.15H77.1743V42.3034C77.1743 41.4353 76.9352 40.7917 76.4718 40.3577C75.9936 39.9386 75.3361 39.729 74.4543 39.729L74.4693 39.6841ZM75.3361 44.9975C75.0073 45.1921 74.6337 45.2819 74.2003 45.2819C73.7669 45.2819 73.4231 45.1921 73.1691 44.9975C72.9151 44.8029 72.7955 44.5634 72.7955 44.2491C72.7955 43.9797 72.9 43.7402 73.0944 43.5457C73.2887 43.3511 73.6772 43.2613 74.2601 43.2613H76.0385V44.1443C75.8891 44.5186 75.6649 44.788 75.3361 44.9825V44.9975Z" fill="#221F20"/>
<path d="M80.4323 40.8666V39.7441H79.3264V46.1052H80.4772V42.9321C80.4772 42.2287 80.6565 41.7048 81.0152 41.3306C81.3739 40.9565 81.867 40.7768 82.4798 40.7768H82.5993C82.5993 40.7768 82.689 40.7768 82.7338 40.7768V39.6543C82.1211 39.6543 81.613 39.7741 81.1945 39.9985C80.8359 40.1932 80.5967 40.4775 80.4174 40.8217L80.4323 40.8666Z" fill="#221F20"/>
<path d="M90.1611 39.7441H88.7712L85.3041 42.9172V37.1997H84.1533V46.1052H85.3041V44.369L86.6192 43.1416L89.0103 46.1052H90.4301L87.486 42.3783L90.1611 39.7441Z" fill="#221F20"/>
<path d="M95.5115 40.0882C95.0333 39.8188 94.4952 39.6841 93.8825 39.6841C93.2698 39.6841 92.7318 39.8188 92.2386 40.1032C91.7604 40.3727 91.3718 40.7618 91.1028 41.2556C90.8338 41.7496 90.6843 42.3034 90.6843 42.932C90.6843 43.5607 90.8189 44.1293 91.1028 44.6083C91.3868 45.1023 91.7903 45.4764 92.2984 45.7609C92.8065 46.0452 93.4043 46.18 94.0918 46.18C94.6148 46.18 95.093 46.0901 95.5264 45.9105C95.9598 45.7309 96.3185 45.4764 96.6025 45.1472L95.9598 44.3988C95.7207 44.6532 95.4517 44.8479 95.1528 44.9825C94.839 45.1172 94.5102 45.1771 94.1216 45.1771C93.6733 45.1771 93.2698 45.0873 92.9111 44.9077C92.5524 44.7281 92.2835 44.4587 92.0892 44.1293C91.9397 43.8899 91.8799 43.6056 91.8351 43.3211H96.9761C96.9761 43.3211 96.9761 43.2015 96.991 43.1416C96.991 43.0817 96.991 43.0218 96.991 42.9769C96.991 42.3184 96.8565 41.7496 96.5875 41.2556C96.3185 40.7618 95.9449 40.3876 95.4816 40.1032L95.5115 40.0882ZM92.8215 40.9264C93.1353 40.7468 93.494 40.657 93.8825 40.657C94.271 40.657 94.6447 40.7468 94.9586 40.9264C95.2724 41.106 95.5115 41.3604 95.6908 41.6747C95.8253 41.9143 95.8851 42.1836 95.915 42.4831H91.865C91.8948 42.1986 91.9695 41.9292 92.0892 41.6897C92.2684 41.3604 92.5076 41.121 92.8215 40.9264Z" fill="#221F20"/>
<path d="M100.921 45.2068C100.608 45.2068 100.354 45.117 100.189 44.9373C100.01 44.7578 99.935 44.4884 99.935 44.1441V40.7017H101.758V39.7587H99.935V38.3667H98.7843V39.7587H97.7083V40.7017H98.7843V44.189C98.7843 44.8326 98.9636 45.3265 99.3074 45.6708C99.666 46.015 100.159 46.1946 100.787 46.1946C101.056 46.1946 101.31 46.1646 101.549 46.0899C101.788 46.015 101.997 45.9102 102.177 45.7605L101.818 44.9373C101.579 45.132 101.28 45.2368 100.921 45.2368V45.2068Z" fill="#221F20"/>
<path d="M104.15 37.0199C103.925 37.0199 103.746 37.0947 103.596 37.2293C103.447 37.3791 103.372 37.5587 103.372 37.7682C103.372 37.9778 103.447 38.1573 103.596 38.2921C103.746 38.4417 103.925 38.5016 104.15 38.5016C104.374 38.5016 104.568 38.4267 104.717 38.2771C104.867 38.1274 104.927 37.9479 104.927 37.7383C104.927 37.5288 104.852 37.3491 104.702 37.2144C104.553 37.0797 104.374 37.0049 104.15 37.0049V37.0199Z" fill="#221F20"/>
<path d="M104.732 39.7441H103.582V46.1053H104.732V39.7441Z" fill="#221F20"/>
<path d="M111.682 39.9835C111.293 39.7889 110.83 39.6841 110.307 39.6841C109.724 39.6841 109.231 39.8039 108.797 40.0283C108.469 40.208 108.215 40.4624 108.02 40.7468V39.744H106.914V46.1051H108.065V42.8273C108.065 42.3633 108.14 41.9741 108.304 41.6599C108.469 41.3455 108.708 41.106 109.007 40.9563C109.305 40.7917 109.664 40.7169 110.068 40.7169C110.606 40.7169 111.039 40.8665 111.338 41.1809C111.637 41.4952 111.786 41.9592 111.786 42.5728V46.1051H112.937V42.4381C112.937 41.8095 112.832 41.3005 112.608 40.8964C112.384 40.4923 112.07 40.178 111.682 39.9835Z" fill="#221F20"/>
<path d="M120.065 40.7618C119.826 40.4474 119.557 40.178 119.198 40.0135C118.751 39.7889 118.257 39.6841 117.72 39.6841C117.107 39.6841 116.553 39.8188 116.075 40.0732C115.598 40.3277 115.208 40.6869 114.924 41.1509C114.641 41.6149 114.506 42.1537 114.506 42.7674C114.506 43.381 114.641 43.9049 114.924 44.3689C115.208 44.8329 115.598 45.1921 116.075 45.4615C116.553 45.716 117.107 45.8506 117.72 45.8506C118.257 45.8506 118.765 45.7309 119.198 45.5064C119.513 45.3418 119.767 45.1023 120.006 44.8179V45.3568C120.006 46.0752 119.826 46.6139 119.483 46.9583C119.124 47.3025 118.587 47.482 117.823 47.482C117.346 47.482 116.897 47.4073 116.463 47.2576C116.03 47.1079 115.672 46.9133 115.373 46.6439L114.82 47.5269C115.164 47.8264 115.612 48.0658 116.15 48.2305C116.702 48.3951 117.256 48.4699 117.839 48.4699C118.915 48.4699 119.737 48.2005 120.289 47.6767C120.843 47.1528 121.127 46.3296 121.127 45.2071V39.714H120.035V40.7319L120.065 40.7618ZM119.752 43.83C119.557 44.1443 119.303 44.3839 118.975 44.5634C118.646 44.7431 118.272 44.8329 117.854 44.8329C117.435 44.8329 117.046 44.7431 116.718 44.5634C116.389 44.3839 116.12 44.1443 115.94 43.83C115.747 43.5157 115.657 43.1565 115.657 42.7524C115.657 42.3483 115.747 41.9891 115.94 41.6747C116.135 41.3604 116.389 41.121 116.718 40.9563C117.046 40.7768 117.42 40.7019 117.854 40.7019C118.287 40.7019 118.646 40.7917 118.975 40.9563C119.303 41.121 119.557 41.3754 119.752 41.6747C119.945 41.9891 120.035 42.3483 120.035 42.7524C120.035 43.1565 119.945 43.5157 119.752 43.83Z" fill="#221F20"/>
<path d="M129.271 37.7085L125.476 46.1051H126.716L127.642 44.0096H132.096L133.022 46.1051H134.279L130.467 37.7085H129.286H129.271ZM128.047 43.0518L129.854 38.9208L131.663 43.0518H128.047Z" fill="#221F20"/>
<path d="M140.271 40.7618C140.032 40.4474 139.763 40.178 139.404 40.0135C138.956 39.7889 138.462 39.6841 137.925 39.6841C137.312 39.6841 136.758 39.8188 136.281 40.0732C135.803 40.3277 135.414 40.6869 135.129 41.1509C134.846 41.6149 134.711 42.1537 134.711 42.7674C134.711 43.381 134.846 43.9049 135.129 44.3689C135.414 44.8329 135.803 45.1921 136.281 45.4615C136.758 45.716 137.312 45.8506 137.925 45.8506C138.462 45.8506 138.97 45.7309 139.404 45.5064C139.718 45.3418 139.972 45.1023 140.211 44.8179V45.3568C140.211 46.0752 140.032 46.6139 139.688 46.9583C139.329 47.3025 138.792 47.482 138.03 47.482C137.551 47.482 137.102 47.4073 136.669 47.2576C136.236 47.1079 135.877 46.9133 135.578 46.6439L135.026 47.5269C135.369 47.8264 135.817 48.0658 136.355 48.2305C136.909 48.3951 137.461 48.4699 138.044 48.4699C139.12 48.4699 139.942 48.2005 140.496 47.6767C141.048 47.1528 141.332 46.3296 141.332 45.2071V39.714H140.24V40.7319L140.271 40.7618ZM139.957 43.83C139.763 44.1443 139.509 44.3839 139.18 44.5634C138.851 44.7431 138.477 44.8329 138.059 44.8329C137.641 44.8329 137.252 44.7431 136.924 44.5634C136.594 44.3839 136.325 44.1443 136.147 43.83C135.952 43.5157 135.862 43.1565 135.862 42.7524C135.862 42.3483 135.952 41.9891 136.147 41.6747C136.34 41.3604 136.594 41.121 136.924 40.9563C137.252 40.7768 137.625 40.7019 138.059 40.7019C138.492 40.7019 138.851 40.7917 139.18 40.9563C139.509 41.121 139.763 41.3754 139.957 41.6747C140.152 41.9891 140.24 42.3483 140.24 42.7524C140.24 43.1565 140.152 43.5157 139.957 43.83Z" fill="#221F20"/>
<path d="M147.788 40.0882C147.309 39.8188 146.772 39.6841 146.159 39.6841C145.546 39.6841 145.009 39.8188 144.515 40.1032C144.037 40.3727 143.648 40.7618 143.38 41.2556C143.111 41.7496 142.96 42.3034 142.96 42.932C142.96 43.5607 143.095 44.1293 143.38 44.6083C143.663 45.1023 144.066 45.4764 144.575 45.7609C145.083 46.0452 145.681 46.18 146.369 46.18C146.891 46.18 147.37 46.0901 147.803 45.9105C148.237 45.7309 148.595 45.4764 148.879 45.1472L148.237 44.3988C147.997 44.6532 147.729 44.8479 147.429 44.9825C147.116 45.1172 146.787 45.1771 146.398 45.1771C145.949 45.1771 145.546 45.0873 145.187 44.9077C144.829 44.7281 144.56 44.4587 144.366 44.1293C144.216 43.8899 144.156 43.6056 144.112 43.3211H149.253C149.253 43.3211 149.253 43.2015 149.267 43.1416C149.267 43.0817 149.267 43.0218 149.267 42.9769C149.267 42.3184 149.133 41.7496 148.864 41.2556C148.595 40.7618 148.222 40.3876 147.758 40.1032L147.788 40.0882ZM145.098 40.9264C145.412 40.7468 145.771 40.657 146.159 40.657C146.547 40.657 146.921 40.7468 147.235 40.9264C147.549 41.106 147.788 41.3604 147.968 41.6747C148.102 41.9143 148.161 42.1836 148.191 42.4831H144.142C144.171 42.1986 144.246 41.9292 144.366 41.6897C144.545 41.3604 144.784 41.121 145.098 40.9264Z" fill="#221F20"/>
<path d="M155.664 39.9835C155.275 39.7889 154.811 39.6841 154.289 39.6841C153.707 39.6841 153.213 39.8039 152.779 40.0283C152.451 40.208 152.196 40.4624 152.003 40.7468V39.744H150.896V46.1051H152.047V42.8273C152.047 42.3633 152.122 41.9741 152.286 41.6599C152.451 41.3455 152.689 41.106 152.989 40.9563C153.287 40.7917 153.646 40.7169 154.049 40.7169C154.588 40.7169 155.021 40.8665 155.321 41.1809C155.619 41.4952 155.768 41.9592 155.768 42.5728V46.1051H156.919V42.4381C156.919 41.8095 156.815 41.3005 156.591 40.8964C156.366 40.4923 156.052 40.178 155.664 39.9835Z" fill="#221F20"/>
<path d="M160.7 40.9713C161.028 40.7917 161.402 40.7019 161.821 40.7019C162.165 40.7019 162.493 40.7768 162.793 40.9264C163.091 41.0761 163.345 41.3005 163.555 41.6149L164.437 41.0461C164.183 40.5971 163.838 40.2529 163.39 40.0283C162.942 39.8039 162.419 39.6841 161.851 39.6841C161.208 39.6841 160.625 39.8188 160.117 40.1032C159.609 40.3727 159.206 40.7618 158.922 41.2556C158.637 41.7496 158.488 42.3034 158.488 42.932C158.488 43.5607 158.637 44.1293 158.922 44.6083C159.206 45.1023 159.609 45.4764 160.117 45.7609C160.625 46.0452 161.208 46.18 161.851 46.18C162.434 46.18 162.942 46.0602 163.39 45.8207C163.838 45.5812 164.197 45.252 164.437 44.8029L163.555 44.2491C163.345 44.5634 163.091 44.788 162.793 44.9377C162.493 45.0873 162.165 45.1621 161.821 45.1621C161.402 45.1621 161.028 45.0723 160.7 44.8928C160.371 44.7131 160.117 44.4437 159.924 44.1145C159.729 43.7851 159.639 43.381 159.639 42.932C159.639 42.4831 159.729 42.0788 159.924 41.7496C160.117 41.4203 160.371 41.1659 160.7 40.9713Z" fill="#221F20"/>
<path d="M170.31 39.7441L168.112 44.8331L165.901 39.7441H164.705L167.515 46.0903L167.306 46.5393C167.142 46.8985 166.977 47.1679 166.798 47.3027C166.618 47.4373 166.379 47.5121 166.095 47.5121C165.886 47.5121 165.677 47.4672 165.482 47.3925C165.288 47.3176 165.109 47.1979 164.959 47.0481L164.466 47.9163C164.676 48.1109 164.915 48.2605 165.213 48.3503C165.497 48.4551 165.796 48.5 166.095 48.5C166.424 48.5 166.723 48.4401 166.991 48.3353C167.261 48.2307 167.515 48.051 167.739 47.7966C167.963 47.5421 168.173 47.1829 168.351 46.7339L171.43 39.7441H170.31Z" fill="#221F20"/>
</g>
<defs>
<clipPath id="clip0_108_284">
<rect width="172" height="48" fill="white" transform="translate(0 0.5)"/>
</clipPath>
</defs>
</svg>
