<svg width="55" height="56" viewBox="0 0 55 56" fill="none" xmlns="http://www.w3.org/2000/svg">
<path fill-rule="evenodd" clip-rule="evenodd" d="M52.5502 13.5417C52.5246 14.6008 51.6472 15.4399 50.5881 15.4169C49.529 15.3913 48.6899 14.5138 48.7129 13.4548L48.8178 8.8347L44.2003 8.72981C43.1412 8.70423 42.3021 7.82678 42.3252 6.76769C42.3508 5.70861 43.2282 4.86953 44.2873 4.89255L50.826 5.04348C51.8851 5.06651 52.7241 5.94396 52.6986 7.00305L52.5502 13.5417Z" fill="#A91D21"/>
<path d="M3.83726 21.1817H3.33726V21.6817V51.528V52.028H3.83726H7.8715H8.3715V51.528V21.6817V21.1817H7.8715H3.83726ZM11.2088 21.0755V52.1342C11.2088 53.6437 9.98725 54.8652 8.47779 54.8652H3.23097C1.72151 54.8652 0.5 53.6437 0.5 52.1342V21.0755C0.5 19.5683 1.72177 18.3445 3.23097 18.3445H8.47779C9.987 18.3445 11.2088 19.5683 11.2088 21.0755Z" stroke="#BCBEC0"/>
<path d="M32.6986 36.9247H32.1986V37.4247V51.5279V52.0279H32.6986H36.7328H37.2328V51.5279V37.4247V36.9247H36.7328H32.6986ZM40.0701 36.8184V52.1342C40.0701 52.8585 39.7826 53.5525 39.27 54.0651C38.7574 54.5776 38.0634 54.8651 37.3391 54.8651H32.0923C31.368 54.8651 30.674 54.5776 30.1614 54.0651C29.6488 53.5525 29.3613 52.8585 29.3613 52.1342V36.8184C29.3613 36.0941 29.6488 35.4001 30.1614 34.8875C30.674 34.3749 31.368 34.0874 32.0923 34.0874H37.3391C38.0634 34.0874 38.7574 34.3749 39.27 34.8875C39.7826 35.4001 40.0701 36.0941 40.0701 36.8184Z" stroke="#BCBEC0"/>
<path d="M18.2679 29.0533H17.7679V29.5533V51.528V52.028H18.2679H22.3022H22.8022V51.528V29.5533V29.0533H22.3022H18.2679ZM25.6394 28.947V52.1343C25.6394 53.6438 24.4179 54.8653 22.9085 54.8653H17.6616C16.1522 54.8653 14.9307 53.6438 14.9307 52.1343V28.947C14.9307 28.2227 15.2182 27.5287 15.7307 27.0161C16.2433 26.5036 16.9373 26.2161 17.6616 26.2161H22.9085C24.4177 26.2161 25.6394 27.4399 25.6394 28.947Z" stroke="#BCBEC0"/>
<path d="M47.1293 29.0533H46.6293V29.5533V51.528V52.028H47.1293H51.1635H51.6635V51.528V29.5533V29.0533H51.1635H47.1293ZM54.5008 28.947V52.1343C54.5008 53.6438 53.2792 54.8653 51.7698 54.8653H46.523C45.0135 54.8653 43.792 53.6438 43.792 52.1343V28.947C43.792 28.2227 44.0795 27.5287 44.5921 27.0161C45.1046 26.5036 45.7987 26.2161 46.523 26.2161H51.7698C53.279 26.2161 54.5008 27.4399 54.5008 28.947Z" stroke="#BCBEC0"/>
<path fill-rule="evenodd" clip-rule="evenodd" d="M3.06983 3.81802C2.22051 3.1836 2.04912 1.9787 2.6861 1.13194C3.32053 0.285184 4.52287 0.113787 5.37218 0.748214L20.601 12.1705H27.833C28.4239 12.1705 28.979 12.4416 29.3423 12.9047L35.1928 20.3515L48.7511 6.20224C49.4828 5.43735 50.6979 5.41177 51.4628 6.14596C52.2277 6.8776 52.2533 8.09273 51.5216 8.85763L36.4335 24.6006C36.0498 25.0023 35.51 25.2172 34.9549 25.189C34.3998 25.1634 33.883 24.8948 33.5402 24.4574L26.9018 16.0077H19.9615C19.547 16.0077 19.1428 15.8747 18.8103 15.624L3.06983 3.81802Z" fill="#A91D21"/>
</svg>
