<svg width="40" height="41" viewBox="0 0 40 41" fill="none" xmlns="http://www.w3.org/2000/svg">
<circle cx="20" cy="20.5" r="20" fill="#505050"/>
<g clip-path="url(#clip0_135_527)">
<path fill-rule="evenodd" clip-rule="evenodd" d="M31 28.5H27V21.501C27 19.581 26.153 18.5098 24.634 18.5098C22.981 18.5098 22 19.626 22 21.501V28.5H18V15.5H22V16.9619C22 16.9619 23.255 14.7598 26.083 14.7598C28.912 14.7598 31 16.4861 31 20.0581V28.5ZM13.442 13.4209C12.093 13.4209 11 12.319 11 10.96C11 9.60196 12.093 8.5 13.442 8.5C14.79 8.5 15.883 9.60196 15.883 10.96C15.884 12.319 14.79 13.4209 13.442 13.4209ZM11 28.5H16V15.5H11V28.5Z" fill="white"/>
</g>
<defs>
<clipPath id="clip0_135_527">
<rect width="20" height="20" fill="white" transform="translate(11 8.5)"/>
</clipPath>
</defs>
</svg>
