<svg width="230" height="76" viewBox="0 0 230 76" fill="none" xmlns="http://www.w3.org/2000/svg">
<path d="M73.7639 74.6684C73.4187 74.6684 73.1705 74.5916 73.0205 74.4379C72.8706 74.2829 72.795 74.0082 72.795 73.6088V69.3062C72.795 69.2155 72.8026 69.1424 72.8177 69.0857C72.8328 69.0303 72.8643 68.99 72.9134 68.9673C72.9626 68.9446 73.0319 68.9345 73.1226 68.9345H73.5951C73.5951 68.9408 73.5913 68.99 73.5837 69.0807C73.5762 69.1701 73.5724 69.2835 73.5724 69.4183V73.4854C73.5724 73.7714 73.6039 73.9767 73.6681 74.1053C73.7324 74.2325 73.8584 74.2968 74.0461 74.2968C74.0978 74.2968 74.1696 74.2892 74.259 74.2741C74.3497 74.259 74.4102 74.2476 74.4405 74.2401V74.5891C74.3951 74.5966 74.322 74.6117 74.22 74.6344C74.1192 74.6571 73.9667 74.6684 73.7639 74.6684Z" fill="#505050"/>
<path d="M78.5632 74.3186C78.9084 74.3186 79.1843 74.3073 79.391 74.2846C79.5976 74.2619 79.7551 74.233 79.8647 74.1952C79.9731 74.1574 80.0423 74.1082 80.0726 74.049V72.3695C80.0058 72.3481 79.8798 72.3254 79.6959 72.3028C79.5119 72.2801 79.3179 72.2587 79.1163 72.241C78.9122 72.2221 78.7396 72.212 78.5972 72.212C78.2747 72.212 78.0126 72.2309 77.8148 72.2687C77.6157 72.3065 77.4721 72.3998 77.3864 72.551C77.2995 72.6996 77.2567 72.9327 77.2567 73.249C77.2567 73.4972 77.2869 73.7 77.3474 73.8575C77.4066 74.015 77.5288 74.1309 77.7127 74.2065C77.8967 74.2808 78.1802 74.3186 78.5632 74.3186ZM78.5632 74.7017C78.1197 74.7017 77.7594 74.679 77.4822 74.6336C77.2037 74.5895 76.9921 74.5127 76.8447 74.4031C76.6985 74.2947 76.5977 74.1498 76.541 73.9696C76.4856 73.7895 76.4566 73.5677 76.4566 73.3044C76.4566 72.9226 76.502 72.6291 76.5914 72.4262C76.6821 72.2234 76.8396 72.0848 77.0651 72.0092C77.2907 71.9349 77.5905 71.8971 77.966 71.8971C78.1537 71.8971 78.3578 71.9021 78.5808 71.9134C78.8013 71.9248 79.0155 71.9361 79.2221 71.9475C79.4288 71.9588 79.6089 71.9714 79.7626 71.9865C79.9176 72.0016 80.0209 72.0205 80.0726 72.0432C80.0726 71.698 80.0423 71.4233 79.9831 71.2205C79.9227 71.0176 79.8307 70.8677 79.7072 70.7694C79.5825 70.6724 79.4288 70.6082 79.2448 70.5792C79.0609 70.5489 78.8492 70.5338 78.6086 70.5338C78.3603 70.5338 78.1109 70.5426 77.8589 70.5615C77.6082 70.5804 77.3763 70.6107 77.1672 70.6523C76.9568 70.6926 76.7955 70.7468 76.6821 70.8148V70.646C76.6821 70.4885 76.7287 70.3776 76.8232 70.3146C76.9165 70.2503 77.0236 70.2075 77.1445 70.1848C77.2869 70.147 77.4948 70.1168 77.7694 70.0941C78.0428 70.0714 78.3301 70.0639 78.6312 70.0714C79.0143 70.0714 79.3431 70.0903 79.6165 70.1281C79.8912 70.1659 80.1179 70.2466 80.2981 70.37C80.4783 70.4948 80.6144 70.68 80.7038 70.9282C80.7945 71.1764 80.8399 71.514 80.8399 71.9412V74.2619C80.7945 74.4131 80.5955 74.524 80.2427 74.5946C79.8886 74.6664 79.3292 74.7017 78.5632 74.7017Z" fill="#505050"/>
<path d="M85.1196 74.6567C84.729 74.6567 84.4077 74.6252 84.1558 74.5609C83.905 74.4967 83.7186 74.3618 83.5989 74.1552C83.4779 73.9486 83.4187 73.6349 83.4187 73.2153V70.5455C83.4187 70.3792 83.4376 70.2683 83.4754 70.2129C83.5132 70.1562 83.5989 70.1285 83.7337 70.1285H84.2074V73.2481C84.2074 73.6311 84.2881 73.8831 84.4493 74.0028C84.6106 74.1237 84.8676 74.1842 85.2217 74.1842C85.5896 74.1842 85.8541 74.1199 86.0154 73.9927C86.1767 73.8642 86.2573 73.6727 86.2573 73.4182L86.246 70.1285H87.046V73.4282C87.046 73.6764 87.1267 73.8642 87.2879 73.9927C87.4505 74.1199 87.7151 74.1842 88.083 74.1842C88.4357 74.1842 88.6928 74.1237 88.854 74.0028C89.0166 73.8831 89.0972 73.6311 89.0972 73.2481V70.1285H89.547C89.6982 70.1285 89.7889 70.1549 89.8229 70.2066C89.8569 70.2595 89.8746 70.3717 89.8746 70.5455V73.2153C89.8746 73.6286 89.8141 73.9385 89.6944 74.1439C89.5734 74.3505 89.3882 74.4878 89.1363 74.5546C88.8843 74.6226 88.5554 74.6567 88.1497 74.6567C87.7289 74.6567 87.3787 74.5911 87.0964 74.4601C86.8155 74.3291 86.6441 74.0859 86.5836 73.7331H86.7197C86.6744 73.9662 86.5862 74.1514 86.4551 74.29C86.3228 74.4299 86.1464 74.5256 85.9247 74.5773C85.7042 74.6302 85.4346 74.6567 85.1196 74.6567Z" fill="#505050"/>
<path d="M98.0194 71.9081C97.8984 71.9459 97.8064 72.0265 97.7434 72.15C97.6792 72.2747 97.6338 72.4108 97.6086 72.562C97.5822 72.7119 97.5683 72.8354 97.5683 72.9337C97.5683 73.3759 97.6263 73.6846 97.7434 73.8572C97.8593 74.0298 98.0383 74.1432 98.2776 74.1949C98.4213 74.2251 98.5876 74.2465 98.7791 74.2566C98.9706 74.2679 99.1659 74.2679 99.365 74.2566C99.564 74.2465 99.7354 74.2213 99.8778 74.1835C99.9748 74.1608 100.069 74.1331 100.16 74.0991C100.249 74.0651 100.329 74.0172 100.397 73.9529C100.464 73.8887 100.509 73.8005 100.532 73.6884C100.111 73.3872 99.69 73.0886 99.2705 72.7926C98.8484 72.4965 98.4314 72.2004 98.0194 71.9081ZM102.221 74.6799C102.108 74.627 101.972 74.5476 101.81 74.4431C101.649 74.3372 101.467 74.2138 101.264 74.0714C101.188 74.2289 101.078 74.3473 100.931 74.4254C100.785 74.5048 100.607 74.5628 100.397 74.6006C100.134 74.6459 99.8387 74.6761 99.5124 74.6913C99.1848 74.7051 98.8635 74.7051 98.5485 74.6913C98.2335 74.6761 97.9589 74.6535 97.7258 74.6232C97.4927 74.5854 97.2962 74.5161 97.1349 74.4141C96.9724 74.3133 96.8527 74.152 96.7746 73.9303C96.6952 73.7085 96.6561 73.3986 96.6561 73.0004C96.6561 72.7837 96.6838 72.5708 96.7405 72.3642C96.7972 72.1576 96.8816 71.9812 96.9938 71.835C97.1072 71.6876 97.2495 71.5994 97.4222 71.5704C97.2722 71.4797 97.1551 71.3613 97.0732 71.2151C96.99 71.069 96.9497 70.8573 96.9497 70.5789C96.9497 70.3231 96.9988 70.119 97.1009 69.964C97.2017 69.8116 97.334 69.6957 97.4952 69.6213C97.6565 69.5457 97.8367 69.4953 98.0357 69.4689C98.2348 69.4424 98.4314 69.426 98.6279 69.4185C98.8081 69.4034 98.9996 69.3958 99.2024 69.3958C99.4053 69.3958 99.6056 69.4008 99.8047 69.4122C100.004 69.4235 100.181 69.4374 100.34 69.4525C100.505 69.4664 100.655 69.489 100.791 69.5193C100.926 69.5495 101.034 69.6075 101.118 69.6944C101.199 69.7801 101.241 69.9174 101.241 70.1051C101.129 70.0308 100.963 69.9766 100.746 69.9426C100.528 69.9086 100.302 69.8834 100.069 69.8695C99.8362 69.8544 99.6421 69.8468 99.4834 69.8468C99.3259 69.8468 99.1495 69.8519 98.9542 69.8632C98.7589 69.8746 98.5712 69.9086 98.391 69.964C98.2109 70.0207 98.0609 70.1077 97.94 70.2236C97.8203 70.3407 97.7598 70.5071 97.7598 70.725C97.7598 70.9127 97.814 71.0778 97.9236 71.2214C98.032 71.3638 98.192 71.51 98.4024 71.6599L100.543 73.2033V71.6385C100.708 71.6385 100.849 71.6473 100.965 71.6662C101.081 71.6838 101.174 71.7204 101.241 71.7733C101.309 71.8262 101.349 71.9043 101.366 72.0101C101.372 72.1739 101.378 72.3591 101.382 72.562C101.386 72.7648 101.386 72.9589 101.382 73.1466C101.378 73.3356 101.372 73.4969 101.366 73.6317L102.221 74.1835V74.6799Z" fill="#505050"/>
<path d="M110.873 74.3186C111.218 74.3186 111.494 74.3073 111.701 74.2846C111.908 74.2619 112.065 74.233 112.175 74.1952C112.283 74.1574 112.352 74.1082 112.383 74.049V72.3695C112.316 72.3481 112.19 72.3254 112.006 72.3028C111.822 72.2801 111.628 72.2587 111.426 72.241C111.222 72.2221 111.05 72.212 110.907 72.212C110.585 72.212 110.323 72.2309 110.125 72.2687C109.926 72.3065 109.782 72.3998 109.696 72.551C109.609 72.6996 109.567 72.9327 109.567 73.249C109.567 73.4972 109.597 73.7 109.657 73.8575C109.717 74.015 109.839 74.1309 110.023 74.2065C110.207 74.2808 110.49 74.3186 110.873 74.3186ZM110.873 74.7017C110.43 74.7017 110.069 74.679 109.792 74.6336C109.514 74.5895 109.302 74.5127 109.155 74.4031C109.008 74.2947 108.908 74.1498 108.851 73.9696C108.796 73.7895 108.767 73.5677 108.767 73.3044C108.767 72.9226 108.812 72.6291 108.901 72.4262C108.992 72.2234 109.15 72.0848 109.375 72.0092C109.601 71.9349 109.901 71.8971 110.276 71.8971C110.464 71.8971 110.668 71.9021 110.891 71.9134C111.111 71.9248 111.325 71.9361 111.532 71.9475C111.739 71.9588 111.919 71.9714 112.073 71.9865C112.228 72.0016 112.331 72.0205 112.383 72.0432C112.383 71.698 112.352 71.4233 112.293 71.2205C112.233 71.0176 112.141 70.8677 112.017 70.7694C111.892 70.6724 111.739 70.6082 111.555 70.5792C111.371 70.5489 111.159 70.5338 110.919 70.5338C110.67 70.5338 110.421 70.5426 110.169 70.5615C109.918 70.5804 109.686 70.6107 109.476 70.6523C109.267 70.6926 109.105 70.7468 108.992 70.8148V70.646C108.992 70.4885 109.039 70.3776 109.133 70.3146C109.226 70.2503 109.334 70.2075 109.454 70.1848C109.597 70.147 109.805 70.1168 110.079 70.0941C110.353 70.0714 110.64 70.0639 110.941 70.0714C111.324 70.0714 111.653 70.0903 111.926 70.1281C112.201 70.1659 112.428 70.2466 112.608 70.37C112.788 70.4948 112.924 70.68 113.014 70.9282C113.104 71.1764 113.15 71.514 113.15 71.9412V74.2619C113.104 74.4131 112.905 74.524 112.553 74.5946C112.199 74.6664 111.639 74.7017 110.873 74.7017Z" fill="#505050"/>
<path d="M117.722 74.1952C118.06 74.1952 118.33 74.1751 118.528 74.1335C118.728 74.0919 118.879 74.0088 118.985 73.8853C119.089 73.7618 119.158 73.5867 119.188 73.3612C119.218 73.1356 119.232 72.8396 119.232 72.4704V70.646C119.15 70.6385 119.032 70.6309 118.878 70.6233C118.724 70.617 118.564 70.6082 118.399 70.6019C118.234 70.5944 118.087 70.5893 117.959 70.5893C117.599 70.5893 117.307 70.6372 117.081 70.7304C116.856 70.8249 116.692 71.0013 116.591 71.2596C116.489 71.5191 116.439 71.8933 116.439 72.3809C116.439 72.9 116.478 73.2881 116.557 73.5476C116.635 73.8059 116.769 73.9785 116.956 74.0655C117.144 74.1524 117.4 74.1952 117.722 74.1952ZM115.65 72.3482C115.65 71.7384 115.731 71.2735 115.892 70.9497C116.053 70.6271 116.287 70.4054 116.596 70.2857C116.904 70.166 117.279 70.1055 117.722 70.1055C117.85 70.1055 118.002 70.1093 118.179 70.1169C118.356 70.1244 118.534 70.137 118.714 70.1559C118.894 70.1748 119.052 70.195 119.188 70.2176C119.323 70.2403 119.416 70.263 119.469 70.2857L119.232 70.3978V68.9338H120.009L119.999 72.3583C119.999 72.8698 119.964 73.2767 119.897 73.5804C119.829 73.8853 119.714 74.1133 119.553 74.262C119.392 74.4132 119.166 74.514 118.878 74.5669C118.588 74.6198 118.226 74.6463 117.791 74.6463C117.385 74.6463 117.043 74.6198 116.765 74.5669C116.488 74.514 116.267 74.4094 116.106 74.2519C115.945 74.0932 115.829 73.8651 115.757 73.564C115.685 73.2641 115.65 72.8585 115.65 72.3482Z" fill="#505050"/>
<path d="M124.099 74.623C123.972 74.623 123.862 74.6053 123.772 74.5726C123.682 74.5386 123.605 74.4806 123.541 74.3975C123.478 74.3143 123.42 74.2022 123.367 74.0598L122.038 70.1276H122.859L123.851 73.3505C123.911 73.5369 123.981 73.6629 124.059 73.7272C124.138 73.7914 124.283 73.8229 124.494 73.8229C124.674 73.2446 124.844 72.6663 125.006 72.088C125.168 71.5097 125.334 70.9352 125.508 70.3644C125.53 70.2888 125.563 70.2309 125.609 70.1893C125.654 70.149 125.724 70.1276 125.823 70.1276H126.128L124.674 74.623H124.099Z" fill="#505050"/>
<path d="M129.27 74.6684C128.917 74.6684 128.681 74.5739 128.561 74.3862C128.441 74.1985 128.381 73.9251 128.381 73.5635V70.1289H129.169V73.5194C129.169 73.8268 129.203 74.0334 129.27 74.138C129.338 74.2438 129.458 74.2968 129.631 74.2968C129.691 74.2968 129.765 74.2892 129.856 74.2741C129.947 74.259 130.003 74.2476 130.025 74.2401V74.5891C130.003 74.5966 129.959 74.6067 129.895 74.618C129.832 74.6281 129.749 74.6407 129.648 74.6508C129.546 74.6634 129.42 74.6684 129.27 74.6684ZM128.786 69.475C128.658 69.475 128.557 69.4561 128.481 69.4183C128.407 69.3805 128.369 69.3024 128.369 69.1815C128.369 69.0618 128.405 68.9824 128.476 68.9446C128.548 68.9081 128.647 68.8892 128.775 68.8892C128.917 68.8892 129.023 68.9081 129.09 68.9446C129.158 68.9824 129.188 69.0618 129.181 69.1815C129.181 69.3024 129.147 69.3805 129.079 69.4183C129.012 69.4561 128.914 69.475 128.786 69.475Z" fill="#505050"/>
<path d="M133.799 74.6684C133.671 74.6684 133.511 74.6647 133.32 74.6571C133.128 74.6495 132.933 74.6319 132.734 74.6067C132.535 74.5802 132.357 74.5412 132.199 74.4883C132.124 74.458 132.064 74.4278 132.018 74.3976C131.973 74.3673 131.941 74.3157 131.923 74.2401C131.905 74.1657 131.895 74.0523 131.895 73.9024C132.06 73.9856 132.255 74.0511 132.481 74.099C132.706 74.1481 132.932 74.1796 133.157 74.196C133.382 74.2098 133.569 74.2174 133.719 74.2174C133.945 74.2174 134.165 74.2086 134.379 74.1897C134.594 74.1708 134.786 74.1292 134.959 74.0662C135.132 74.0019 135.269 73.9062 135.371 73.7789C135.472 73.6504 135.522 73.4816 135.522 73.2712C135.522 72.9625 135.443 72.766 135.285 72.679C135.128 72.5933 134.914 72.5505 134.644 72.5505H133.506C133.228 72.5505 132.967 72.5329 132.723 72.5001C132.479 72.4661 132.279 72.3716 132.125 72.2179C131.972 72.0642 131.895 71.8034 131.895 71.4355C131.895 71.0373 131.992 70.74 132.188 70.5447C132.382 70.3494 132.66 70.2222 133.016 70.1617C133.373 70.1025 133.787 70.071 134.261 70.071C134.434 70.071 134.64 70.076 134.881 70.0836C135.12 70.0899 135.35 70.1125 135.568 70.1503C135.717 70.173 135.843 70.2007 135.946 70.2348C136.046 70.2688 136.121 70.3154 136.17 70.3759C136.219 70.4363 136.243 70.522 136.243 70.6354V70.8609C136.176 70.7853 136.063 70.7249 135.905 70.6808C135.748 70.6354 135.565 70.6014 135.36 70.5787C135.153 70.556 134.94 70.5434 134.723 70.5397C134.504 70.5359 134.303 70.5334 134.114 70.5334C133.874 70.5334 133.641 70.5485 133.416 70.5787C133.19 70.609 133.009 70.682 132.87 70.7979C132.73 70.9151 132.661 71.1129 132.661 71.3901C132.661 71.6005 132.706 71.7542 132.796 71.8525C132.886 71.9495 133.009 72.0113 133.162 72.0377C133.316 72.0642 133.491 72.0768 133.686 72.0768H134.847C135.132 72.0768 135.385 72.1007 135.607 72.1498C135.828 72.199 136.001 72.3073 136.126 72.4774C136.249 72.6463 136.311 72.9108 136.311 73.2712C136.311 73.6693 136.203 73.9692 135.985 74.1733C135.767 74.3749 135.468 74.5084 135.089 74.5727C134.71 74.6357 134.28 74.6684 133.799 74.6684Z" fill="#505050"/>
<path d="M140.795 74.2513C141.096 74.2513 141.353 74.206 141.568 74.1165C141.78 74.0258 141.944 73.8494 142.058 73.5861C142.17 73.324 142.226 72.9221 142.226 72.3816C142.226 71.8398 142.17 71.4392 142.058 71.1758C141.944 70.9125 141.78 70.7361 141.568 70.6467C141.353 70.556 141.096 70.5106 140.795 70.5106C140.495 70.5106 140.238 70.556 140.024 70.6467C139.81 70.7361 139.645 70.9125 139.528 71.1758C139.412 71.4392 139.354 71.8398 139.354 72.3816C139.354 72.9221 139.412 73.324 139.528 73.5861C139.645 73.8494 139.81 74.0258 140.024 74.1165C140.238 74.206 140.495 74.2513 140.795 74.2513ZM140.795 74.691C140.45 74.691 140.14 74.6633 139.867 74.6117C139.592 74.56 139.355 74.4542 139.156 74.2954C138.957 74.1379 138.805 73.9061 138.7 73.5974C138.595 73.29 138.542 72.8843 138.542 72.3816C138.542 71.8776 138.595 71.4719 138.7 71.1645C138.805 70.8571 138.957 70.624 139.156 70.4665C139.355 70.3078 139.592 70.2032 139.867 70.1503C140.14 70.0986 140.45 70.0709 140.795 70.0709C141.133 70.0709 141.439 70.0986 141.714 70.1503C141.987 70.2032 142.223 70.3078 142.418 70.4665C142.613 70.624 142.763 70.8571 142.869 71.1645C142.974 71.4719 143.027 71.8776 143.027 72.3816C143.027 72.8919 142.974 73.3013 142.869 73.6088C142.763 73.9174 142.613 74.148 142.418 74.3017C142.223 74.4567 141.987 74.56 141.714 74.6117C141.439 74.6633 141.133 74.691 140.795 74.691Z" fill="#505050"/>
<path d="M146.417 74.623H145.921C145.823 74.623 145.75 74.599 145.701 74.5499C145.653 74.5008 145.628 74.4088 145.628 74.274V70.3531C145.793 70.3002 146.021 70.2447 146.309 70.1843C146.599 70.125 146.957 70.0936 147.385 70.0936C147.791 70.0936 148.112 70.1225 148.348 70.1792C148.585 70.2347 148.757 70.3115 148.867 70.4098C148.975 70.5068 149.047 70.6252 149.081 70.7638C149.115 70.9037 149.132 71.0587 149.132 71.2325H148.377L148.366 71.0738C148.358 70.9012 148.301 70.7752 148.197 70.6971C148.091 70.6177 147.968 70.5698 147.825 70.5509C147.683 70.532 147.539 70.5219 147.397 70.5219C147.179 70.5219 146.986 70.5408 146.816 70.5786C146.647 70.6164 146.515 70.6643 146.417 70.7248V74.623Z" fill="#505050"/>
<path d="M153.379 75.8736C153.041 75.8736 152.722 75.856 152.421 75.8232C152.121 75.7892 151.877 75.7388 151.689 75.6708C151.502 75.604 151.408 75.5284 151.408 75.4452V75.1643C151.528 75.231 151.687 75.2877 151.886 75.3331C152.085 75.3785 152.298 75.4137 152.523 75.4402C152.748 75.4654 152.966 75.4793 153.176 75.4793C153.536 75.4793 153.831 75.4301 154.061 75.3331C154.29 75.2348 154.462 75.0773 154.578 74.8594C154.696 74.6414 154.753 74.368 154.753 74.0379V73.4294C154.685 73.5793 154.577 73.7065 154.427 73.8124C154.277 73.9169 154.091 73.9925 153.869 74.0379C153.647 74.082 153.39 74.1047 153.098 74.1047C152.564 74.1047 152.172 74.0291 151.92 73.8791C151.669 73.7292 151.507 73.515 151.436 73.2378C151.364 72.9594 151.329 72.6369 151.329 72.269V70.5668C151.329 70.4547 151.334 70.3665 151.345 70.3022C151.357 70.2392 151.383 70.1939 151.425 70.1674C151.466 70.1409 151.536 70.1283 151.633 70.1283H152.128V70.6852V71.2043V71.7171V72.269C152.128 72.6961 152.187 73.0123 152.303 73.2152C152.419 73.418 152.578 73.5453 152.777 73.5982C152.976 73.6511 153.195 73.6763 153.436 73.6763C153.676 73.6763 153.893 73.6448 154.089 73.5805C154.284 73.5175 154.442 73.3916 154.562 73.2038C154.682 73.0161 154.742 72.7339 154.742 72.3584V70.1283H155.227C155.339 70.1283 155.42 70.1447 155.469 70.1787C155.517 70.2128 155.542 70.3085 155.542 70.466V73.9472C155.542 74.6162 155.368 75.1038 155.018 75.4112C154.669 75.7199 154.122 75.8736 153.379 75.8736Z" fill="#505050"/>
<path d="M81.6233 44.9643C79.8355 44.9643 78.3248 44.8458 77.0901 44.6115C75.8553 44.3772 74.8436 43.9475 74.0562 43.3239C73.2675 42.7015 72.698 41.8548 72.3452 40.7838C71.9924 39.7142 71.816 38.356 71.816 36.7092C71.816 34.8987 72.0504 33.441 72.5216 32.3348C72.9915 31.2298 73.6618 30.3895 74.5324 29.8124C75.403 29.2366 76.4488 28.8486 77.6722 28.6482C78.8943 28.4492 80.2701 28.3484 81.7997 28.3484C83.304 28.3484 84.6635 28.3773 85.8743 28.4366C87.0851 28.4958 88.0313 28.5953 88.7142 28.7364C89.2786 28.8309 89.6956 28.9834 89.9665 29.195C90.2361 29.4067 90.4075 29.6423 90.4781 29.9006C90.5486 30.1601 90.5839 30.4184 90.5839 30.6767V31.8409C90.4428 31.6771 90.119 31.536 89.6137 31.4176C89.1073 31.3004 88.5264 31.2059 87.8675 31.1353C87.2085 31.0648 86.532 31.0068 85.839 30.9589C85.1448 30.9123 84.5047 30.877 83.9164 30.8531C83.328 30.8304 82.8694 30.8178 82.5405 30.8178C81.0815 30.8178 79.9237 30.9766 79.0656 31.2941C78.2076 31.6116 77.589 32.1937 77.2135 33.0403C76.8368 33.887 76.6491 35.1104 76.6491 36.7092C76.6491 38.2149 76.8192 39.3853 77.1606 40.2194C77.5021 41.0547 78.0602 41.6368 78.8363 41.9657C79.6124 42.2958 80.6355 42.4595 81.9055 42.4595C83.081 42.4595 84.0109 42.3537 84.6925 42.142C85.3741 41.9304 85.868 41.5537 86.1741 41.0132C86.479 40.4726 86.6441 39.7318 86.668 38.7906V38.138V37.7323H80.4238C80.4238 37.0746 80.4654 36.5681 80.5473 36.2154C80.6292 35.8626 80.8295 35.6106 81.147 35.4569C81.4645 35.3044 81.9647 35.2276 82.6464 35.2276H91.2189V38.7201C91.2189 39.8729 91.0778 40.8494 90.7956 41.6482C90.5133 42.4482 90.0194 43.0895 89.3139 43.5708C88.6083 44.0534 87.6256 44.4061 86.3682 44.6291C85.1095 44.8521 83.5283 44.9643 81.6233 44.9643Z" fill="#231F20"/>
<path d="M112.42 37.097C112.42 38.3443 112.35 39.4493 112.208 40.4131C112.067 41.3782 111.715 42.1896 111.15 42.8473C110.586 43.5062 109.686 44.0001 108.451 44.329C107.217 44.6591 105.506 44.8229 103.318 44.8229C101.554 44.8229 100.102 44.717 98.9616 44.5054C97.8213 44.2937 96.9381 43.9762 96.3157 43.5529C95.6921 43.1295 95.246 42.618 94.9752 42.0183C94.7043 41.4185 94.5405 40.7306 94.4813 39.9545C94.4221 39.1784 94.3931 38.3317 94.3931 37.4145V30.7117C94.3931 30.1006 94.4107 29.6357 94.446 29.3182C94.4813 29.0007 94.6274 28.789 94.887 28.6832C95.1465 28.5774 95.5686 28.5245 96.157 28.5245H99.085V38.5787C99.085 39.5904 99.2325 40.3552 99.526 40.8717C99.8208 41.3896 100.278 41.7423 100.902 41.9301C101.526 42.1191 102.331 42.2123 103.318 42.2123C104.893 42.2123 106.017 41.9427 106.687 41.4009C107.358 40.8604 107.693 39.9318 107.693 38.6139V28.5245H110.586C111.197 28.5245 111.633 28.5774 111.891 28.6832C112.149 28.789 112.303 29.0007 112.35 29.3182C112.396 29.6357 112.42 30.1006 112.42 30.7117V37.097Z" fill="#231F20"/>
<path d="M120.499 38.9674H126.708L124.662 33.2523C124.592 33.0167 124.491 32.7988 124.362 32.5997C124.233 32.4006 123.992 32.2998 123.639 32.2998C123.239 32.2998 122.974 32.4006 122.845 32.5997C122.716 32.7988 122.604 33.0167 122.51 33.2523L120.499 38.9674ZM114.679 44.7529L119.97 31.1357C120.299 30.2651 120.782 29.5897 121.417 29.1072C122.052 28.6259 123.075 28.384 124.486 28.384C125.661 28.384 126.59 28.607 127.273 29.0543C127.954 29.5015 128.484 30.1958 128.86 31.1357L134.223 44.7529H129.107L127.59 40.8371H119.723L118.312 44.7529H114.679Z" fill="#231F20"/>
<path d="M141.595 36.533C141.877 36.533 142.318 36.5393 142.918 36.5506C143.517 36.5619 144.164 36.5745 144.858 36.5859C145.552 36.5985 146.198 36.6035 146.798 36.6035H148.086C148.721 36.6035 149.285 36.3981 149.779 35.9861C150.273 35.5754 150.52 34.8169 150.52 33.7107C150.52 32.9346 150.379 32.3235 150.097 31.8763C149.814 31.4303 149.367 31.1707 148.756 31.1002C148.355 31.0535 147.85 31.0233 147.239 31.012C146.628 31.0006 145.992 30.9943 145.334 30.9943C144.675 30.9943 144.069 31.0006 143.517 31.012C142.964 31.0233 142.547 31.0422 142.265 31.0649C142.218 31.0649 142.094 31.1002 141.894 31.1707C141.694 31.2413 141.595 31.4303 141.595 31.7352V36.533ZM147.169 38.8613C146.11 38.8613 145.158 38.8676 144.311 38.8789C143.464 38.8915 142.558 38.8966 141.595 38.8966V44.7527H136.903V30.571C136.903 29.8894 137.05 29.3778 137.344 29.0364C137.637 28.6962 138.208 28.5249 139.055 28.5249C139.407 28.5249 139.919 28.5198 140.589 28.5072C141.259 28.4959 142.012 28.4896 142.847 28.4896C143.681 28.4896 144.552 28.4833 145.458 28.472C146.362 28.4606 147.226 28.4606 148.05 28.472C148.873 28.4833 149.596 28.4959 150.22 28.5072C150.842 28.5198 151.307 28.5362 151.614 28.5601C152.86 28.6786 153.788 29.0717 154.401 29.742C155.012 30.4122 155.318 31.4529 155.318 32.8641C155.318 34.0874 155.199 35.011 154.965 35.6334C154.729 36.257 154.365 36.7207 153.871 37.0268C153.753 37.1213 153.571 37.2032 153.325 37.2738C153.078 37.3443 152.813 37.3796 152.531 37.3796V37.4855H152.989H153.413C154.306 37.6505 154.848 37.997 155.036 38.5262C155.223 39.0553 155.318 39.6021 155.318 40.1666V43.6238C155.318 43.9766 155.353 44.2475 155.424 44.4352C155.494 44.6229 155.541 44.7288 155.565 44.7527H152.107C151.59 44.7527 151.19 44.6696 150.908 44.5058C150.626 44.342 150.485 43.9766 150.485 43.4122V40.6252C150.485 39.8957 150.326 39.4207 150.008 39.1964C149.691 38.9734 149.132 38.8613 148.333 38.8613H147.169Z" fill="#231F20"/>
<path d="M163.96 42.3183H164.825C165.189 42.3183 165.577 42.3246 165.989 42.336C166.401 42.3486 166.805 42.3536 167.206 42.3536H168.194C169.157 42.3536 169.975 42.2831 170.645 42.142C171.316 42.0008 171.85 41.7249 172.251 41.3129C172.65 40.9022 172.944 40.3251 173.133 39.5843C173.32 38.8435 173.415 37.8973 173.415 36.7444C173.415 35.1216 173.25 33.8932 172.921 33.0579C172.592 32.2238 172.05 31.6594 171.298 31.3645C170.546 31.071 169.499 30.9236 168.158 30.9236H166.959C166.465 30.9236 165.982 30.9299 165.512 30.9412C165.041 30.9538 164.642 30.9714 164.313 30.9941C164.219 31.1126 164.137 31.2474 164.066 31.3998C163.996 31.5535 163.96 31.8055 163.96 32.1583V42.3183ZM178.248 36.7091C178.248 38.5209 178.047 39.9673 177.648 41.0483C177.247 42.1306 176.648 42.9357 175.849 43.4649C175.049 43.994 174.043 44.3468 172.833 44.5232C171.622 44.6996 170.204 44.7878 168.582 44.7878H165.848C164.966 44.7878 164.124 44.7815 163.325 44.7702C162.525 44.7588 161.779 44.7525 161.085 44.7525H159.268V30.8177C159.268 30.0189 159.409 29.4419 159.692 29.0891C159.974 28.7363 160.55 28.5486 161.42 28.5247C161.961 28.5247 162.572 28.5196 163.255 28.507C163.936 28.4957 164.637 28.4894 165.354 28.4894H167.506H169.428C170.957 28.5133 172.28 28.6305 173.397 28.8422C174.513 29.0538 175.431 29.4419 176.149 30.0063C176.866 30.5708 177.395 31.3885 177.736 32.4582C178.078 33.5291 178.248 34.9453 178.248 36.7091Z" fill="#231F20"/>
<path d="M181.881 44.7525V37.4323V30.1122C181.881 29.7594 181.905 29.4658 181.952 29.2302C181.998 28.9959 182.133 28.8195 182.357 28.701C182.58 28.5839 182.951 28.5247 183.468 28.5247H186.573V44.7525H181.881Z" fill="#231F20"/>
<path d="M195.04 38.9674H201.249L199.203 33.2523C199.132 33.0167 199.031 32.7988 198.903 32.5997C198.773 32.4006 198.532 32.2998 198.18 32.2998C197.779 32.2998 197.514 32.4006 197.386 32.5997C197.256 32.7988 197.144 33.0167 197.051 33.2523L195.04 38.9674ZM189.219 44.7529L194.511 31.1357C194.84 30.2651 195.322 29.5897 195.957 29.1072C196.592 28.6259 197.615 28.384 199.026 28.384C200.202 28.384 201.13 28.607 201.813 29.0543C202.495 29.5015 203.024 30.1958 203.401 31.1357L208.763 44.7529H203.648L202.131 40.8371H194.264L192.853 44.7529H189.219Z" fill="#231F20"/>
<path d="M211.62 44.7525V30.3238C211.62 29.5717 211.713 29.0828 211.902 28.8598C212.09 28.6368 212.561 28.5247 213.314 28.5247H217.688L226.366 39.9547L226.543 40.5192V28.5247H230C229.976 28.5725 229.952 28.701 229.929 28.9127C229.906 29.1244 229.894 29.36 229.894 29.6183V30.2886V43.165C229.894 43.8945 229.764 44.3418 229.506 44.5056C229.247 44.6706 228.741 44.7525 227.989 44.7525H223.967L215.148 33.1108L215.007 32.5111V44.7525H211.62Z" fill="#231F20"/>
<path d="M71.8158 56.7974C71.8158 55.1507 72.0098 53.7875 72.4004 52.7052C72.7885 51.6242 73.4361 50.7775 74.3394 50.1652C75.2453 49.5541 76.4372 49.1245 77.9189 48.8775C79.4006 48.6306 81.2224 48.5071 83.3819 48.5071C84.3621 48.5071 85.2907 48.5361 86.1701 48.5953C87.0496 48.6545 87.9655 48.7541 88.9206 48.8952C89.8743 49.0136 90.4967 49.219 90.7852 49.5125C91.0738 49.8074 91.2187 50.2244 91.2187 50.7649V52.2113C90.566 51.9757 89.7811 51.7829 88.8639 51.6292C87.9466 51.4768 87.0181 51.3596 86.0756 51.2764C85.1345 51.1945 84.2991 51.153 83.5709 51.153C81.9884 51.153 80.7071 51.2941 79.7281 51.5763C78.7479 51.8585 78.0449 52.4116 77.6178 53.2344C77.1906 54.0583 76.9777 55.2565 76.9777 56.8327C76.9777 58.3623 77.1906 59.5315 77.6178 60.3429C78.0449 61.1542 78.7731 61.7124 79.8025 62.0186C80.8331 62.3247 82.214 62.4772 83.9476 62.4772C84.6255 62.4772 85.3726 62.4419 86.189 62.3713C87.0055 62.3008 87.8345 62.1899 88.6761 62.0362C89.5165 61.8837 90.3644 61.7124 91.2187 61.5247V62.9005C91.2187 63.3717 91.0612 63.7648 90.7487 64.0823C90.4337 64.3998 89.7874 64.6178 88.8084 64.735C87.9038 64.8761 86.9866 64.9756 86.0567 65.0348C85.1282 65.0928 84.1732 65.123 83.1942 65.123C81.0082 65.123 79.1813 64.9995 77.7122 64.7526C76.2432 64.5057 75.0752 64.076 74.2084 63.465C73.3416 62.8539 72.7267 62.0072 72.3626 60.9249C71.9972 59.8427 71.8158 58.4681 71.8158 56.7974Z" fill="#231F20"/>
<path d="M103.407 62.6536C104.253 62.6536 105.001 62.5767 105.647 62.4243C106.295 62.2718 106.829 61.9833 107.252 61.56C107.675 61.1366 107.993 60.5432 108.205 59.7784C108.416 59.0149 108.522 58.0208 108.522 56.7974C108.522 55.5514 108.416 54.546 108.205 53.7812C107.993 53.0177 107.675 52.423 107.252 51.9996C106.829 51.5763 106.295 51.2878 105.647 51.1353C105.001 50.9829 104.253 50.906 103.407 50.906C102.537 50.906 101.779 50.9829 101.131 51.1353C100.485 51.2878 99.9558 51.5763 99.5438 51.9996C99.1318 52.423 98.8206 53.0177 98.609 53.7812C98.3973 54.546 98.2915 55.5514 98.2915 56.7974C98.2915 58.0208 98.3973 59.0149 98.609 59.7784C98.8206 60.5432 99.1318 61.1366 99.5438 61.56C99.9558 61.9833 100.485 62.2718 101.131 62.4243C101.779 62.5767 102.537 62.6536 103.407 62.6536ZM103.336 65.1583C101.62 65.1583 100.144 65.0411 98.9088 64.8055C97.6741 64.5699 96.651 64.1478 95.8397 63.5355C95.0283 62.9245 94.4285 62.0715 94.0405 60.9779C93.6524 59.8843 93.4584 58.4908 93.4584 56.7974C93.4584 55.0575 93.665 53.6401 94.0758 52.5464C94.4865 51.4528 95.1114 50.6062 95.9455 50.0064C96.7808 49.4067 97.8266 48.9897 99.0852 48.7541C100.343 48.5197 101.819 48.4013 103.513 48.4013C105.206 48.4013 106.67 48.5197 107.905 48.7541C109.139 48.9897 110.162 49.413 110.974 50.0241C111.785 50.6351 112.385 51.4881 112.773 52.5817C113.161 53.6753 113.355 55.0814 113.355 56.7974C113.355 58.5147 113.149 59.9195 112.738 61.0132C112.327 62.1068 111.708 62.9597 110.886 63.5708C110.063 64.1819 109.022 64.6002 107.764 64.8232C106.505 65.0462 105.03 65.1583 103.336 65.1583Z" fill="#231F20"/>
<path d="M115.715 64.9112V50.4826C115.715 49.7304 115.809 49.2415 116 49.0185C116.189 48.7955 116.662 48.6834 117.421 48.6834H121.824L130.563 60.1134L130.742 60.6779V48.6834H134.222C134.199 48.7313 134.174 48.8598 134.151 49.0714C134.127 49.2831 134.116 49.5187 134.116 49.777V50.4473V63.3237C134.116 64.0532 133.985 64.5005 133.724 64.6643C133.463 64.8293 132.956 64.9112 132.197 64.9112H128.148L119.267 53.2695L119.125 52.6698V64.9112H115.715Z" fill="#231F20"/>
<path d="M136.903 61.5597C137.491 61.8419 138.239 62.0486 139.148 62.1771C140.056 62.3068 141.001 62.3887 141.981 62.424C142.963 62.4593 143.835 62.4769 144.596 62.4769H145.609C146.012 62.4769 146.349 62.4656 146.62 62.4416C147.405 62.419 148.081 62.3308 148.645 62.1771C149.21 62.0246 149.639 61.7714 149.933 61.4186C150.228 61.0658 150.375 60.5719 150.375 59.9369C150.375 59.1608 150.154 58.6493 149.712 58.4023C149.27 58.1554 148.595 58.0319 147.688 58.0319H146.676H145.331H143.418C142.657 58.0319 141.896 57.9966 141.135 57.9261C140.375 57.8555 139.682 57.6917 139.056 57.4322C138.431 57.1739 137.933 56.7569 137.565 56.1798C137.197 55.604 137.013 54.7989 137.013 53.7633C137.013 52.5411 137.234 51.5823 137.675 50.8881C138.117 50.1952 138.743 49.6773 139.553 49.3359C140.362 48.9957 141.32 48.7777 142.424 48.6833C143.529 48.59 144.73 48.5421 146.031 48.5421C146.816 48.5421 147.675 48.5547 148.607 48.5774C149.541 48.6014 150.418 48.648 151.239 48.7185C152.062 48.7891 152.693 48.8949 153.135 49.036C153.822 49.0839 154.35 49.2653 154.718 49.5828C155.086 49.9003 155.27 50.2947 155.27 50.7647V51.1527V51.7172V52.0347C155.073 51.8469 154.712 51.6945 154.185 51.576C153.656 51.4589 153.055 51.3707 152.381 51.3115C151.705 51.2535 151.038 51.2119 150.375 51.188C149.712 51.1653 149.148 51.1527 148.682 51.1527H145.774C145.013 51.1527 144.356 51.2119 143.804 51.3291C143.253 51.4475 142.822 51.6642 142.516 51.9817C142.208 52.2992 142.056 52.7755 142.056 53.4105C142.056 53.9044 142.16 54.2874 142.368 54.557C142.577 54.8279 142.883 55.0106 143.289 55.1038C143.694 55.1983 144.203 55.245 144.816 55.245H148.037H149.823C150.976 55.245 151.981 55.3394 152.841 55.5272C153.699 55.7162 154.369 56.1269 154.846 56.7619C155.325 57.3969 155.565 58.3847 155.565 59.7252C155.565 60.9953 155.289 62.007 154.737 62.7592C154.185 63.5126 153.429 64.0531 152.473 64.3819C151.515 64.712 150.399 64.9111 149.123 64.9817C148.166 65.0522 147.245 65.0875 146.362 65.0875H143.565C142.731 65.0636 141.915 65.0283 141.117 64.9817C140.319 64.935 139.608 64.8405 138.983 64.6994C138.357 64.5583 137.854 64.3643 137.473 64.1174C137.092 63.8704 136.903 63.5353 136.903 63.1119V61.5597Z" fill="#231F20"/>
<path d="M178.248 57.256C178.248 58.5033 178.173 59.6082 178.025 60.5721C177.876 61.5372 177.505 62.3486 176.911 63.0063C176.316 63.6652 175.369 64.1591 174.07 64.4879C172.769 64.818 170.968 64.9818 168.666 64.9818C166.807 64.9818 165.278 64.876 164.078 64.6643C162.876 64.4527 161.948 64.1352 161.293 63.7118C160.635 63.2885 160.165 62.777 159.88 62.1772C159.596 61.5775 159.422 60.8896 159.361 60.1135C159.298 59.3374 159.268 58.4907 159.268 57.5735V50.8707C159.268 50.2596 159.286 49.7947 159.323 49.4772C159.361 49.1597 159.515 48.948 159.787 48.8422C160.061 48.7363 160.505 48.6834 161.125 48.6834H164.208V58.7376C164.208 59.7494 164.362 60.5141 164.672 61.0307C164.982 61.5485 165.464 61.9013 166.121 62.089C166.776 62.278 167.625 62.3713 168.666 62.3713C170.324 62.3713 171.506 62.1016 172.213 61.5599C172.918 61.0194 173.271 60.0908 173.271 58.7729V48.6834H176.316C176.96 48.6834 177.417 48.7363 177.691 48.8422C177.963 48.948 178.124 49.1597 178.173 49.4772C178.222 49.7947 178.248 50.2596 178.248 50.8707V57.256Z" fill="#231F20"/>
<path d="M186.573 48.6838V62.4069H197.121V64.9117H181.881V50.3419C181.881 49.9664 181.904 49.654 181.952 49.407C181.998 49.1601 182.128 48.9774 182.34 48.8602C182.551 48.7431 182.927 48.6838 183.469 48.6838H186.573Z" fill="#231F20"/>
<path d="M196.557 48.6838H214.831V51.2238H208.058V63.2536C208.058 63.9126 207.963 64.3535 207.775 64.5765C207.586 64.8008 207.152 64.9117 206.47 64.9117H203.33V51.2238H196.557V48.6838Z" fill="#231F20"/>
<path d="M57.8819 34.2158V44.0899L49.1481 41.4944V35.3485C47.5745 35.1797 45.9593 35.0348 44.3037 34.9226C42.5524 34.8105 40.9372 34.7223 39.4517 34.6581C37.965 34.6014 36.8084 34.5699 35.9806 34.5699C32.3004 34.5699 29.3761 34.9705 27.2078 35.7744C25.0457 36.5694 23.4872 38.0397 22.5398 40.1778C21.5835 42.3146 21.1097 45.3989 21.1097 49.4408C21.1097 53.2407 21.5432 56.1889 22.4024 58.2943C23.263 60.4072 24.6766 61.8699 26.6295 62.7053C28.5887 63.533 31.1765 63.9501 34.3818 63.9501C37.3464 63.9501 39.6924 63.6855 41.4122 63.1475C43.1307 62.6171 44.3768 61.6684 45.1479 60.3026C45.9189 58.9368 46.3372 57.0646 46.4015 54.6871V52.0198L30.6373 47.1994C30.6373 45.5363 30.7419 44.2587 30.951 43.3667C31.1602 42.4835 31.6667 41.8409 32.4617 41.4541C32.8069 41.2941 33.2327 41.1568 33.7468 41.0686C35.105 40.8204 36.5035 40.9564 37.829 41.3508L57.8819 47.3039V54.5107C57.8819 57.4186 57.5279 59.8856 56.8135 61.9014C56.0979 63.9186 54.8531 65.5414 53.0779 66.7547C51.2938 67.968 48.8117 68.8588 45.638 69.4219C42.4642 69.9927 38.4715 70.2737 33.6674 70.2737C29.1518 70.2737 25.3431 69.9763 22.226 69.3816C19.109 68.7869 16.5538 67.7021 14.5695 66.1272C12.5775 64.5611 11.1387 62.4243 10.2555 59.7243C9.36345 57.0167 8.91365 53.5947 8.91365 49.4408C8.91365 44.8698 9.50834 41.1895 10.6964 38.4013C11.8858 35.6055 13.5729 33.4851 15.7752 32.0311C17.9675 30.5759 20.6108 29.5957 23.6964 29.098C26.7819 28.5915 30.2518 28.3345 34.1084 28.3345C37.9083 28.3345 41.3391 28.4151 44.3919 28.56C47.4535 28.7125 49.8323 28.9934 51.5596 29.3147C52.9808 29.5806 55.5599 30.111 56.3549 30.5923C57.0945 31.0421 57.4397 31.6053 57.6174 32.2554C57.7938 32.9068 57.8819 33.5644 57.8819 34.2158Z" fill="#505050"/>
<path d="M64.0672 13.8088C62.7443 16.3286 60.9426 18.5461 59.4811 20.9904C58.3598 22.8551 57.44 24.9213 57.188 27.0506C56.3691 26.723 54.9202 26.3073 52.2113 25.8033C50.1199 25.4127 47.5496 25.1355 44.5636 24.9969C41.3508 24.8457 37.8356 24.7575 34.1062 24.7575C30.087 24.7575 26.3954 25.0347 23.1322 25.5765C19.554 26.1435 16.4168 27.3152 13.8088 29.0539C11.0244 30.8808 8.86987 33.5644 7.40836 37.004C6.02244 40.2672 5.34208 44.3368 5.34208 49.4395C5.34208 54.0004 5.83345 57.7298 6.86659 60.8292C7.16897 61.7616 7.52175 62.6309 7.95013 63.4625C3.88057 59.9737 1.3645 54.9013 0.541767 49.6449C-0.328842 44.0785 -0.260807 38.2413 1.56609 32.8526C2.03604 31.4667 2.6093 30.116 3.28336 28.817C6.23033 23.1335 11.0886 18.4642 16.883 15.744C27.5621 10.7295 39.9598 11.7853 51.1782 8.76908C56.8479 7.24457 62.3789 4.51053 66.0831 -3.8147e-06C66.9903 4.64912 66.2721 9.61323 64.0672 13.8088Z" fill="#A91D21"/>
</svg>
