<svg width="440" height="146" viewBox="0 0 440 146" fill="none" xmlns="http://www.w3.org/2000/svg">
<path d="M140.845 143.073C140.186 143.073 139.712 142.926 139.426 142.632C139.139 142.336 138.995 141.812 138.995 141.049V132.834C138.995 132.661 139.01 132.521 139.038 132.413C139.067 132.307 139.127 132.23 139.221 132.187C139.315 132.143 139.447 132.124 139.621 132.124H140.523C140.523 132.136 140.516 132.23 140.501 132.403C140.487 132.574 140.479 132.79 140.479 133.048V140.814C140.479 141.36 140.54 141.752 140.662 141.997C140.785 142.24 141.026 142.363 141.384 142.363C141.483 142.363 141.62 142.348 141.791 142.32C141.964 142.291 142.079 142.269 142.137 142.255V142.921C142.05 142.935 141.911 142.964 141.716 143.008C141.524 143.051 141.232 143.073 140.845 143.073Z" fill="white"/>
<path d="M150.009 142.404C150.668 142.404 151.195 142.383 151.589 142.339C151.984 142.296 152.285 142.241 152.494 142.169C152.701 142.096 152.833 142.003 152.891 141.89V138.683C152.763 138.642 152.523 138.599 152.172 138.555C151.82 138.512 151.45 138.471 151.065 138.437C150.675 138.401 150.346 138.382 150.074 138.382C149.458 138.382 148.958 138.418 148.58 138.49C148.2 138.562 147.926 138.741 147.762 139.029C147.596 139.313 147.514 139.758 147.514 140.362C147.514 140.836 147.572 141.223 147.687 141.524C147.8 141.825 148.034 142.046 148.385 142.19C148.736 142.332 149.278 142.404 150.009 142.404ZM150.009 143.136C149.162 143.136 148.474 143.092 147.945 143.006C147.413 142.922 147.009 142.775 146.728 142.566C146.448 142.359 146.256 142.082 146.148 141.738C146.042 141.394 145.987 140.971 145.987 140.468C145.987 139.739 146.073 139.178 146.244 138.791C146.417 138.404 146.718 138.139 147.149 137.995C147.579 137.853 148.152 137.781 148.869 137.781C149.227 137.781 149.617 137.79 150.043 137.812C150.464 137.834 150.873 137.855 151.267 137.877C151.662 137.899 152.006 137.923 152.299 137.951C152.595 137.98 152.792 138.016 152.891 138.06C152.891 137.401 152.833 136.876 152.72 136.489C152.605 136.101 152.429 135.815 152.193 135.628C151.955 135.442 151.662 135.32 151.31 135.264C150.959 135.207 150.555 135.178 150.096 135.178C149.622 135.178 149.145 135.194 148.664 135.231C148.185 135.267 147.743 135.324 147.343 135.404C146.942 135.481 146.634 135.584 146.417 135.714V135.392C146.417 135.091 146.506 134.879 146.687 134.759C146.865 134.636 147.069 134.555 147.3 134.511C147.572 134.439 147.969 134.381 148.493 134.338C149.015 134.295 149.564 134.28 150.139 134.295C150.87 134.295 151.498 134.331 152.02 134.403C152.545 134.475 152.978 134.629 153.322 134.865C153.666 135.103 153.925 135.457 154.096 135.931C154.269 136.405 154.356 137.049 154.356 137.865V142.296C154.269 142.585 153.889 142.797 153.216 142.931C152.54 143.068 151.472 143.136 150.009 143.136Z" fill="white"/>
<path d="M162.528 143.05C161.782 143.05 161.169 142.99 160.687 142.867C160.209 142.745 159.853 142.487 159.624 142.093C159.393 141.698 159.28 141.099 159.28 140.298V135.2C159.28 134.883 159.316 134.671 159.388 134.565C159.46 134.457 159.624 134.404 159.881 134.404H160.786V140.36C160.786 141.092 160.94 141.573 161.248 141.801C161.556 142.032 162.047 142.148 162.723 142.148C163.425 142.148 163.93 142.025 164.238 141.782C164.546 141.537 164.7 141.171 164.7 140.685L164.678 134.404H166.206V140.704C166.206 141.178 166.36 141.537 166.668 141.782C166.978 142.025 167.484 142.148 168.186 142.148C168.86 142.148 169.35 142.032 169.658 141.801C169.969 141.573 170.123 141.092 170.123 140.36V134.404H170.981C171.27 134.404 171.443 134.454 171.508 134.553C171.573 134.654 171.607 134.868 171.607 135.2V140.298C171.607 141.087 171.491 141.679 171.263 142.071C171.032 142.465 170.678 142.728 170.197 142.855C169.716 142.985 169.088 143.05 168.313 143.05C167.51 143.05 166.841 142.925 166.302 142.675C165.766 142.425 165.439 141.96 165.323 141.287H165.583C165.496 141.732 165.328 142.085 165.078 142.35C164.825 142.617 164.488 142.8 164.065 142.898C163.644 143 163.129 143.05 162.528 143.05Z" fill="white"/>
<path d="M187.159 137.802C186.928 137.874 186.752 138.028 186.632 138.264C186.509 138.502 186.422 138.762 186.374 139.05C186.324 139.337 186.297 139.572 186.297 139.76C186.297 140.604 186.408 141.194 186.632 141.523C186.853 141.853 187.195 142.069 187.652 142.168C187.926 142.226 188.244 142.267 188.609 142.286C188.975 142.308 189.348 142.308 189.728 142.286C190.108 142.267 190.435 142.219 190.707 142.146C190.892 142.103 191.073 142.05 191.246 141.985C191.417 141.92 191.568 141.829 191.698 141.706C191.826 141.583 191.912 141.415 191.956 141.201C191.152 140.626 190.349 140.056 189.548 139.49C188.742 138.925 187.945 138.36 187.159 137.802ZM195.182 143.094C194.965 142.993 194.705 142.842 194.397 142.642C194.089 142.44 193.741 142.204 193.353 141.932C193.209 142.233 193 142.459 192.718 142.608C192.439 142.76 192.1 142.871 191.698 142.943C191.195 143.029 190.632 143.087 190.009 143.116C189.384 143.142 188.77 143.142 188.169 143.116C187.568 143.087 187.043 143.044 186.598 142.986C186.153 142.914 185.778 142.782 185.47 142.587C185.159 142.394 184.931 142.086 184.782 141.663C184.63 141.239 184.556 140.648 184.556 139.887C184.556 139.474 184.609 139.067 184.717 138.673C184.825 138.278 184.986 137.941 185.2 137.662C185.417 137.381 185.689 137.212 186.018 137.157C185.732 136.984 185.508 136.758 185.352 136.479C185.193 136.199 185.116 135.795 185.116 135.264C185.116 134.775 185.21 134.386 185.405 134.09C185.597 133.799 185.85 133.577 186.158 133.435C186.466 133.291 186.81 133.195 187.19 133.144C187.57 133.094 187.945 133.062 188.321 133.048C188.665 133.019 189.03 133.005 189.418 133.005C189.805 133.005 190.187 133.014 190.568 133.036C190.948 133.058 191.287 133.084 191.59 133.113C191.905 133.139 192.191 133.183 192.451 133.24C192.709 133.298 192.916 133.409 193.074 133.575C193.231 133.738 193.31 134.001 193.31 134.359C193.096 134.217 192.778 134.114 192.365 134.049C191.948 133.984 191.518 133.936 191.073 133.909C190.628 133.88 190.257 133.866 189.954 133.866C189.653 133.866 189.317 133.876 188.944 133.897C188.571 133.919 188.212 133.984 187.868 134.09C187.524 134.198 187.238 134.364 187.007 134.585C186.779 134.809 186.663 135.127 186.663 135.543C186.663 135.901 186.767 136.216 186.976 136.491C187.183 136.762 187.488 137.041 187.89 137.328L191.977 140.275V137.287C192.292 137.287 192.562 137.304 192.783 137.34C193.005 137.373 193.183 137.443 193.31 137.544C193.44 137.645 193.517 137.794 193.548 137.997C193.56 138.309 193.572 138.663 193.579 139.05C193.587 139.438 193.587 139.808 193.579 140.166C193.572 140.527 193.56 140.835 193.548 141.093L195.182 142.146V143.094Z" fill="white"/>
<path d="M211.702 142.404C212.361 142.404 212.888 142.383 213.282 142.339C213.677 142.296 213.978 142.241 214.187 142.169C214.394 142.096 214.526 142.003 214.584 141.89V138.683C214.456 138.642 214.216 138.599 213.865 138.555C213.513 138.512 213.143 138.471 212.758 138.437C212.368 138.401 212.039 138.382 211.767 138.382C211.151 138.382 210.65 138.418 210.273 138.49C209.893 138.562 209.618 138.741 209.455 139.029C209.289 139.313 209.207 139.758 209.207 140.362C209.207 140.836 209.265 141.223 209.38 141.524C209.493 141.825 209.727 142.046 210.078 142.19C210.429 142.332 210.97 142.404 211.702 142.404ZM211.702 143.136C210.855 143.136 210.167 143.092 209.638 143.006C209.106 142.922 208.702 142.775 208.42 142.566C208.141 142.359 207.949 142.082 207.841 141.738C207.735 141.394 207.679 140.971 207.679 140.468C207.679 139.739 207.766 139.178 207.937 138.791C208.11 138.404 208.411 138.139 208.841 137.995C209.272 137.853 209.845 137.781 210.561 137.781C210.92 137.781 211.31 137.79 211.735 137.812C212.156 137.834 212.565 137.855 212.96 137.877C213.355 137.899 213.699 137.923 213.992 137.951C214.288 137.98 214.485 138.016 214.584 138.06C214.584 137.401 214.526 136.876 214.413 136.489C214.298 136.101 214.122 135.815 213.886 135.628C213.648 135.442 213.355 135.32 213.003 135.264C212.652 135.207 212.248 135.178 211.788 135.178C211.314 135.178 210.838 135.194 210.357 135.231C209.878 135.267 209.436 135.324 209.034 135.404C208.635 135.481 208.327 135.584 208.11 135.714V135.392C208.11 135.091 208.199 134.879 208.38 134.759C208.558 134.636 208.762 134.555 208.993 134.511C209.265 134.439 209.662 134.381 210.186 134.338C210.708 134.295 211.257 134.28 211.832 134.295C212.563 134.295 213.191 134.331 213.713 134.403C214.237 134.475 214.67 134.629 215.014 134.865C215.358 135.103 215.618 135.457 215.789 135.931C215.962 136.405 216.049 137.049 216.049 137.865V142.296C215.962 142.585 215.582 142.797 214.909 142.931C214.233 143.068 213.164 143.136 211.702 143.136Z" fill="white"/>
<path d="M224.78 142.169C225.425 142.169 225.939 142.13 226.317 142.051C226.7 141.972 226.988 141.813 227.19 141.577C227.39 141.341 227.52 141.007 227.578 140.576C227.635 140.146 227.662 139.58 227.662 138.875V135.392C227.506 135.377 227.279 135.363 226.986 135.349C226.692 135.337 226.387 135.32 226.072 135.308C225.757 135.293 225.475 135.284 225.232 135.284C224.544 135.284 223.986 135.375 223.555 135.553C223.125 135.734 222.812 136.07 222.62 136.563C222.425 137.059 222.328 137.774 222.328 138.705C222.328 139.696 222.403 140.437 222.555 140.932C222.704 141.425 222.959 141.755 223.317 141.921C223.676 142.087 224.164 142.169 224.78 142.169ZM220.823 138.642C220.823 137.478 220.976 136.59 221.284 135.972C221.592 135.356 222.04 134.932 222.629 134.704C223.216 134.475 223.933 134.36 224.78 134.36C225.023 134.36 225.314 134.367 225.651 134.381C225.99 134.396 226.329 134.42 226.673 134.456C227.017 134.492 227.318 134.531 227.578 134.574C227.835 134.617 228.013 134.661 228.114 134.704L227.662 134.918V132.123H229.146L229.127 138.661C229.127 139.638 229.06 140.415 228.932 140.995C228.802 141.577 228.583 142.012 228.275 142.296C227.967 142.585 227.537 142.777 226.986 142.878C226.433 142.98 225.742 143.03 224.91 143.03C224.135 143.03 223.483 142.98 222.952 142.878C222.422 142.777 222.001 142.578 221.693 142.277C221.385 141.974 221.164 141.538 221.027 140.964C220.89 140.391 220.823 139.616 220.823 138.642Z" fill="white"/>
<path d="M236.956 142.986C236.713 142.986 236.503 142.952 236.33 142.89C236.159 142.825 236.013 142.714 235.89 142.555C235.77 142.396 235.659 142.182 235.558 141.91L233.02 134.402H234.589L236.482 140.556C236.597 140.912 236.73 141.153 236.879 141.275C237.03 141.398 237.307 141.458 237.709 141.458C238.053 140.354 238.378 139.25 238.688 138.146C238.996 137.041 239.313 135.944 239.645 134.855C239.689 134.71 239.751 134.6 239.838 134.52C239.924 134.443 240.059 134.402 240.247 134.402H240.829L238.053 142.986H236.956Z" fill="white"/>
<path d="M246.829 143.073C246.156 143.073 245.703 142.892 245.475 142.534C245.246 142.175 245.131 141.653 245.131 140.963V134.405H246.637V140.879C246.637 141.465 246.702 141.86 246.829 142.06C246.959 142.262 247.188 142.363 247.517 142.363C247.633 142.363 247.775 142.348 247.948 142.32C248.121 142.291 248.229 142.269 248.27 142.255V142.921C248.229 142.935 248.145 142.955 248.022 142.976C247.902 142.996 247.743 143.02 247.551 143.039C247.356 143.063 247.115 143.073 246.829 143.073ZM245.905 133.156C245.66 133.156 245.468 133.12 245.323 133.048C245.181 132.976 245.109 132.827 245.109 132.596C245.109 132.367 245.176 132.216 245.314 132.143C245.451 132.074 245.638 132.038 245.884 132.038C246.156 132.038 246.358 132.074 246.485 132.143C246.615 132.216 246.673 132.367 246.658 132.596C246.658 132.827 246.593 132.976 246.464 133.048C246.336 133.12 246.148 133.156 245.905 133.156Z" fill="white"/>
<path d="M255.476 143.073C255.233 143.073 254.927 143.065 254.562 143.051C254.196 143.036 253.823 143.003 253.443 142.955C253.063 142.904 252.724 142.83 252.421 142.728C252.279 142.671 252.163 142.613 252.077 142.555C251.99 142.498 251.93 142.399 251.894 142.255C251.86 142.113 251.841 141.896 251.841 141.61C252.156 141.769 252.529 141.894 252.959 141.985C253.39 142.079 253.821 142.139 254.251 142.17C254.68 142.197 255.038 142.211 255.324 142.211C255.755 142.211 256.176 142.194 256.585 142.158C256.994 142.122 257.362 142.043 257.692 141.923C258.021 141.8 258.283 141.617 258.478 141.374C258.671 141.129 258.767 140.806 258.767 140.405C258.767 139.815 258.615 139.44 258.315 139.274C258.014 139.11 257.605 139.029 257.09 139.029H254.918C254.386 139.029 253.888 138.995 253.421 138.932C252.957 138.867 252.575 138.687 252.281 138.393C251.988 138.1 251.841 137.602 251.841 136.899C251.841 136.139 252.026 135.572 252.401 135.199C252.772 134.826 253.301 134.583 253.982 134.467C254.663 134.354 255.454 134.294 256.359 134.294C256.688 134.294 257.083 134.304 257.542 134.318C257.999 134.33 258.437 134.373 258.853 134.446C259.14 134.489 259.38 134.542 259.575 134.607C259.768 134.672 259.91 134.761 260.003 134.876C260.097 134.992 260.143 135.155 260.143 135.372V135.802C260.015 135.658 259.799 135.543 259.498 135.458C259.197 135.372 258.849 135.307 258.457 135.264C258.062 135.22 257.655 135.196 257.242 135.189C256.823 135.182 256.438 135.177 256.077 135.177C255.62 135.177 255.175 135.206 254.745 135.264C254.314 135.321 253.967 135.461 253.703 135.682C253.436 135.906 253.303 136.284 253.303 136.813C253.303 137.215 253.39 137.508 253.561 137.696C253.734 137.881 253.967 137.999 254.261 138.049C254.554 138.1 254.889 138.124 255.262 138.124H257.477C258.021 138.124 258.505 138.17 258.928 138.263C259.351 138.357 259.681 138.564 259.919 138.889C260.155 139.211 260.273 139.717 260.273 140.405C260.273 141.165 260.066 141.737 259.65 142.127C259.234 142.512 258.663 142.767 257.939 142.89C257.215 143.01 256.395 143.073 255.476 143.073Z" fill="white"/>
<path d="M268.835 142.276C269.41 142.276 269.901 142.19 270.31 142.019C270.717 141.846 271.029 141.509 271.246 141.006C271.46 140.506 271.568 139.738 271.568 138.706C271.568 137.672 271.46 136.907 271.246 136.404C271.029 135.901 270.717 135.564 270.31 135.393C269.901 135.22 269.41 135.134 268.835 135.134C268.263 135.134 267.772 135.22 267.363 135.393C266.954 135.564 266.639 135.901 266.415 136.404C266.194 136.907 266.083 137.672 266.083 138.706C266.083 139.738 266.194 140.506 266.415 141.006C266.639 141.509 266.954 141.846 267.363 142.019C267.772 142.19 268.263 142.276 268.835 142.276ZM268.835 143.116C268.176 143.116 267.584 143.063 267.062 142.964C266.538 142.866 266.086 142.663 265.706 142.36C265.325 142.06 265.034 141.617 264.835 141.028C264.635 140.441 264.534 139.666 264.534 138.706C264.534 137.744 264.635 136.969 264.835 136.382C265.034 135.795 265.325 135.35 265.706 135.049C266.086 134.746 266.538 134.547 267.062 134.446C267.584 134.347 268.176 134.294 268.835 134.294C269.48 134.294 270.065 134.347 270.589 134.446C271.111 134.547 271.561 134.746 271.934 135.049C272.307 135.35 272.593 135.795 272.795 136.382C272.995 136.969 273.096 137.744 273.096 138.706C273.096 139.68 272.995 140.462 272.795 141.049C272.593 141.639 272.307 142.079 271.934 142.372C271.561 142.668 271.111 142.866 270.589 142.964C270.065 143.063 269.48 143.116 268.835 143.116Z" fill="white"/>
<path d="M279.568 142.986H278.623C278.435 142.986 278.296 142.94 278.202 142.846C278.111 142.752 278.062 142.577 278.062 142.319V134.833C278.378 134.732 278.813 134.626 279.364 134.511C279.917 134.397 280.601 134.337 281.418 134.337C282.193 134.337 282.807 134.393 283.256 134.501C283.709 134.607 284.038 134.753 284.248 134.941C284.454 135.126 284.592 135.353 284.657 135.617C284.722 135.884 284.753 136.18 284.753 136.512H283.312L283.29 136.209C283.276 135.879 283.167 135.639 282.968 135.49C282.766 135.338 282.53 135.247 282.258 135.211C281.986 135.174 281.712 135.155 281.44 135.155C281.024 135.155 280.656 135.191 280.331 135.264C280.009 135.336 279.756 135.427 279.568 135.543V142.986Z" fill="white"/>
<path d="M292.863 145.374C292.218 145.374 291.609 145.34 291.034 145.277C290.462 145.212 289.995 145.116 289.637 144.986C289.278 144.859 289.1 144.714 289.1 144.556V144.019C289.329 144.147 289.632 144.255 290.012 144.341C290.392 144.428 290.798 144.495 291.229 144.546C291.657 144.594 292.074 144.621 292.475 144.621C293.163 144.621 293.726 144.527 294.164 144.341C294.602 144.154 294.931 143.853 295.153 143.437C295.377 143.021 295.487 142.499 295.487 141.868V140.706C295.357 140.993 295.15 141.236 294.864 141.438C294.578 141.637 294.222 141.782 293.798 141.868C293.375 141.953 292.884 141.996 292.326 141.996C291.306 141.996 290.558 141.852 290.077 141.565C289.598 141.279 289.288 140.87 289.153 140.341C289.016 139.809 288.948 139.193 288.948 138.491V135.241C288.948 135.027 288.958 134.858 288.98 134.735C289.001 134.615 289.052 134.529 289.131 134.478C289.211 134.428 289.343 134.403 289.528 134.403H290.474V135.467V136.458V137.437V138.491C290.474 139.306 290.587 139.91 290.808 140.297C291.029 140.685 291.333 140.928 291.713 141.029C292.093 141.13 292.511 141.178 292.971 141.178C293.43 141.178 293.844 141.118 294.219 140.995C294.59 140.875 294.893 140.634 295.122 140.276C295.35 139.917 295.466 139.379 295.466 138.662V134.403H296.392C296.606 134.403 296.76 134.435 296.854 134.5C296.945 134.565 296.993 134.748 296.993 135.048V141.695C296.993 142.973 296.661 143.904 295.992 144.491C295.326 145.08 294.282 145.374 292.863 145.374Z" fill="white"/>
<path d="M155.852 86.3552C152.438 86.3552 149.554 86.1291 147.196 85.6816C144.839 85.2342 142.907 84.4138 141.403 83.223C139.897 82.0346 138.81 80.4179 138.136 78.3731C137.463 76.3306 137.126 73.7373 137.126 70.593C137.126 67.136 137.573 64.3526 138.473 62.2404C139.371 60.1306 140.65 58.5259 142.313 57.4241C143.975 56.3247 145.972 55.5838 148.308 55.2013C150.641 54.8212 153.268 54.6287 156.189 54.6287C159.061 54.6287 161.657 54.684 163.969 54.7971C166.281 54.9102 168.087 55.1002 169.391 55.3697C170.469 55.5501 171.265 55.8412 171.783 56.2453C172.297 56.6495 172.625 57.0994 172.759 57.5925C172.894 58.0881 172.961 58.5813 172.961 59.0745V61.2973C172.692 60.9846 172.074 60.7151 171.109 60.489C170.142 60.2653 169.033 60.0849 167.775 59.9501C166.517 59.8154 165.225 59.7047 163.902 59.6133C162.576 59.5243 161.354 59.457 160.23 59.4113C159.107 59.3679 158.231 59.3439 157.603 59.3439C154.818 59.3439 152.607 59.647 150.968 60.2532C149.33 60.8595 148.149 61.9709 147.432 63.5876C146.713 65.2042 146.354 67.5402 146.354 70.593C146.354 73.4678 146.679 75.7027 147.331 77.2953C147.983 78.8903 149.049 80.0017 150.531 80.6296C152.013 81.2599 153.966 81.5727 156.391 81.5727C158.635 81.5727 160.411 81.3706 161.712 80.9664C163.014 80.5623 163.957 79.843 164.541 78.8109C165.124 77.7789 165.439 76.3643 165.485 74.5672V73.3211V72.5464H153.562C153.562 71.2907 153.641 70.3236 153.798 69.65C153.954 68.9764 154.336 68.4952 154.943 68.2017C155.549 67.9106 156.504 67.7639 157.805 67.7639H174.174V74.4325C174.174 76.6337 173.905 78.4982 173.366 80.0234C172.827 81.551 171.884 82.7755 170.537 83.6945C169.189 84.6159 167.313 85.2895 164.912 85.7153C162.509 86.1411 159.489 86.3552 155.852 86.3552Z" fill="white"/>
<path d="M214.656 71.3331C214.656 73.7148 214.521 75.8246 214.251 77.665C213.982 79.5077 213.308 81.057 212.231 82.3128C211.153 83.571 209.435 84.514 207.078 85.1419C204.72 85.7722 201.453 86.085 197.277 86.085C193.909 86.085 191.135 85.8829 188.958 85.4787C186.781 85.0746 185.094 84.4683 183.906 83.66C182.715 82.8517 181.863 81.875 181.346 80.7298C180.829 79.5847 180.516 78.2712 180.403 76.7893C180.29 75.3074 180.235 73.6907 180.235 71.9394V59.141C180.235 57.9742 180.268 57.0865 180.336 56.4803C180.403 55.874 180.682 55.4699 181.178 55.2678C181.673 55.0657 182.479 54.9647 183.603 54.9647H189.193V74.1623C189.193 76.094 189.475 77.5543 190.035 78.5406C190.598 79.5294 191.472 80.203 192.663 80.5614C193.853 80.9223 195.391 81.1003 197.277 81.1003C200.284 81.1003 202.43 80.5855 203.71 79.551C204.989 78.519 205.629 76.746 205.629 74.2296V54.9647H211.153C212.32 54.9647 213.152 55.0657 213.645 55.2678C214.138 55.4699 214.432 55.874 214.521 56.4803C214.61 57.0865 214.656 57.9742 214.656 59.141V71.3331Z" fill="white"/>
<path d="M230.082 74.9046H241.938L238.031 63.9923C237.896 63.5425 237.704 63.1263 237.458 62.7462C237.211 62.3661 236.751 62.1736 236.077 62.1736C235.312 62.1736 234.807 62.3661 234.562 62.7462C234.314 63.1263 234.1 63.5425 233.922 63.9923L230.082 74.9046ZM218.968 85.9517L229.072 59.9507C229.7 58.2884 230.621 56.9989 231.834 56.0775C233.046 55.1585 235 54.6967 237.694 54.6967C239.939 54.6967 241.712 55.1225 243.016 55.9765C244.317 56.8305 245.327 58.1561 246.047 59.9507L256.285 85.9517H246.518L243.622 78.4747H228.6L225.906 85.9517H218.968Z" fill="white"/>
<path d="M270.362 70.2563C270.901 70.2563 271.743 70.2683 272.888 70.29C274.033 70.3116 275.267 70.3357 276.592 70.3573C277.918 70.3814 279.152 70.391 280.297 70.391H282.756C283.968 70.391 285.046 69.9989 285.989 69.2122C286.932 68.428 287.404 66.9797 287.404 64.8675C287.404 63.3856 287.134 62.2188 286.595 61.3648C286.057 60.5132 285.203 60.0176 284.036 59.8829C283.271 59.7939 282.306 59.7361 281.139 59.7145C279.973 59.6928 278.758 59.6808 277.502 59.6808C276.244 59.6808 275.087 59.6928 274.033 59.7145C272.977 59.7361 272.18 59.7722 271.642 59.8155C271.553 59.8155 271.314 59.8829 270.934 60.0176C270.552 60.1523 270.362 60.5132 270.362 61.0954V70.2563ZM281.005 74.7021C278.984 74.7021 277.165 74.7141 275.548 74.7357C273.932 74.7598 272.202 74.7694 270.362 74.7694V85.9512H261.403V58.8725C261.403 57.571 261.684 56.5943 262.245 55.9423C262.805 55.2928 263.895 54.9656 265.512 54.9656C266.185 54.9656 267.162 54.956 268.442 54.9319C269.722 54.9103 271.158 54.8982 272.753 54.8982C274.346 54.8982 276.008 54.8862 277.738 54.8646C279.465 54.8429 281.115 54.8429 282.689 54.8646C284.259 54.8862 285.64 54.9103 286.831 54.9319C288.02 54.956 288.907 54.9873 289.492 55.033C291.871 55.2591 293.644 56.0097 294.813 57.2895C295.98 58.5694 296.565 60.5565 296.565 63.2509C296.565 65.5868 296.339 67.3502 295.891 68.5386C295.441 69.7295 294.746 70.6148 293.803 71.1993C293.577 71.3798 293.23 71.5361 292.759 71.6709C292.287 71.8056 291.782 71.8729 291.243 71.8729V72.075H292.119H292.927C294.633 72.3902 295.667 73.0517 296.026 74.0621C296.384 75.0725 296.565 76.1166 296.565 77.1944V83.7957C296.565 84.4693 296.632 84.9865 296.767 85.3449C296.902 85.7034 296.991 85.9055 297.036 85.9512H290.435C289.446 85.9512 288.684 85.7924 288.145 85.4797C287.606 85.1669 287.336 84.4693 287.336 83.3915V78.0701C287.336 76.6772 287.033 75.7702 286.427 75.342C285.821 74.9162 284.753 74.7021 283.227 74.7021H281.005Z" fill="white"/>
<path d="M313.067 81.3031H314.717C315.412 81.3031 316.153 81.3151 316.94 81.3368C317.727 81.3609 318.499 81.3705 319.264 81.3705H321.15C322.99 81.3705 324.552 81.2358 325.831 80.9663C327.111 80.6969 328.131 80.17 328.896 79.3834C329.659 78.5991 330.22 77.4973 330.58 76.0827C330.939 74.6682 331.119 72.8615 331.119 70.6602C331.119 67.5617 330.804 65.2161 330.176 63.6211C329.548 62.0286 328.514 60.9508 327.078 60.3879C325.641 59.8273 323.642 59.5459 321.083 59.5459H318.792C317.849 59.5459 316.928 59.5579 316.031 59.5795C315.131 59.6036 314.368 59.6373 313.74 59.6806C313.56 59.9067 313.404 60.1641 313.269 60.4552C313.134 60.7487 313.067 61.2299 313.067 61.9035V81.3031ZM340.348 70.5929C340.348 74.0523 339.965 76.8141 339.202 78.8782C338.437 80.9447 337.292 82.4819 335.767 83.4923C334.239 84.5027 332.32 85.1763 330.008 85.5131C327.696 85.8499 324.989 86.0183 321.891 86.0183H316.671C314.987 86.0183 313.38 86.0063 311.854 85.9846C310.327 85.963 308.902 85.951 307.577 85.951H304.108V59.3438C304.108 57.8186 304.377 56.7167 304.916 56.0431C305.455 55.3695 306.555 55.0111 308.217 54.9654C309.249 54.9654 310.416 54.9558 311.72 54.9317C313.021 54.9101 314.359 54.898 315.727 54.898H319.836H323.508C326.426 54.9437 328.952 55.1675 331.086 55.5716C333.217 55.9758 334.968 56.7167 336.34 57.7945C337.708 58.8723 338.719 60.4336 339.371 62.476C340.023 64.5209 340.348 67.2249 340.348 70.5929Z" fill="white"/>
<path d="M347.285 85.9507V71.9735V57.9963C347.285 57.3227 347.33 56.7622 347.419 56.3123C347.508 55.8649 347.766 55.5281 348.194 55.3019C348.62 55.0782 349.327 54.9651 350.316 54.9651H356.244V85.9507H347.285Z" fill="white"/>
<path d="M372.411 74.9046H384.266L380.359 63.9923C380.224 63.5425 380.032 63.1263 379.786 62.7462C379.539 62.3661 379.079 62.1736 378.406 62.1736C377.641 62.1736 377.135 62.3661 376.89 62.7462C376.642 63.1263 376.428 63.5425 376.25 63.9923L372.411 74.9046ZM361.296 85.9517L371.4 59.9507C372.028 58.2884 372.949 56.9989 374.162 56.0775C375.374 55.1585 377.328 54.6967 380.022 54.6967C382.267 54.6967 384.04 55.1225 385.344 55.9765C386.645 56.8305 387.656 58.1561 388.375 59.9507L398.614 85.9517H388.846L385.95 78.4747H370.929L368.234 85.9517H361.296Z" fill="white"/>
<path d="M404.069 85.9507V58.4005C404.069 56.9643 404.247 56.0308 404.608 55.605C404.966 55.1792 405.866 54.9651 407.302 54.9651H415.655L432.225 76.7897L432.562 77.8675V54.9651H439.163C439.118 55.0565 439.072 55.3019 439.029 55.7061C438.983 56.1102 438.961 56.5601 438.961 57.0533V58.3331V82.9195C438.961 84.3124 438.714 85.1664 438.22 85.4792C437.725 85.7943 436.76 85.9507 435.324 85.9507H427.645L410.805 63.7219L410.535 62.5768V85.9507H404.069Z" fill="white"/>
<path d="M137.125 108.949C137.125 105.805 137.496 103.202 138.242 101.136C138.983 99.0716 140.219 97.455 141.944 96.2858C143.674 95.1191 145.95 94.2987 148.779 93.8272C151.608 93.3557 155.087 93.1199 159.21 93.1199C161.082 93.1199 162.855 93.1752 164.534 93.2883C166.213 93.4014 167.962 93.5914 169.785 93.8609C171.607 94.087 172.795 94.4791 173.346 95.0397C173.897 95.6026 174.173 96.3989 174.173 97.4309V100.193C172.927 99.7428 171.429 99.3748 169.677 99.0813C167.926 98.7902 166.153 98.5664 164.353 98.4077C162.556 98.2513 160.961 98.1719 159.571 98.1719C156.549 98.1719 154.103 98.4413 152.233 98.9802C150.362 99.5191 149.019 100.575 148.204 102.146C147.388 103.719 146.982 106.007 146.982 109.017C146.982 111.937 147.388 114.17 148.204 115.719C149.019 117.268 150.41 118.334 152.375 118.919C154.343 119.503 156.98 119.794 160.29 119.794C161.584 119.794 163.011 119.727 164.57 119.592C166.129 119.458 167.712 119.246 169.319 118.952C170.923 118.661 172.542 118.334 174.173 117.976V120.603C174.173 121.502 173.873 122.253 173.276 122.859C172.675 123.466 171.441 123.882 169.571 124.105C167.844 124.375 166.093 124.565 164.317 124.678C162.544 124.789 160.721 124.846 158.851 124.846C154.678 124.846 151.189 124.611 148.384 124.139C145.579 123.668 143.349 122.847 141.694 121.681C140.039 120.514 138.865 118.897 138.17 116.831C137.472 114.764 137.125 112.139 137.125 108.949Z" fill="white"/>
<path d="M197.445 120.131C199.062 120.131 200.489 119.984 201.723 119.693C202.959 119.402 203.979 118.851 204.788 118.043C205.596 117.235 206.202 116.101 206.606 114.641C207.011 113.183 207.213 111.285 207.213 108.949C207.213 106.57 207.011 104.65 206.606 103.19C206.202 101.732 205.596 100.597 204.788 99.7883C203.979 98.98 202.959 98.4291 201.723 98.138C200.489 97.8469 199.062 97.7002 197.445 97.7002C195.786 97.7002 194.337 97.8469 193.101 98.138C191.867 98.4291 190.856 98.98 190.07 99.7883C189.283 100.597 188.689 101.732 188.284 103.19C187.88 104.65 187.678 106.57 187.678 108.949C187.678 111.285 187.88 113.183 188.284 114.641C188.689 116.101 189.283 117.235 190.07 118.043C190.856 118.851 191.867 119.402 193.101 119.693C194.337 119.984 195.786 120.131 197.445 120.131ZM197.311 124.914C194.034 124.914 191.215 124.69 188.857 124.24C186.499 123.79 184.546 122.984 182.997 121.815C181.447 120.648 180.302 119.02 179.561 116.931C178.82 114.843 178.45 112.183 178.45 108.949C178.45 105.627 178.844 102.921 179.629 100.832C180.413 98.7442 181.606 97.1276 183.199 95.9825C184.794 94.8374 186.791 94.0411 189.194 93.5912C191.595 93.1437 194.414 92.9176 197.648 92.9176C200.881 92.9176 203.676 93.1437 206.034 93.5912C208.391 94.0411 210.345 94.8494 211.894 96.0162C213.443 97.1829 214.589 98.8116 215.33 100.9C216.07 102.988 216.441 105.673 216.441 108.949C216.441 112.228 216.046 114.911 215.262 116.999C214.478 119.087 213.297 120.716 211.726 121.882C210.155 123.049 208.168 123.848 205.764 124.274C203.361 124.699 200.544 124.914 197.311 124.914Z" fill="white"/>
<path d="M220.947 124.442V96.8914C220.947 95.4552 221.127 94.5218 221.49 94.096C221.851 93.6702 222.756 93.4561 224.204 93.4561H232.612L249.298 115.281L249.639 116.358V93.4561H256.284C256.241 93.5475 256.193 93.7929 256.149 94.197C256.104 94.6012 256.082 95.0511 256.082 95.5442V96.8241V121.41C256.082 122.803 255.832 123.657 255.334 123.97C254.836 124.285 253.866 124.442 252.418 124.442H244.686L227.728 102.213L227.459 101.068V124.442H220.947Z" fill="white"/>
<path d="M261.403 118.042C262.526 118.581 263.955 118.976 265.69 119.221C267.424 119.469 269.228 119.625 271.1 119.693C272.974 119.76 274.639 119.794 276.092 119.794H278.026C278.796 119.794 279.441 119.772 279.958 119.726C281.457 119.683 282.746 119.515 283.824 119.221C284.902 118.93 285.722 118.446 286.282 117.773C286.845 117.099 287.127 116.156 287.127 114.944C287.127 113.462 286.706 112.485 285.861 112.014C285.017 111.542 283.728 111.306 281.995 111.306H280.064H277.497H273.843C272.389 111.306 270.936 111.239 269.483 111.104C268.033 110.97 266.71 110.657 265.514 110.161C264.321 109.668 263.37 108.872 262.668 107.77C261.966 106.671 261.614 105.133 261.614 103.156C261.614 100.822 262.035 98.9915 262.877 97.6659C263.722 96.3428 264.917 95.3541 266.464 94.7021C268.009 94.0526 269.837 93.6364 271.944 93.456C274.054 93.2779 276.349 93.1865 278.832 93.1865C280.331 93.1865 281.971 93.2106 283.752 93.2539C285.534 93.2996 287.209 93.3886 288.777 93.5233C290.348 93.658 291.553 93.8601 292.398 94.1296C293.709 94.221 294.717 94.5674 295.419 95.1736C296.122 95.7799 296.473 96.5329 296.473 97.4302V98.1711V99.2489V99.8551C296.098 99.4967 295.407 99.2056 294.402 98.9795C293.391 98.7557 292.244 98.5873 290.957 98.4743C289.667 98.3636 288.392 98.2842 287.127 98.2385C285.861 98.1952 284.784 98.1711 283.894 98.1711H278.341C276.888 98.1711 275.635 98.2842 274.581 98.5079C273.527 98.7341 272.705 99.1479 272.12 99.7541C271.533 100.36 271.242 101.27 271.242 102.482C271.242 103.425 271.442 104.157 271.839 104.671C272.238 105.189 272.823 105.537 273.597 105.715C274.369 105.896 275.341 105.985 276.513 105.985H282.662H286.073C288.274 105.985 290.194 106.165 291.835 106.524C293.473 106.885 294.753 107.669 295.665 108.881C296.579 110.094 297.036 111.98 297.036 114.54C297.036 116.965 296.509 118.896 295.455 120.333C294.402 121.771 292.958 122.803 291.132 123.431C289.304 124.061 287.173 124.442 284.736 124.576C282.91 124.711 281.151 124.778 279.465 124.778H274.124C272.531 124.733 270.973 124.665 269.45 124.576C267.927 124.487 266.568 124.307 265.374 124.037C264.179 123.768 263.219 123.397 262.492 122.926C261.763 122.454 261.403 121.814 261.403 121.006V118.042Z" fill="white"/>
<path d="M340.347 109.825C340.347 112.207 340.205 114.317 339.921 116.157C339.637 118 338.93 119.549 337.795 120.805C336.659 122.063 334.85 123.006 332.37 123.634C329.887 124.264 326.447 124.577 322.052 124.577C318.503 124.577 315.583 124.375 313.292 123.971C310.997 123.567 309.224 122.96 307.973 122.152C306.718 121.344 305.82 120.367 305.277 119.222C304.733 118.077 304.401 116.763 304.285 115.281C304.165 113.799 304.107 112.183 304.107 110.431V97.6329C304.107 96.4662 304.141 95.5785 304.213 94.9722C304.285 94.366 304.579 93.9618 305.099 93.7597C305.621 93.5577 306.47 93.4566 307.653 93.4566H313.54V112.654C313.54 114.586 313.834 116.046 314.426 117.033C315.017 118.021 315.939 118.695 317.192 119.053C318.443 119.414 320.065 119.592 322.052 119.592C325.218 119.592 327.474 119.077 328.824 118.043C330.171 117.011 330.845 115.238 330.845 112.722V93.4566H336.659C337.888 93.4566 338.762 93.5577 339.284 93.7597C339.803 93.9618 340.111 94.366 340.205 94.9722C340.299 95.5785 340.347 96.4662 340.347 97.6329V109.825Z" fill="white"/>
<path d="M356.244 93.4571V119.66H376.384V124.443H347.285V96.623C347.285 95.9061 347.328 95.3095 347.42 94.8379C347.509 94.3664 347.756 94.0176 348.161 93.7939C348.565 93.5701 349.282 93.4571 350.316 93.4571H356.244Z" fill="white"/>
<path d="M375.307 93.4571H410.2V98.307H397.266V121.277C397.266 122.535 397.086 123.377 396.728 123.803C396.367 124.231 395.537 124.443 394.235 124.443H388.24V98.307H375.307V93.4571Z" fill="white"/>
<path d="M110.52 65.8321V84.6856L93.8438 79.7299V67.9948C90.839 67.6725 87.7549 67.3958 84.5938 67.1817C81.2499 66.9676 78.1658 66.7992 75.3294 66.6765C72.4907 66.5682 70.2822 66.5081 68.7017 66.5081C61.6746 66.5081 56.0909 67.2731 51.9507 68.8079C47.8225 70.326 44.8466 73.1334 43.0376 77.2159C41.2116 81.296 40.3071 87.1852 40.3071 94.9027C40.3071 102.158 41.1346 107.788 42.7753 111.808C44.4184 115.842 47.1176 118.635 50.8465 120.23C54.5874 121.811 59.5287 122.607 65.6488 122.607C71.3095 122.607 75.7889 122.102 79.0727 121.074C82.3541 120.062 84.7333 118.25 86.2056 115.642C87.6779 113.035 88.4766 109.46 88.5993 104.92V99.8272L58.4991 90.6229C58.4991 87.4474 58.6987 85.008 59.0981 83.3048C59.4974 81.6184 60.4645 80.3915 61.9825 79.6529C62.6417 79.3474 63.4548 79.0851 64.4364 78.9168C67.0297 78.4428 69.7001 78.7026 72.2309 79.4556L110.52 90.8226V104.583C110.52 110.136 109.844 114.846 108.48 118.695C107.114 122.547 104.737 125.645 101.347 127.962C97.9407 130.279 93.2015 131.98 87.1415 133.055C81.0815 134.145 73.4578 134.681 64.2848 134.681C55.6627 134.681 48.3903 134.113 42.4385 132.978C36.4868 131.842 31.608 129.771 27.819 126.764C24.0156 123.774 21.2683 119.694 19.5819 114.538C17.8786 109.368 17.0198 102.834 17.0198 94.9027C17.0198 86.1748 18.1553 79.1477 20.4239 73.8239C22.6949 68.4856 25.9161 64.4368 30.1213 61.6606C34.3072 58.882 39.3544 57.0103 45.246 56.0601C51.1376 55.093 57.7629 54.6022 65.1268 54.6022C72.3824 54.6022 78.9332 54.7562 84.7622 55.0328C90.6081 55.3239 95.1501 55.8604 98.4483 56.4739C101.162 56.9815 106.086 57.9943 107.604 58.9133C109.017 59.7721 109.676 60.8475 110.015 62.0888C110.352 63.3326 110.52 64.5883 110.52 65.8321Z" fill="white"/>
<path d="M122.33 26.8664C119.804 31.6779 116.364 35.9119 113.574 40.579C111.433 44.1394 109.676 48.0848 109.195 52.1505C107.632 51.525 104.865 50.7311 99.6927 49.7688C95.6992 49.023 90.7916 48.4938 85.09 48.2292C78.9555 47.9405 72.2435 47.7721 65.1226 47.7721C57.4484 47.7721 50.3996 48.3013 44.1689 49.3358C37.3366 50.4184 31.3464 52.6557 26.3666 55.9755C21.05 59.4638 16.9362 64.588 14.1456 71.1556C11.4993 77.3864 10.2002 85.1568 10.2002 94.9C10.2002 103.609 11.1384 110.73 13.1111 116.648C13.6885 118.428 14.3621 120.088 15.18 121.676C7.40958 115.014 2.60538 105.329 1.03445 95.2921C-0.627894 84.6637 -0.497986 73.518 2.9903 63.2288C3.88763 60.5825 4.98222 58.0036 6.26928 55.5233C11.8962 44.6711 21.1727 35.7555 32.2365 30.5616C52.6273 20.9869 76.2995 23.0029 97.72 17.2436C108.546 14.3327 119.107 9.11228 126.18 0.499832C127.912 9.37691 126.54 18.8554 122.33 26.8664Z" fill="white"/>
</svg>
