<svg width="40" height="40" viewBox="0 0 40 40" fill="none" xmlns="http://www.w3.org/2000/svg">
<circle cx="20" cy="20" r="20" fill="#505050"/>
<path d="M23.8 22.7333C24 22.1333 24 21.6667 23.9333 21.5333C23.8667 21.4 23.7333 21.4 23.4667 21.2667C23.2 21.1333 22 20.5333 21.8 20.4667C21.6 20.4 21.3333 20.4 21.2 20.6667C20.9333 21 20.7333 21.3333 20.5333 21.5333C20.4 21.6667 20.1333 21.7333 19.9333 21.6C19.6667 21.4667 18.8667 21.2 17.9333 20.4C17.2 19.7333 16.7333 18.9333 16.5333 18.6667C16.4 18.4 16.5333 18.2667 16.6667 18.1333C16.8 18 16.9333 17.8667 17.0667 17.7333C17.2 17.6 17.2667 17.5333 17.3333 17.3333C17.4 17.2 17.3333 17 17.2667 16.8667C17.2 16.7333 16.7333 15.5333 16.5333 15.0667C16.4 14.7333 16.2667 14.7333 16 14.7333C15.9333 14.6667 15.8 14.6667 15.7333 14.6667C15.4 14.6667 15.0667 14.7333 14.8667 15C14.6 15.2667 14 15.8667 14 17.0667C14 18.2667 14.8667 19.4667 15 19.6C15.1333 19.7333 16.7333 22.2667 19.2 23.3333C21.1333 24.1333 21.7333 24.0667 22.1333 24C22.8 23.8 23.6 23.3333 23.8 22.7333Z" stroke="white" stroke-miterlimit="10" stroke-linecap="round" stroke-linejoin="round"/>
<path d="M20 10C14.4667 10 10 11.2667 10 18.6667C10 23.4667 11.8667 25.6667 14.6667 26.6667V29.6C14.6667 30 15.1333 30.2 15.4667 29.9333L18.0667 27.3333C18.6667 27.3333 19.3333 27.3333 20 27.3333C25.5333 27.3333 30 26.0667 30 18.6667C30 11.2667 25.5333 10 20 10Z" stroke="white" stroke-miterlimit="10" stroke-linecap="round" stroke-linejoin="round"/>
<path d="M19.6666 16.8C20.5333 16.8 21.2 17.4667 21.2 18.3334" stroke="white" stroke-miterlimit="10" stroke-linecap="round" stroke-linejoin="round"/>
<path d="M19.6666 12.6667C22.8 12.6667 25.3333 15.2 25.3333 18.3333" stroke="white" stroke-miterlimit="10" stroke-linecap="round" stroke-linejoin="round"/>
<path d="M19.6666 14.7333C21.6666 14.7333 23.2666 16.3333 23.2666 18.3333" stroke="white" stroke-miterlimit="10" stroke-linecap="round" stroke-linejoin="round"/>
</svg>
