<svg width="251" height="37" viewBox="0 0 251 37" fill="none" xmlns="http://www.w3.org/2000/svg">
<path d="M15.7731 23.2576C16.377 23.9239 17.1682 24.257 18.1468 24.257C19.1254 24.257 19.9166 23.9239 20.5204 23.2576C21.1243 22.5705 21.4262 21.5502 21.4262 20.1968C21.4262 18.8434 21.1243 17.8336 20.5204 17.1673C19.9166 16.4802 19.1254 16.1366 18.1468 16.1366C17.1682 16.1366 16.377 16.4802 15.7731 17.1673C15.1693 17.8336 14.8674 18.8434 14.8674 20.1968C14.8674 21.5502 15.1693 22.5705 15.7731 23.2576ZM17.0537 28.9418C14.805 28.9418 13.0143 28.1923 11.6817 26.6931C10.37 25.194 9.71411 23.0285 9.71411 20.1968C9.71411 17.3651 10.37 15.1997 11.6817 13.7005C13.0143 12.2014 14.805 11.4518 17.0537 11.4518C18.8651 11.4518 20.2706 12.0765 21.27 13.3257H21.4262V6.767H26.5795V28.6295H22.0508L21.5823 26.9117H21.4262C20.3018 28.2651 18.8443 28.9418 17.0537 28.9418Z" fill="black"/>
<path d="M37.9756 28.9418C35.2271 28.9418 33.1033 28.1923 31.6042 26.6931C30.1259 25.1731 29.3867 23.0077 29.3867 20.1968C29.3867 17.4276 30.1467 15.283 31.6667 13.763C33.1866 12.2222 35.2896 11.4518 37.9756 11.4518C40.5574 11.4518 42.5771 12.2639 44.0346 13.8879C45.5129 15.4912 46.2521 17.5421 46.2521 20.0407L46.0959 21.7584H34.54C34.9564 23.6324 36.0496 24.5693 37.8194 24.5693C39.0479 24.5693 39.9952 24.1529 40.6615 23.32H45.9398C45.7732 23.9863 45.5129 24.6214 45.159 25.2252C44.805 25.8082 44.3261 26.4016 43.7223 27.0054C43.1393 27.5884 42.3481 28.0569 41.3486 28.4109C40.3492 28.7648 39.2248 28.9418 37.9756 28.9418ZM34.54 18.3229H41.0988C40.9322 17.6358 40.5574 17.0528 39.9744 16.5739C39.4122 16.0742 38.6939 15.8243 37.8194 15.8243C36.9241 15.8243 36.1953 16.0534 35.6331 16.5114C35.071 16.9695 34.7066 17.5733 34.54 18.3229Z" fill="black"/>
<path d="M48.8946 28.6295V11.7641H53.4233L53.8918 13.4819H54.0479C55.0057 12.1285 56.255 11.4518 57.7958 11.4518C58.5245 11.4518 59.1804 11.5663 59.7634 11.7954C60.3672 12.0036 60.8357 12.2743 61.1688 12.6074C61.5228 12.9406 61.7831 13.2216 61.9496 13.4507C62.137 13.6797 62.262 13.8671 62.3244 14.0129H62.4806C62.5847 13.7838 62.7721 13.5027 63.0428 13.1696C63.3343 12.8364 63.8756 12.4721 64.6668 12.0765C65.4581 11.66 66.343 11.4518 67.3216 11.4518C68.9457 11.4518 70.3615 12.0452 71.5692 13.2321C72.7976 14.3981 73.4118 16.0429 73.4118 18.1667V28.6295H68.2585V19.1037C68.2585 18.1251 68.0503 17.3859 67.6339 16.8862C67.2175 16.3865 66.6449 16.1366 65.9161 16.1366C65.2498 16.1366 64.7189 16.3865 64.3233 16.8862C63.9277 17.3859 63.7299 18.1251 63.7299 19.1037V28.6295H58.5766V19.1037C58.5766 18.1251 58.3684 17.3859 57.9519 16.8862C57.5355 16.3865 56.9629 16.1366 56.2342 16.1366C55.5679 16.1366 55.0369 16.3865 54.6413 16.8862C54.2457 17.3859 54.0479 18.1251 54.0479 19.1037V28.6295H48.8946Z" fill="black"/>
<path d="M76.6802 28.6295V11.7641H81.8336V28.6295H76.6802ZM81.3338 9.73405C80.8133 10.2546 80.1158 10.5149 79.2413 10.5149C78.3668 10.5149 77.6693 10.2546 77.1487 9.73405C76.6282 9.19269 76.3679 8.516 76.3679 7.70396C76.3679 6.89193 76.6282 6.22564 77.1487 5.7051C77.6693 5.16375 78.3668 4.89307 79.2413 4.89307C80.1158 4.89307 80.8133 5.16375 81.3338 5.7051C81.8752 6.22564 82.1459 6.89193 82.1459 7.70396C82.1459 8.516 81.8752 9.19269 81.3338 9.73405Z" fill="black"/>
<path d="M88.2483 28.6295L83.7197 11.7641H89.0291L91.5277 22.2269L94.1825 11.7641H99.1796L101.834 22.2269L104.333 11.7641H109.642L105.114 28.6295H99.3358L96.681 19.2599L94.0263 28.6295H88.2483Z" fill="black"/>
<path d="M119.014 28.9418C116.266 28.9418 114.142 28.1923 112.643 26.6931C111.165 25.1731 110.426 23.0077 110.426 20.1968C110.426 17.4276 111.186 15.283 112.706 13.763C114.226 12.2222 116.328 11.4518 119.014 11.4518C121.596 11.4518 123.616 12.2639 125.073 13.8879C126.552 15.4912 127.291 17.5421 127.291 20.0407L127.135 21.7584H115.579C115.995 23.6324 117.088 24.5693 118.858 24.5693C120.087 24.5693 121.034 24.1529 121.7 23.32H126.979C126.812 23.9863 126.552 24.6214 126.198 25.2252C125.844 25.8082 125.365 26.4016 124.761 27.0054C124.178 27.5884 123.387 28.0569 122.388 28.4109C121.388 28.7648 120.264 28.9418 119.014 28.9418ZM115.579 18.3229H122.138C121.971 17.6358 121.596 17.0528 121.013 16.5739C120.451 16.0742 119.733 15.8243 118.858 15.8243C117.963 15.8243 117.234 16.0534 116.672 16.5114C116.11 16.9695 115.745 17.5733 115.579 18.3229Z" fill="black"/>
<path d="M136.149 23.2576C136.753 23.9239 137.544 24.257 138.522 24.257C139.501 24.257 140.292 23.9239 140.896 23.2576C141.5 22.5705 141.802 21.5502 141.802 20.1968C141.802 18.8434 141.5 17.8336 140.896 17.1673C140.292 16.4802 139.501 16.1366 138.522 16.1366C137.544 16.1366 136.753 16.4802 136.149 17.1673C135.545 17.8336 135.243 18.8434 135.243 20.1968C135.243 21.5502 135.545 22.5705 136.149 23.2576ZM139.615 28.9418C137.825 28.9418 136.367 28.2651 135.243 26.9117H135.087L134.618 28.6295H130.09V6.767H135.243V13.3257H135.399C136.399 12.0765 137.804 11.4518 139.615 11.4518C141.864 11.4518 143.644 12.2014 144.956 13.7005C146.289 15.1997 146.955 17.3651 146.955 20.1968C146.955 23.0285 146.289 25.194 144.956 26.6931C143.644 28.1923 141.864 28.9418 139.615 28.9418Z" fill="black"/>
<path d="M153.635 27.9736C153.094 28.515 152.427 28.7857 151.636 28.7857C150.845 28.7857 150.179 28.515 149.637 27.9736C149.096 27.4115 148.825 26.7452 148.825 25.9748C148.825 25.2044 149.096 24.5485 149.637 24.0071C150.179 23.445 150.845 23.1639 151.636 23.1639C152.427 23.1639 153.094 23.445 153.635 24.0071C154.176 24.5485 154.447 25.2044 154.447 25.9748C154.447 26.7452 154.176 27.4115 153.635 27.9736Z" fill="black"/>
<path d="M163.668 28.9418C162.294 28.9418 161.096 28.7753 160.076 28.4421C159.056 28.0881 158.265 27.6093 157.703 27.0054C157.14 26.4016 156.714 25.777 156.422 25.1315C156.131 24.486 155.943 23.7781 155.86 23.0077H161.169C161.253 23.4241 161.523 23.7885 161.981 24.1008C162.439 24.4132 163.002 24.5693 163.668 24.5693C165.334 24.5693 166.166 24.2049 166.166 23.4762C166.166 23.1222 165.927 22.8411 165.448 22.6329C164.969 22.4247 164.365 22.2894 163.637 22.2269C162.929 22.1644 162.158 22.0291 161.325 21.8209C160.493 21.6127 159.712 21.3524 158.983 21.0401C158.275 20.7278 157.682 20.2072 157.203 19.4785C156.724 18.7497 156.485 17.844 156.485 16.7613C156.485 15.1997 157.12 13.9296 158.39 12.951C159.66 11.9515 161.419 11.4518 163.668 11.4518C166.166 11.4518 168.02 12.0036 169.227 13.1071C170.435 14.1898 171.132 15.512 171.32 17.0736H166.01C165.969 16.7196 165.75 16.4281 165.354 16.1991C164.98 15.9492 164.417 15.8243 163.668 15.8243C162.419 15.8243 161.794 16.1887 161.794 16.9174C161.794 17.2506 162.033 17.5109 162.512 17.6982C162.991 17.8856 163.585 18.021 164.293 18.1043C165.021 18.1667 165.802 18.3125 166.635 18.5415C167.468 18.7497 168.238 19.01 168.946 19.3223C169.675 19.6346 170.279 20.1656 170.758 20.9152C171.236 21.6439 171.476 22.5496 171.476 23.6324C171.476 24.257 171.361 24.8504 171.132 25.4126C170.903 25.9748 170.518 26.537 169.977 27.0991C169.456 27.6613 168.655 28.109 167.572 28.4421C166.489 28.7753 165.188 28.9418 163.668 28.9418Z" fill="black"/>
<path d="M181.159 28.6295C179.16 28.6295 177.724 28.2131 176.849 27.3802C175.975 26.5265 175.537 25.2252 175.537 23.4762V16.449H172.883V11.7641H175.537L176.318 7.39164H180.691V11.7641H184.595V16.449H180.691V22.5392C180.691 22.9348 180.826 23.268 181.097 23.5387C181.367 23.8093 181.7 23.9447 182.096 23.9447H184.595V28.6295H181.159Z" fill="black"/>
<path d="M193.482 28.9418C191.838 28.9418 190.432 28.3692 189.266 27.2241C188.121 26.0581 187.548 24.3403 187.548 22.0708V11.7641H192.702V21.29C192.702 22.2269 192.931 22.9557 193.389 23.4762C193.847 23.9967 194.503 24.257 195.356 24.257C196.148 24.257 196.783 23.9967 197.261 23.4762C197.761 22.9348 198.011 22.2061 198.011 21.29V11.7641H203.164V28.6295H198.636L198.167 26.9117H198.011C196.824 28.2651 195.315 28.9418 193.482 28.9418Z" fill="black"/>
<path d="M211.889 23.2576C212.493 23.9239 213.284 24.257 214.263 24.257C215.241 24.257 216.033 23.9239 216.636 23.2576C217.24 22.5705 217.542 21.5502 217.542 20.1968C217.542 18.8434 217.24 17.8336 216.636 17.1673C216.033 16.4802 215.241 16.1366 214.263 16.1366C213.284 16.1366 212.493 16.4802 211.889 17.1673C211.285 17.8336 210.983 18.8434 210.983 20.1968C210.983 21.5502 211.285 22.5705 211.889 23.2576ZM213.17 28.9418C210.921 28.9418 209.13 28.1923 207.798 26.6931C206.486 25.194 205.83 23.0285 205.83 20.1968C205.83 17.3651 206.486 15.1997 207.798 13.7005C209.13 12.2014 210.921 11.4518 213.17 11.4518C214.981 11.4518 216.387 12.0765 217.386 13.3257H217.542V6.767H222.695V28.6295H218.167L217.698 26.9117H217.542C216.418 28.2651 214.96 28.9418 213.17 28.9418Z" fill="black"/>
<path d="M226.284 28.6295V11.7641H231.437V28.6295H226.284ZM230.937 9.73405C230.417 10.2546 229.719 10.5149 228.845 10.5149C227.97 10.5149 227.273 10.2546 226.752 9.73405C226.231 9.19269 225.971 8.516 225.971 7.70396C225.971 6.89193 226.231 6.22564 226.752 5.7051C227.273 5.16375 227.97 4.89307 228.845 4.89307C229.719 4.89307 230.417 5.16375 230.937 5.7051C231.478 6.22564 231.749 6.89193 231.749 7.70396C231.749 8.516 231.478 9.19269 230.937 9.73405Z" fill="black"/>
<path d="M248.752 26.6619C247.273 28.1818 245.202 28.9418 242.536 28.9418C239.871 28.9418 237.8 28.1818 236.321 26.6619C234.843 25.1419 234.104 22.9869 234.104 20.1968C234.104 17.4068 234.843 15.2517 236.321 13.7318C237.8 12.2118 239.871 11.4518 242.536 11.4518C245.202 11.4518 247.273 12.2118 248.752 13.7318C250.23 15.2517 250.969 17.4068 250.969 20.1968C250.969 22.9869 250.23 25.1419 248.752 26.6619ZM240.163 23.2576C240.767 23.9239 241.558 24.257 242.536 24.257C243.515 24.257 244.306 23.9239 244.91 23.2576C245.514 22.5705 245.816 21.5502 245.816 20.1968C245.816 18.8434 245.514 17.8336 244.91 17.1673C244.306 16.4802 243.515 16.1366 242.536 16.1366C241.558 16.1366 240.767 16.4802 240.163 17.1673C239.559 17.8336 239.257 18.8434 239.257 20.1968C239.257 21.5502 239.559 22.5705 240.163 23.2576Z" fill="black"/>
</svg>
